<svg width="36" height="36" viewBox="0 0 36 36" fill="none" xmlns="http://www.w3.org/2000/svg">
<g clip-path="url(#clip0_1319_26339)">
<path d="M32.5069 27.8284C31.5426 26.9688 30.6983 25.9833 29.9969 24.8984C29.2303 23.4013 28.7713 21.7658 28.6469 20.0884V15.1484C28.6535 12.514 27.6979 9.96791 25.9596 7.98841C24.2213 6.00891 21.82 4.7323 19.2069 4.39844V3.10844C19.2069 2.75437 19.0662 2.41481 18.8159 2.16445C18.5655 1.91409 18.2259 1.77344 17.8719 1.77344C17.5178 1.77344 17.1782 1.91409 16.9279 2.16445C16.6775 2.41481 16.5369 2.75437 16.5369 3.10844V4.41844C13.9471 4.77637 11.5748 6.06069 9.8594 8.03354C8.14396 10.0064 7.20161 12.5341 7.20687 15.1484V20.0884C7.08243 21.7658 6.62341 23.4013 5.85688 24.8984C5.16776 25.9808 4.33707 26.9662 3.38688 27.8284C3.28021 27.9221 3.19472 28.0375 3.13609 28.1668C3.07747 28.2961 3.04705 28.4365 3.04688 28.5784V29.9384C3.04688 30.2037 3.15223 30.458 3.33977 30.6455C3.5273 30.8331 3.78166 30.9384 4.04688 30.9384H31.8469C32.1121 30.9384 32.3664 30.8331 32.554 30.6455C32.7415 30.458 32.8469 30.2037 32.8469 29.9384V28.5784C32.8467 28.4365 32.8163 28.2961 32.7577 28.1668C32.699 28.0375 32.6135 27.9221 32.5069 27.8284ZM5.12688 28.9384C6.05707 28.0394 6.87624 27.0323 7.56688 25.9384C8.53266 24.1304 9.09556 22.1347 9.21688 20.0884V15.1484C9.17722 13.9765 9.3738 12.8085 9.79492 11.7141C10.216 10.6197 10.8531 9.62122 11.6681 8.77814C12.4832 7.93506 13.4595 7.2646 14.5391 6.80671C15.6186 6.34882 16.7792 6.11284 17.9519 6.11284C19.1245 6.11284 20.2852 6.34882 21.3647 6.80671C22.4442 7.2646 23.4206 7.93506 24.2356 8.77814C25.0507 9.62122 25.6877 10.6197 26.1088 11.7141C26.53 12.8085 26.7265 13.9765 26.6869 15.1484V20.0884C26.8082 22.1347 27.3711 24.1304 28.3369 25.9384C29.0275 27.0323 29.8467 28.0394 30.7769 28.9384H5.12688Z" fill="white"/>
<path d="M18.0003 34.28C18.6302 34.2655 19.2348 34.0287 19.7069 33.6114C20.1791 33.1942 20.4884 32.6234 20.5803 32H15.3203C15.4148 32.6403 15.7386 33.2245 16.2316 33.6439C16.7246 34.0633 17.3531 34.2894 18.0003 34.28Z" fill="white"/>
</g>
<defs>
<clipPath id="clip0_1319_26339">
<rect width="36" height="36" fill="white"/>
</clipPath>
</defs>
</svg>
