<svg width="36" height="36" viewBox="0 0 36 36" fill="none" xmlns="http://www.w3.org/2000/svg">
<path d="M20.25 12.2745V7.2255C20.25 6.8685 20.367 6.575 20.601 6.345C20.835 6.115 21.125 6 21.471 6H28.791C29.138 6 29.426 6.115 29.655 6.345C29.884 6.575 29.999 6.8685 30 7.2255V12.2745C30 12.6325 29.883 12.926 29.649 13.155C29.415 13.385 29.125 13.5 28.779 13.5H21.459C21.113 13.5 20.825 13.385 20.595 13.155C20.365 12.925 20.25 12.6315 20.25 12.2745ZM6 16.8V7.2C6 6.86 6.117 6.575 6.351 6.345C6.585 6.115 6.875 6 7.221 6H14.541C14.888 6 15.176 6.115 15.405 6.345C15.634 6.575 15.749 6.86 15.75 7.2V16.8C15.75 17.14 15.633 17.425 15.399 17.655C15.165 17.885 14.875 18 14.529 18H7.209C6.863 18 6.575 17.885 6.345 17.655C6.115 17.425 6 17.14 6 16.8ZM20.25 28.8V19.2C20.25 18.86 20.367 18.575 20.601 18.345C20.835 18.115 21.125 18 21.471 18H28.791C29.138 18 29.426 18.115 29.655 18.345C29.884 18.575 29.999 18.86 30 19.2V28.8C30 29.14 29.883 29.425 29.649 29.655C29.415 29.885 29.125 30 28.779 30H21.459C21.113 30 20.825 29.885 20.595 29.655C20.365 29.425 20.25 29.14 20.25 28.8ZM6 28.7745V23.7255C6 23.3685 6.117 23.075 6.351 22.845C6.585 22.615 6.875 22.5 7.221 22.5H14.541C14.888 22.5 15.176 22.615 15.405 22.845C15.634 23.075 15.749 23.3685 15.75 23.7255V28.7745C15.75 29.1325 15.633 29.426 15.399 29.655C15.165 29.885 14.875 30 14.529 30H7.209C6.863 30 6.575 29.885 6.345 29.655C6.115 29.425 6 29.1315 6 28.7745ZM7.5 16.5H14.25V7.5H7.5V16.5ZM21.75 28.5H28.5V19.5H21.75V28.5ZM21.75 12H28.5V7.5H21.75V12ZM7.5 28.5H14.25V24H7.5V28.5Z" fill="white"/>
</svg>
