<svg width="24" height="24" viewBox="0 0 24 24" fill="none" xmlns="http://www.w3.org/2000/svg">
<path d="M12 12C14.2091 12 16 10.2091 16 8C16 5.79086 14.2091 4 12 4C9.79086 4 8 5.79086 8 8C8 10.2091 9.79086 12 12 12Z" stroke="white" stroke-width="1.5" stroke-linecap="round"/>
<path fill-rule="evenodd" clip-rule="evenodd" d="M15.2759 16.0002C13.864 15.5592 12.3777 15.4075 10.9059 15.5542C9.2659 15.7162 7.7149 16.2402 6.4499 17.0712C5.1859 17.9032 4.2539 19.0142 3.8019 20.2792C3.77671 20.3417 3.76441 20.4086 3.76572 20.4759C3.76703 20.5433 3.78194 20.6097 3.80955 20.6711C3.83716 20.7325 3.87689 20.7878 3.92637 20.8335C3.97585 20.8792 4.03405 20.9144 4.09749 20.9371C4.16092 20.9597 4.22828 20.9693 4.29552 20.9653C4.36275 20.9613 4.42848 20.9437 4.48876 20.9136C4.54904 20.8836 4.60262 20.8416 4.64629 20.7904C4.68996 20.7391 4.72282 20.6795 4.7429 20.6152C5.1099 19.5882 5.8849 18.6402 6.9999 17.9072C8.1149 17.1742 9.5079 16.6972 11.0049 16.5492C11.5549 16.4952 12.1079 16.4862 12.6539 16.5212C13.0221 16.1861 13.502 16.0003 13.9999 16.0002H15.2759Z" fill="white"/>
<path d="M18 14V22M22 18H14" stroke="white" stroke-width="1.5" stroke-linecap="round"/>
</svg>
