<svg xmlns:xlink="http://www.w3.org/1999/xlink" xmlns="http://www.w3.org/2000/svg" id="Layer_1" version="1.1" viewBox="0 0 1000 1000" width="1000"  height="1000" >
  <!-- Generator: Adobe Illustrator 29.7.1, SVG Export Plug-In . SVG Version: 2.1.1 Build 8)  -->
  <defs>
    <style>
      .st0, .st1 {
        fill: #9e925e;
      }

      .st1, .st2 {
        fill-rule: evenodd;
      }

      .st2, .st3 {
        fill: #008556;
      }
    </style>
  </defs>
  <path class="st0" d="M289.81,687.54h-.29l-14.93-29.43h-6.6v38.34h2.83v-31.24h.43l15.95,31.24h1.3l15.73-31.46h.22v31.46h6.45v-38.34h-6.45l-14.64,29.43ZM319.46,667.97v28.49h5.87v-30.15h-1.74l-4.13,1.67ZM324.75,652.6c-.29-.29-.65-.51-1.09-.65s-.87-.22-1.3-.22-.87.07-1.3.22-.72.36-1.09.65c-.29.29-.51.58-.72.94s-.29.72-.29,1.16.07.8.29,1.16c.22.36.43.65.72.94.29.29.65.51,1.09.65s.87.22,1.3.22.87-.07,1.3-.22.8-.36,1.09-.65.58-.58.72-.94c.22-.36.29-.72.29-1.16s-.07-.8-.29-1.16c-.22-.36-.43-.65-.72-.94M355.05,668.91c-.65-.8-1.45-1.45-2.39-1.88s-1.88-.72-2.9-.72c-2.03,0-3.99.51-5.87,1.52-1.96,1.01-3.77,2.54-5.58,4.49v-5.36h-5.87v29.57h5.87v-21.96c.65-.65,1.38-1.23,2.1-1.74s1.45-.94,2.17-1.38c.72-.36,1.45-.65,2.1-.87.72-.22,1.38-.29,1.96-.29,1.38,0,2.54.51,3.41,1.52.87,1.01,1.3,2.46,1.3,4.42v20.22h5.87v-21.24c0-1.23-.22-2.39-.58-3.48-.36-1.09-.87-2.03-1.59-2.83M369.54,652.6c-.29-.29-.65-.51-1.09-.65s-.87-.22-1.3-.22-.87.07-1.3.22c-.43.14-.72.36-1.09.65-.29.29-.58.58-.72.94-.22.36-.29.72-.29,1.16s.07.8.29,1.16.43.65.72.94c.29.29.65.51,1.09.65s.87.22,1.3.22.87-.07,1.3-.22c.43-.14.8-.36,1.09-.65s.51-.58.72-.94.29-.72.29-1.16-.07-.8-.29-1.16c-.14-.36-.43-.65-.72-.94M364.32,667.97v28.49h5.87v-30.15h-1.74l-4.13,1.67ZM395.35,682.47c-.8-.72-1.74-1.3-2.75-1.88-1.01-.51-2.1-1.01-3.19-1.52-1.09-.51-2.17-.94-3.19-1.38-1.01-.43-1.96-.94-2.75-1.45-.8-.51-1.45-1.16-1.96-1.81s-.72-1.45-.72-2.32c0-.51.14-1.01.43-1.52.29-.51.65-.87,1.16-1.23s1.09-.65,1.81-.87,1.45-.29,2.32-.29c1.59,0,3.04.43,4.42,1.38,1.38.87,2.61,2.25,3.77,4.13l2.17-1.96c-.87-1.16-1.74-2.1-2.54-2.83s-1.67-1.3-2.46-1.67-1.67-.65-2.54-.8c-.87-.14-1.81-.22-2.75-.22-1.45,0-2.83.22-4.06.58-1.23.43-2.32,1.01-3.19,1.74-.87.72-1.59,1.59-2.1,2.61s-.72,2.1-.72,3.33c0,1.3.22,2.39.65,3.26.43.94,1.01,1.74,1.81,2.46.72.72,1.59,1.3,2.54,1.88.94.51,1.88,1.01,2.9,1.52,1.01.43,1.96.94,2.9,1.38.94.43,1.81.94,2.54,1.45s1.38,1.16,1.81,1.81.65,1.45.65,2.39c0,.58-.14,1.09-.43,1.59s-.65,1.01-1.16,1.38c-.51.43-1.09.72-1.74.94s-1.45.36-2.25.36c-.87,0-1.59-.07-2.39-.29-.72-.22-1.45-.58-2.1-1.01-.65-.43-1.3-1.01-2.03-1.74-.65-.72-1.38-1.59-2.03-2.61l-2.39,2.17c.87,1.16,1.81,2.1,2.68,2.83.94.72,1.88,1.3,2.75,1.67.94.36,1.81.65,2.75.8.94.14,1.81.22,2.68.22,1.88,0,3.55-.22,5-.72,1.45-.43,2.61-1.09,3.55-1.88s1.67-1.74,2.1-2.83.72-2.25.72-3.48-.22-2.32-.72-3.26c-.51-.8-1.09-1.59-1.96-2.32M416.87,692.9c-.51.36-1.16.51-1.81.51-.43,0-.87-.07-1.23-.22-.43-.14-.72-.36-1.01-.65s-.51-.65-.65-1.01c-.14-.36-.22-.8-.22-1.23v-20.88h6.67v-2.46h-6.67v-10.15h-1.67c-.29,1.52-.65,2.9-1.01,4.28s-.94,2.54-1.59,3.55c-.65,1.01-1.52,1.81-2.61,2.39s-2.39.87-4.06.87v1.45h5.15v20.88c0,1.01.14,1.96.36,2.83s.58,1.59,1.09,2.17,1.09,1.09,1.81,1.38c.72.36,1.59.51,2.61.51,1.88,0,3.55-.36,4.86-1.16,1.3-.8,2.32-1.88,3.12-3.19l-1.45-1.01c-.65.43-1.16.87-1.67,1.16M440.87,667.32c-.43-.29-.87-.58-1.45-.8s-1.16-.29-1.81-.29c-.8,0-1.59.14-2.32.51-.8.36-1.52.8-2.25,1.38-.72.58-1.38,1.23-2.03,1.96s-1.3,1.52-1.81,2.39v-5.58h-5.87v29.57h5.87v-20.51c.43-.65.8-1.3,1.23-1.81.43-.58.8-1.01,1.23-1.45.36-.43.8-.72,1.16-.94s.8-.36,1.16-.36c.51,0,.94.07,1.23.22.36.14.65.29,1.01.43.29.14.65.36,1.09.51.36.14.94.22,1.59.22,1.09,0,1.88-.22,2.46-.72s.87-1.23.87-2.17c0-.51-.14-.94-.36-1.38-.29-.43-.65-.8-1.01-1.16M461.09,688.26l-11.45-21.31h-6.67l15.15,28.2-1.96,4.42c-.22.51-.51,1.09-.8,1.74s-.65,1.23-1.01,1.74-.8.94-1.3,1.3c-.51.36-1.01.51-1.59.51s-1.01-.07-1.38-.22-.65-.29-.94-.43c-.29-.14-.65-.36-.94-.43-.36-.14-.87-.22-1.45-.22-.51,0-1.01.07-1.45.29-.43.14-.8.43-1.09.72s-.51.65-.72,1.01c-.14.36-.22.8-.22,1.23,0,.51.14.94.36,1.38.22.43.58.8,1.01,1.09s.94.51,1.52.72c.58.14,1.16.22,1.81.22.94,0,1.88-.14,2.83-.51s1.96-.87,2.83-1.52c.94-.72,1.81-1.59,2.61-2.61.8-1.09,1.59-2.32,2.17-3.77l15.08-34.72h-3.12l-9.28,21.17ZM519.37,670.51c-1.38-1.3-3.04-2.32-4.93-3.12-1.88-.72-3.99-1.16-6.23-1.16s-4.35.43-6.23,1.23c-1.96.8-3.55,1.96-4.93,3.41s-2.46,3.12-3.26,5c-.8,1.96-1.16,3.99-1.16,6.16s.36,4.06,1.16,5.87,1.88,3.41,3.26,4.78c1.38,1.38,3.04,2.46,4.93,3.19,1.88.8,3.99,1.16,6.23,1.16s4.35-.43,6.23-1.3c1.88-.87,3.55-2.03,4.93-3.48,1.38-1.45,2.46-3.19,3.26-5.15.8-1.96,1.16-4.06,1.16-6.31,0-2.03-.36-3.91-1.16-5.65-.8-1.81-1.88-3.33-3.26-4.64M516.61,688.12c-.36,1.38-.94,2.54-1.67,3.55s-1.52,1.81-2.54,2.39c-.94.58-2.03.87-3.19.87-1.59,0-3.04-.43-4.28-1.23-1.23-.8-2.32-1.96-3.19-3.33-.87-1.38-1.52-3.04-1.96-4.93s-.72-3.91-.72-6.09c0-1.52.22-2.9.65-4.2s1.01-2.46,1.67-3.48c.72-1.01,1.52-1.74,2.46-2.32s1.88-.87,2.9-.87c1.96,0,3.55.36,4.86,1.23,1.3.8,2.39,1.88,3.19,3.26.8,1.38,1.45,3.04,1.81,4.86.36,1.88.58,3.84.58,6.02,0,1.52-.22,2.9-.58,4.28M550.1,653.18c-.72-.43-1.52-.8-2.61-1.09-1.01-.29-2.17-.36-3.48-.36-1.52,0-2.97.29-4.28.87-1.38.58-2.54,1.45-3.48,2.46-1.01,1.09-1.81,2.32-2.32,3.7-.58,1.45-.87,2.97-.87,4.57v3.48h-6.16v2.46h6.16v27.11h5.87v-27.11h7.9v-2.46h-7.9v-7.03c0-.72.07-1.52.29-2.17.22-.72.51-1.38.87-1.88.36-.58.8-1.01,1.3-1.3.51-.36,1.09-.51,1.67-.51.8,0,1.38.14,1.81.43.43.29.72.65.94,1.01.22.43.36.87.51,1.38s.29.94.51,1.38c.22.43.51.8.87,1.01.36.29.94.43,1.67.43.43,0,.8-.07,1.16-.22s.72-.29.94-.58c.29-.22.51-.51.65-.87s.22-.72.22-1.16c0-.72-.22-1.38-.58-1.96-.43-.58-.94-1.16-1.67-1.59M595.26,675.58h-19.28v-17.47h-6.45v38.34h6.45v-18.41h19.28v18.41h6.45v-38.34h-6.45v17.47ZM634.04,688.05c-.65.87-1.52,1.67-2.46,2.32-.94.65-2.03,1.23-3.19,1.59-1.16.43-2.39.65-3.7.65-1.52,0-2.9-.36-4.2-1.01-1.3-.72-2.39-1.67-3.33-2.9s-1.67-2.68-2.17-4.42c-.51-1.67-.8-3.55-.8-5.51h22.04c0-1.67-.29-3.26-.94-4.71-.65-1.52-1.52-2.83-2.68-3.99-1.16-1.16-2.54-2.03-4.13-2.75-1.59-.65-3.41-1.01-5.36-1.01-2.17,0-4.2.43-5.94,1.23-1.81.8-3.33,1.96-4.57,3.41s-2.25,3.19-2.97,5.22-1.01,4.2-1.01,6.6c0,1.96.36,3.84,1.16,5.58.72,1.74,1.81,3.26,3.12,4.57s2.83,2.32,4.57,3.04c1.74.72,3.62,1.16,5.65,1.16,1.52,0,3.04-.29,4.57-.87s2.9-1.38,4.13-2.32c1.23-1.01,2.39-2.17,3.33-3.48s1.59-2.75,2.03-4.28l-1.67-.72c-.29.87-.8,1.74-1.45,2.61M615.05,673.26c.43-.94.94-1.81,1.59-2.46.65-.72,1.38-1.23,2.17-1.67s1.67-.58,2.54-.58c1.09,0,2.03.22,2.97.58.94.43,1.74.94,2.39,1.67.72.72,1.23,1.52,1.59,2.54.36.94.58,2.03.58,3.12h-14.71c.22-1.23.43-2.25.87-3.19M662.09,668.4c-.8-.65-1.88-1.23-3.26-1.59-1.3-.36-2.97-.58-4.93-.58-1.59,0-3.12.14-4.57.51s-2.75.87-3.77,1.45c-1.09.65-1.96,1.38-2.61,2.17-.65.87-.94,1.74-.94,2.75,0,.51.07.94.22,1.38.14.43.36.8.65,1.09s.58.58,1.01.72c.36.14.8.29,1.23.29.58,0,1.09-.14,1.45-.36s.65-.51.87-.87.36-.8.43-1.23c.07-.51.14-.94.14-1.52s.07-1.09.22-1.67c.14-.51.36-1.01.72-1.45s.87-.8,1.45-1.01c.65-.29,1.45-.36,2.46-.36.87,0,1.67.14,2.39.36s1.3.65,1.81,1.23.87,1.3,1.16,2.25c.29.94.36,2.03.36,3.41v1.81c-1.3.36-2.68.65-4.06,1.09-1.38.36-2.75.8-4.06,1.3s-2.54,1.09-3.7,1.67c-1.16.65-2.17,1.38-3.04,2.17s-1.59,1.74-2.1,2.75c-.51,1.01-.72,2.17-.72,3.41,0,1.01.14,2.03.51,2.9s.87,1.67,1.52,2.32c.65.65,1.45,1.16,2.39,1.59.94.36,1.96.58,3.12.58,1.23,0,2.32-.14,3.26-.43.94-.29,1.81-.65,2.61-1.09s1.52-.94,2.17-1.52c.65-.51,1.38-1.09,2.03-1.59v4.06h5.87v-22.33c0-1.16-.22-2.25-.58-3.19-.29-.94-.94-1.74-1.74-2.46M658.54,690.29c-.58.43-1.16.87-1.74,1.23-.58.36-1.09.72-1.67,1.01s-1.16.51-1.74.72c-.58.14-1.23.29-1.88.29s-1.23-.14-1.81-.43c-.58-.29-1.09-.65-1.52-1.16-.43-.51-.8-1.01-1.09-1.74-.29-.65-.36-1.3-.36-2.03s.14-1.38.51-2.03c.36-.65.8-1.23,1.45-1.81.58-.58,1.3-1.09,2.1-1.59.8-.51,1.59-.94,2.46-1.38.87-.43,1.74-.8,2.68-1.16.87-.36,1.81-.65,2.61-.94v11.02h0ZM672.53,653.4v43.06h5.87v-44.72h-1.67l-4.2,1.67ZM698.48,692.9c-.58.36-1.16.51-1.81.51-.43,0-.87-.07-1.23-.22s-.72-.36-1.01-.65-.51-.65-.65-1.01-.22-.8-.22-1.23v-20.88h6.67v-2.46h-6.67v-10.15h-1.74c-.29,1.52-.65,2.9-1.01,4.28s-.94,2.54-1.59,3.55-1.52,1.81-2.61,2.39-2.46.87-4.06.87v1.45h5.15v20.88c0,1.01.14,1.96.36,2.83s.58,1.59,1.09,2.17,1.09,1.09,1.81,1.38c.72.36,1.59.51,2.61.51,1.88,0,3.55-.36,4.78-1.16,1.3-.8,2.32-1.88,3.12-3.19l-1.45-1.01c-.51.43-1.01.87-1.52,1.16M729.07,671.74c-.36-1.09-.94-2.03-1.59-2.83-.65-.8-1.45-1.45-2.39-1.88s-1.88-.72-2.9-.72c-2.03,0-3.99.51-5.87,1.52-1.96,1.01-3.77,2.54-5.58,4.49v-20.51h-1.67l-4.2,1.67v43.06h5.87v-21.96c.65-.65,1.38-1.23,2.03-1.74.72-.51,1.45-.94,2.1-1.38.72-.36,1.45-.65,2.1-.87.72-.22,1.38-.29,1.96-.29,1.38,0,2.54.51,3.41,1.52.87,1.01,1.3,2.46,1.3,4.42v20.22h5.87v-21.24c.14-1.23,0-2.39-.43-3.48"/>
  <path class="st1" d="M585.47,422.53c-3.55,2.17-7.18,4.57-9.06,5.87-5.8,4.06-11.74,8.34-17.61,12.76-25.95,19.64-51.68,42.69-71.33,64.8h-46.9s114.74-99.01,167.37-106.63c46.9-6.74,65.16,27.18,61.25,63.71.51-4.49.43-9.06-.29-13.12-1.67-9.79-5.8-17.83-11.53-24.06-4.64-5.07-10.37-9.57-18.05-12.47-6.67-2.54-13.77-3.62-21.53-2.9.07.07-13.48.65-32.33,12.03"/>
  <path class="st1" d="M411.95,422.53c3.55,2.17,7.18,4.57,9.06,5.87,5.8,4.06,11.74,8.34,17.61,12.76,25.95,19.64,51.68,42.69,71.33,64.8h46.9s-114.74-99.01-167.37-106.63c-46.9-6.74-65.16,27.18-61.25,63.71-.51-4.49-.43-9.06.29-13.12,1.67-9.79,5.8-17.83,11.53-24.06,4.64-5.07,10.37-9.57,18.05-12.47,6.6-2.54,13.77-3.62,21.53-2.9-.07.07,13.41.65,32.33,12.03"/>
  <path class="st3" d="M496.39,615.63h-20.88l.22-1.3c.65-3.62.94-7.47.94-9.64,0-12.76-5.65-27.69-21.6-27.69-5.44,0-10.73,2.46-15.08,5.51-5,3.48-9.42,7.83-12.83,12.9-3.77,5.8-6.67,12.25-9.86,18.34-.29.58-.65,1.23-.94,1.81h-.36v-24.64h-6.45v24.64h-18.85v-2.46c0-26.09-18.85-35.3-35.01-35.3h-24.86v5.51c1.81-.14,22.98-.22,23.99-.22,18.05,0,28.85,11.74,28.92,31.39v1.09h-79.73v-41.53c-1.88-.22-5.29-.36-6.74-.36-11.74,0-29.21,8.48-29.21,26.67,0,6.09,2.17,11.24,6.38,14.86,3.84,3.33,9.21,5.22,15,5.22h2.03l4.13-4.42.36-.36h-4.71c-9.64,0-16.16-6.23-16.16-15.58,0-8.55,4.13-13.63,7.61-16.38,4.35-3.41,9.5-4.64,12.54-4.64h2.25v41.39h205.2v-74.01h-6.45v69.22h.14ZM469.06,614.84l-.22.8h-46.25l.29-1.3c4.06-17.98,20.22-31.97,31.46-31.97,3.62,0,15.44,1.67,15.44,23.56,0,1.3,0,6.02-.72,8.92M523.28,620.42h6.45v-74.01h-6.45v74.01ZM285.24,563.45c2.75,0,4.93-2.17,4.93-4.93s-2.17-4.93-4.93-4.93-4.93,2.17-4.93,4.93,2.17,4.93,4.93,4.93M579.02,563.52c2.75,0,4.93-2.17,4.93-4.93s-2.17-4.93-4.93-4.93-4.93,2.17-4.93,4.93c0,2.75,2.17,4.93,4.93,4.93M299.96,563.45c2.68,0,4.93-2.17,4.93-4.93s-2.17-4.93-4.93-4.93-4.93,2.17-4.93,4.93c0,2.75,2.17,4.93,4.93,4.93M646,620.42h6.45v-74.01h-6.45v74.01ZM561.92,600.92c0,11.09,9.21,19.5,21.38,19.5h14.5v-46.32c-1.88-.22-3.99-.36-6.31-.36-16.6,0-29.57,11.96-29.57,27.18M591.35,615.63h-6.16c-11.24,0-16.31-7.83-16.31-15.58,0-13.63,10.37-21.02,20.08-21.02h2.39v36.6ZM677.75,553.66c-2.68,0-4.93,2.17-4.93,4.93s2.17,4.93,4.93,4.93,4.93-2.17,4.93-4.93c-.07-2.68-2.25-4.93-4.93-4.93M725.51,575.19c-16.82,0-30.01,11.45-30.01,26.17s12.25,19.06,20.51,19.06c1.16,0,1.96,0,2.46-.07l3.19-3.33,1.38-1.45h-4.28c-8.19,0-16.38-4.64-16.38-15,0-9.28,8.55-19.64,20.08-19.64h1.09v40.45c0,7.76-1.45,14.93-11.96,14.93-.87,0-2.1-.14-3.33-.36l-.8,4.93c1.52.29,3.26.51,5.8.51,5,0,16.74-1.67,16.74-17.25v-48.56c-1.81-.22-3.26-.36-4.49-.36M674.49,624.48c0,8.48-3.41,11.96-11.74,11.96-.87,0-2.17-.14-3.19-.36l-.8,5.15c2.61.36,3.77.43,5.8.43,4.93,0,16.45-1.52,16.45-15.29v-45.74h-6.45v43.85h-.07ZM593.74,553.66c-2.75,0-4.93,2.17-4.93,4.93s2.17,4.93,4.93,4.93,4.93-2.17,4.93-4.93c-.07-2.68-2.25-4.93-4.93-4.93M619.76,624.48c0,8.48-3.41,11.96-11.74,11.96-.87,0-2.17-.14-3.19-.36l-.8,5.15c2.61.36,3.77.43,5.8.43,4.93,0,16.38-1.52,16.38-15.29v-45.74h-6.45v43.85h0Z"/>
  <polygon class="st3" points="401.73 447.18 385.78 431.16 371.72 445.22 357.65 431.16 341.71 447.18 357.65 463.2 371.72 449.14 385.78 463.2 401.73 447.18"/>
  <path class="st3" d="M572.35,328.16c-1.23-2.83-2.68-5.65-4.42-8.34-14.5-22.47-42.19-31.24-66.4-22.76-1.45-5.22-2.54-8.19-2.54-8.19,0,0-1.16,3.04-2.54,8.19-24.14-8.48-51.83.36-66.32,22.76-1.74,2.68-3.19,5.51-4.42,8.34,10.22-11.24,24.21-17.54,38.71-18.41-13.48,10.37-22.18,26.67-22.18,44.94,0,3.19.29,6.38.8,9.42,2.75-16.53,12.76-30.66,26.53-39.07-8.7,17.4-8.34,38.78,2.97,56.32,1.74,2.68,3.7,5.22,5.8,7.47-9.42-21.82-4.13-47.26,13.05-63.57-.36,4.2-.65,8.7-.65,13.26,0,27.47,8.26,49.72,8.26,49.72,0,0,8.26-22.25,8.26-49.72,0-4.57-.22-8.99-.65-13.26,17.18,16.31,22.47,41.75,13.05,63.57,2.1-2.32,4.06-4.78,5.8-7.47,11.31-17.54,11.74-38.92,2.97-56.32,13.84,8.41,23.77,22.54,26.53,39.07.51-3.04.8-6.16.8-9.42,0-18.34-8.7-34.58-22.18-44.94,14.57.87,28.63,7.18,38.78,18.41"/>
  <path class="st2" d="M441.66,421.45s40.81-58.86,112.5,17.47c67.56,71.9,92.85,59.8,112.06,36.97,0,0-1.01,2.83-2.75,5.51-1.3,2.1-2.1,3.26-2.39,3.62-9.57,12.83-23.2,20.8-39.94,20.95-21.53.22-48.2-12.68-78.07-45.67-66.47-73.43-101.41-38.85-101.41-38.85"/>
</svg>