<svg xmlns="http://www.w3.org/2000/svg" xmlns:xlink="http://www.w3.org/1999/xlink" version="1.1" id="Layer_1" x="0px" y="0px" viewBox="0 0 1000 1000" style="enable-background:new 0 0 1000 1000;" xml:space="preserve" width="1000"  height="1000" >
<style type="text/css">
	.st0{fill:#81BD41;}
	.st1{fill:#006C68;}
</style>
<g>
	<path class="st0" d="M739.7,647.5c-88.5,0-160.4-72.1-160.4-160.4l1.3-22.1h25.1v-33.7h2.8V426h12l3.5,5.8h6.3v42.8h5v6.1h1.9   v-34.4h20.1v8.8h6.6v16.6h11.3v-16.1h15.2l5.3,6.9v18.3h31v4.6H691V464l-3-3.9h-8.1v21.6h-6.3v-5.5h-14.2v-16.6h-6.6v-8.9h-10.9   v34.5h-11.1v-6.1h-5v-42.8h-4.2l-3.5-5.8h-4.8v5.3h-2.8v33.8h-25.3l-0.9,17.7c0,85.7,69.9,155.6,155.8,155.6   c85.7,0,155.6-69.5,155.8-155h-16.3v-27.3H870v-14.1h-10.9v-6.1h-13.5v4.2l-2.8,3v25.3h-13.7v-18.7l-3.5-3.9h-7.2v-6.4H810v41.4   h-13.8v-15.4h-12.4v15.4H751v-4.6h28.1v-15.4h21.6v15.4h4.6v-41.4h17.9v6.4h5l5.9,6.6v16.1h4.2v-22.6l2.8-3v-7h22.7v6.1h10.9v14.1   h9.4v27.3h15.9v4.1C900.2,575.7,828.1,647.5,739.7,647.5"/>
	<path class="st0" d="M679,583.1c-1.3,0-2.6,0.3-3.9,0.9c-3.3,2.4-4.4,7-2.4,10.5c0.9,1.7,2.6,2.8,5,3.5c0.8,0,1.4,0.2,2.4,0.2   c9.8,0,18.5-6.1,25.7-11.8l1.3-1.1l0.9,1.4c3.3,5.5,9.1,9.6,15.2,10.7h1.3c4.2,0,9.1-2,10-6.6c0.6-3.3-1.4-7-4.6-8.5   c-1.9-0.8-4.4-0.8-7.8,0.8c-0.8,0.3-1.1,1.3-1.4,2.8c-0.3,1.4-0.9,3.9-3.3,3.9c-1.9,0-4.4-1.4-5.5-3.3c-0.6-1.1-0.6-2.2,0-3.1   c5-7.5,11.6-13,17.9-17.9c3-2.4,5.9-4.8,8.7-7.4l1.1-0.9l1.1,0.9c2.8,2.6,5.8,5,8.7,7.2c6.6,5.3,13.7,10.7,17.9,18.8   c0.2,0.3,0.6,1.1,0.2,1.9c-0.6,1.4-3.3,3.9-5.3,4.1c-1.3,0.2-2-0.2-2.4-0.6c-0.8-0.8-0.8-1.9-0.8-2.6c0-0.6,0-1.3-0.2-1.7   c-0.9-1.9-3-2.4-5-3c-3.7-0.9-8,2-8.9,6.1c-0.3,1.9,0,3.7,0.9,5.3c2.2,2.8,5,4.2,8.3,4.2c6.6,0,13.8-5.5,17.2-10.9l0.9-1.4l1.3,1.1   c6.6,5.3,15.4,11.3,24,11.3c2.4,0,4.6-0.3,6.9-1.3c1.4-0.8,2.8-2.2,3.3-4.1c0.6-2,0.2-4.1-0.9-5.8c-1.4-2.2-3.9-3.3-6.4-3.3   c-2.6,0-5.2,1.3-6.4,3.3l-0.8,1.1l-1.1-0.3c-4.4-1.7-10-4.2-12.7-9.1c-1.1-1.7-0.6-4.1,0.3-5.8c0.9-1.7,1.9-2,2.6-2   c0.3,0,0.8,0,0.9,0.2c2.2,1.3,4.4,2,6.4,2c3.7,0,6.6-2.2,7.5-5.9c0.3-1.9,0-3.7-1.1-5.5c-1.1-1.7-3-3-5-3.5h-1.3   c-3.5,0-7,1.7-9.2,4.4c-1.4,1.7-2,3.9-2.8,6.1c-0.6,2-1.3,3.9-2.4,5.8l-0.9,1.4l-27.7-25.7l1.1-1.1c29.9-28.8,70.2-39,103.1-42   c-4.2-0.3-8.5-0.6-12.7-0.6c-36.4,0-70.7,12.6-96.7,35.3l-0.9,0.8l-0.9-0.8c-13.5-10-31.8-22.4-52.8-28.5c-19.6-5.8-39.2-8-58-6.3   c32.9,3,73.2,13.1,103.3,42.1l1.1,1.1l-27.7,25.7l-0.9-1.4c-1.3-1.9-1.9-3.9-2.4-5.8c-0.8-2.2-1.3-4.2-2.8-6.1c-2-2-4.1-3.1-7-4.2   c-4.4-0.9-8.5,1.7-9.4,6.1c-0.6,3.3,1.4,6.9,4.6,8.5c0.3,0.2,1.1,0.2,1.9,0.2c2,0,4.1-0.9,6.1-1.7l0.9-0.3c0.3-0.2,0.6-0.2,0.9-0.2   c1.3,0,2.4,0.9,3.1,2.2c0.9,1.7,1.3,3.9,0.2,5.5c-2.8,4.8-8.3,7.2-12.7,9.1l-1.1,0.3l-0.8-0.9C684.2,584.5,681.6,583.1,679,583.1    M680.1,601.3c-0.9,0-1.9,0-3-0.2c-3.7-0.9-5.9-2.6-7.2-5c-2.8-4.8-1.3-11.1,3.5-14.6c4.8-2.8,10.5-1.4,14.1,2.4   c3.7-1.4,8.1-3.7,10.2-7.4c0.2-0.2,0.2-0.9,0-1.7c-0.2-0.8-0.6-1.3-0.8-1.4l-0.8,0.3c-2.2,0.9-4.6,1.9-7.4,1.9c-1.1,0-2-0.2-3-0.6   c-4.4-2.2-7-7.2-6.4-11.8c1.1-5.3,5.3-8.9,10.5-8.9c0.9,0,1.9,0.2,2.6,0.3h0.2c3.3,1.3,5.8,2.6,8.3,5.2c1.9,2.2,2.8,4.8,3.5,7.2   c0.3,1.1,0.8,2.4,1.3,3.3l22.6-20.9c-34.4-32.1-81.8-40.1-115.9-41l-14.1-0.3l13.6-2.6c24-4.6,49.5-3.3,75.1,4.2   c20.9,6.1,39.2,18.3,52.8,28.2c26.5-22.7,61-35.3,97.8-35.3c9.8,0,19.6,0.9,29,2.8l14.1,2.6l-14.4,0.3c-34,0.9-81.5,8.9-115.9,41   l22.6,20.9c0.6-1.1,0.8-2.2,1.3-3.3c0.8-2.4,1.4-5,3.3-7.2c3.1-3.9,8.5-6.1,13.5-5.3c2.8,0.8,5.3,2.4,6.9,4.6   c1.7,2.4,2.2,5.3,1.7,8c-1.3,5-5.3,8.1-10.5,8.1c-2.4,0-5-0.8-7.2-2c-0.3,0.8-0.8,2.2-0.3,2.8c2,3.7,6.4,5.9,10.2,7.4   c2-2.4,5-3.7,8.3-3.7c3.7,0,7,1.9,9.1,4.8c1.7,2.4,2.2,5.3,1.3,8.3c-0.8,2.8-2.6,5-5,5.9c-2.6,1.1-5.2,1.7-8,1.7   c-9.1,0-17.9-5.8-24.6-10.9c-4.2,5.5-11.6,10.9-18.8,10.9c-4.2,0-8.1-1.9-10.9-5.5c-1.7-2.4-2.2-5.3-1.4-8c1.3-5,5.8-8.7,10.3-8.7   c0.8,0,1.4,0.2,2.2,0.3c2.6,0.6,5.5,1.3,7,4.4c0.8,0.9,0.6,2.4,0.6,3.3c0.8-0.2,1.9-1.1,2.4-1.9c-4.1-7.4-10.3-12.2-17-17.6   c-2.6-2-5.3-4.1-7.8-6.4c-2.6,2.4-5.2,4.4-7.8,6.6c-6.4,5.2-12.6,10.2-17.2,17.4c0.2,0.6,1.9,1.7,2.8,1.9c0.2-0.3,0.3-1.1,0.6-1.4   c0.3-1.7,0.9-4.1,3.3-5c4.1-1.7,7.2-1.9,10.2-0.6c4.4,2.2,7,7.2,6.3,11.8c-1.4,7-8.9,9.8-14.9,9.1c-6.4-1.1-12.6-5.2-16.5-10.7   C699,595.6,690.3,601.3,680.1,601.3"/>
	<path class="st0" d="M798.2,394.4l3.9,3l-2.8-3.9c-17.9-25.7-38.1-26.5-44.5-25.9c1.3-1.3,3.5-3.5,6.6-4.6l2.2-0.9l-2.2-0.6   c-4.8-1.3-11.6-2.4-17.4,2.4c-0.9-4.8-3.1-10.2-4.4-11.1c-0.3-0.2-0.8-0.3-0.9-0.2c-1.4,0.3-4.2,4.4-5.5,11.3   c-4.1-3.3-11.1-4.8-16.8-1.9l-1.7,0.9l1.9,0.6c0,0,3.9,1.3,6.1,4.6c-26.2,0.6-35.7,13.5-43.4,23.8c-0.6,0.8-1.1,1.4-1.7,2.2   l1.1,1.1c10.7-10,27.3-13.3,35.3-11.3c-9.6,3.9-27.9,14.9-34.2,46.6l-0.8,4.1l2.2-3.5c10.5-16.6,20.7-26.6,32.9-32.1   c-8,12-18.7,32.5-14.4,51l0.6,3.3l0.8-3.5c4.1-18.3,14.8-33.4,21.8-40.3c-5.8,20.4-3.5,39.9-0.6,47.7l1.3,3.5l0.2-3.7   c1.1-16.8,5.8-34.8,9.2-43.4l2.4,16.6l-1.4,0.3l1.1,22.9h-1.8l1.9,23.5l-2,0.6v0.8c0,0.2,1.4,14.8,2,23.1c-2.8,1.4-5.5,4.2-6.4,5.2   v1.4h20.5v-1.4v-0.2c-2-2.6-5.2-4.2-6.3-5l2.2-24.6l-2.2,0.2l1.4-24.2l-1.7,0.2l1.1-22.9h-1.9c0.3-2,1.1-7.5,2-16.8   c4.4,7.5,8.3,23.3,10.3,42.8l0.6,5.9l0.9-5.8c3.9-23.8,0.2-42.1-1.4-48.4c6.1,5.9,18.3,26.8,22.4,41.7l1.1,4.4l0.3-4.6   c1.4-19.9-3.1-35.1-15.7-51.6c5.2,1.4,11.4,5.8,18.1,12.4c6.3,6.1,12.2,14.1,15.5,20.1l1.9,3.5l-0.3-4.1   c-2.4-24.4-20.7-41.6-33.8-46.7C775.6,381.3,792.9,390.5,798.2,394.4"/>
	<polygon class="st0" points="117.1,582.7 115,582.7 115,569.7 111,582.7 108.3,582.7 104.2,569.7 104.2,582.7 102.1,582.7    102.1,567.1 105.4,567.1 109.6,580.7 113.8,567.1 117.1,567.1  "/>
	<path class="st0" d="M122.8,568c0,0.4-0.1,0.7-0.4,1c-0.3,0.3-0.6,0.4-1,0.4c-0.4,0-0.7-0.1-1-0.4c-0.3-0.3-0.4-0.6-0.4-0.9   c0-0.4,0.1-0.7,0.4-1c0.3-0.3,0.6-0.4,1-0.4c0.4,0,0.7,0.1,1,0.4C122.7,567.3,122.8,567.6,122.8,568 M123.6,581.2l0.3,1.3   c-0.4,0.2-1.1,0.4-1.8,0.4c-0.6,0-1-0.2-1.3-0.5c-0.3-0.3-0.5-0.7-0.5-1.2v-9.6h2.2v9.1c0,0.4,0.2,0.6,0.5,0.6   C123.2,581.3,123.4,581.3,123.6,581.2"/>
	<path class="st0" d="M136.2,581.2l0.3,1.3c-0.4,0.2-1,0.4-1.8,0.4c-0.6,0-1-0.1-1.3-0.4c-0.3-0.3-0.5-0.7-0.5-1.2v-6   c0-0.7-0.1-1.1-0.3-1.4c-0.2-0.2-0.6-0.4-1.1-0.4c-0.5,0-1.1,0.2-1.8,0.5c-0.7,0.3-1.3,0.7-1.8,1.1v7.6h-2.2v-11.1h2.2v1.5   c0.5-0.5,1.1-0.9,1.9-1.2c0.8-0.3,1.4-0.5,2-0.5c1.2,0,2.1,0.2,2.5,0.7c0.5,0.6,0.8,1.5,0.8,2.9v5.7c0,0.4,0.2,0.6,0.5,0.6   C135.8,581.3,136,581.3,136.2,581.2"/>
	<path class="st0" d="M140.6,568c0,0.4-0.1,0.7-0.4,1c-0.3,0.3-0.6,0.4-1,0.4c-0.4,0-0.7-0.1-1-0.4c-0.3-0.3-0.4-0.6-0.4-0.9   c0-0.4,0.1-0.7,0.4-1c0.3-0.3,0.6-0.4,1-0.4c0.4,0,0.7,0.1,1,0.4C140.5,567.3,140.6,567.6,140.6,568 M141.4,581.2l0.3,1.3   c-0.4,0.2-1.1,0.4-1.8,0.4c-0.6,0-1-0.2-1.3-0.5c-0.3-0.3-0.5-0.7-0.5-1.2v-9.6h2.2v9.1c0,0.4,0.2,0.6,0.5,0.6   C141.1,581.3,141.3,581.3,141.4,581.2"/>
	<path class="st0" d="M143,582.3l0.5-1.9c0.4,0.2,0.9,0.3,1.5,0.5c0.6,0.1,1.1,0.2,1.5,0.2c1.8,0,2.7-0.5,2.7-1.6   c0-0.4-0.2-0.7-0.5-0.9c-0.3-0.2-0.9-0.5-1.8-0.8c-1.2-0.4-2-0.9-2.4-1.2c-0.7-0.5-1-1.2-1-2c0-1,0.4-1.7,1.1-2.3   c0.8-0.5,1.8-0.8,3.2-0.8c1.2,0,2.3,0.2,3.1,0.6l-0.4,1.8c-0.9-0.4-1.8-0.6-2.7-0.6c-1.5,0-2.2,0.4-2.2,1.2c0,0.3,0.1,0.5,0.4,0.7   c0.3,0.2,0.8,0.5,1.6,0.8c1.2,0.5,2.1,0.9,2.6,1.3c0.7,0.6,1.1,1.4,1.1,2.3c0,1.1-0.5,1.9-1.5,2.6c-0.8,0.5-1.8,0.8-3,0.8   C145.3,582.8,144,582.7,143,582.3"/>
	<path class="st0" d="M158.7,580.7l0.3,1.7c-0.8,0.3-1.6,0.4-2.5,0.4c-0.8,0-1.4-0.2-1.8-0.7c-0.4-0.4-0.5-1.2-0.5-2.2v-6.6h-1.8   l0.4-1.8h1.4v-3l2.2-0.7v3.7h2.3v1.8h-2.3v6.4c0,0.5,0.1,0.8,0.2,1c0.1,0.2,0.4,0.3,0.9,0.3C157.9,581,158.3,580.9,158.7,580.7"/>
	<path class="st0" d="M163.2,582.7h-2.2v-11.1h2.2v1.4c0.2-0.5,0.5-0.9,0.9-1.2c0.4-0.3,0.8-0.5,1.2-0.5c0.7,0,1.4,0.2,2.1,0.6   l-0.4,1.8c-0.7-0.2-1.3-0.3-1.8-0.3c-0.7,0-1.4,0.5-1.9,1.5V582.7z"/>
	<path class="st0" d="M172.2,582.4l-4.2-10.8h2.4l2.9,7.9l2.4-7.9h2.4l-4,11.5c-0.5,1.6-1.1,2.7-1.7,3.3c-0.6,0.6-1.4,0.9-2.5,0.9   c-1,0-1.8-0.1-2.3-0.4l0.4-1.9c0.6,0.2,1.2,0.3,1.8,0.3c0.5,0,0.8-0.2,1.2-0.4C171.4,584.4,171.8,583.6,172.2,582.4"/>
	<path class="st0" d="M189,582.8c-3.6,0-5.4-1.9-5.4-5.7c0-3.8,1.8-5.8,5.4-5.8c3.6,0,5.4,1.9,5.4,5.8   C194.4,581,192.6,582.8,189,582.8 M189,581.1c1.1,0,1.8-0.3,2.3-0.8c0.5-0.6,0.8-1.7,0.8-3.1c0-1.4-0.2-2.5-0.7-3.1   c-0.5-0.6-1.2-1-2.3-1c-1.1,0-1.8,0.3-2.3,0.9c-0.5,0.7-0.7,1.7-0.7,3.2c0,1.4,0.2,2.5,0.7,3.1C187.1,580.8,187.9,581.1,189,581.1"/>
	<path class="st0" d="M199.7,582.7h-2.2v-9.3h-1.8l0.4-1.8h1.4V570c0-1.2,0.2-2.1,0.6-2.6c0.5-0.6,1.3-0.9,2.5-0.9   c0.9,0,1.7,0.1,2.3,0.4l-0.4,1.8c-0.7-0.2-1.2-0.3-1.5-0.3c-0.5,0-0.8,0.1-1,0.3c-0.2,0.2-0.3,0.5-0.3,1.1v1.9h2.4v1.8h-2.4V582.7z   "/>
	<polygon class="st0" points="223.7,582.7 221.6,582.7 221.6,569.7 217.5,582.7 214.8,582.7 210.7,569.7 210.7,582.7 208.6,582.7    208.6,567.1 212,567.1 216.1,580.7 220.3,567.1 223.7,567.1  "/>
	<path class="st0" d="M237.2,581.2l0.2,1.3c-0.4,0.2-1,0.4-1.8,0.4c-0.6,0-1-0.2-1.3-0.5c-0.3-0.3-0.5-0.7-0.5-1.2   c-0.5,0.5-1.1,0.9-1.8,1.2c-0.7,0.3-1.3,0.5-1.9,0.5c-1.2,0-2.1-0.2-2.6-0.7c-0.5-0.6-0.8-1.5-0.8-2.9v-7.6h2.2v7.4   c0,0.7,0.1,1.2,0.3,1.4c0.2,0.2,0.6,0.4,1.1,0.4s1.2-0.2,1.9-0.5c0.7-0.3,1.2-0.7,1.5-1.1v-7.6h2.2v9.1c0,0.4,0.2,0.6,0.6,0.6   C236.8,581.3,237,581.3,237.2,581.2"/>
	<path class="st0" d="M249.6,581.2l0.3,1.3c-0.4,0.2-1,0.4-1.8,0.4c-0.6,0-1-0.1-1.3-0.4c-0.3-0.3-0.5-0.7-0.5-1.2v-6   c0-0.7-0.1-1.1-0.3-1.4c-0.2-0.2-0.6-0.4-1.1-0.4c-0.5,0-1.1,0.2-1.8,0.5c-0.7,0.3-1.3,0.7-1.8,1.1v7.6H239v-11.1h2.2v1.5   c0.5-0.5,1.1-0.9,1.9-1.2c0.8-0.3,1.4-0.5,2-0.5c1.2,0,2.1,0.2,2.5,0.7c0.5,0.6,0.8,1.5,0.8,2.9v5.7c0,0.4,0.2,0.6,0.5,0.6   C249.2,581.3,249.4,581.3,249.6,581.2"/>
	<path class="st0" d="M254.1,568c0,0.4-0.1,0.7-0.4,1c-0.3,0.3-0.6,0.4-1,0.4c-0.4,0-0.7-0.1-1-0.4c-0.3-0.3-0.4-0.6-0.4-0.9   c0-0.4,0.1-0.7,0.4-1c0.3-0.3,0.6-0.4,1-0.4c0.4,0,0.7,0.1,1,0.4C253.9,567.3,254.1,567.6,254.1,568 M254.9,581.2l0.3,1.3   c-0.4,0.2-1.1,0.4-1.8,0.4c-0.6,0-1-0.2-1.3-0.5c-0.3-0.3-0.5-0.7-0.5-1.2v-9.6h2.2v9.1c0,0.4,0.2,0.6,0.5,0.6   C254.5,581.3,254.7,581.3,254.9,581.2"/>
	<path class="st0" d="M265.1,580.5l-0.4,1.9c-0.9,0.3-2,0.5-3.3,0.5c-1.4,0-2.5-0.5-3.5-1.5c-1-1-1.5-2.5-1.5-4.3   c0-1.6,0.5-2.9,1.4-4c1-1.1,2.3-1.7,3.9-1.7c1.4,0,2.5,0.2,3.5,0.6l-0.4,1.9c-0.9-0.4-1.8-0.5-2.8-0.5c-2.1,0-3.2,1.3-3.2,3.9   c0,2.5,1.2,3.8,3.6,3.8c0.4,0,0.8,0,1.4-0.2C264.4,580.7,264.8,580.6,265.1,580.5"/>
	<path class="st0" d="M269.9,568c0,0.4-0.1,0.7-0.4,1c-0.3,0.3-0.6,0.4-1,0.4c-0.4,0-0.7-0.1-1-0.4c-0.3-0.3-0.4-0.6-0.4-0.9   c0-0.4,0.1-0.7,0.4-1c0.3-0.3,0.6-0.4,1-0.4c0.4,0,0.7,0.1,1,0.4C269.7,567.3,269.9,567.6,269.9,568 M270.7,581.2l0.3,1.3   c-0.4,0.2-1.1,0.4-1.8,0.4c-0.6,0-1-0.2-1.3-0.5c-0.3-0.3-0.5-0.7-0.5-1.2v-9.6h2.2v9.1c0,0.4,0.2,0.6,0.5,0.6   C270.3,581.3,270.5,581.3,270.7,581.2"/>
	<path class="st0" d="M274.9,587.1h-2.2v-15.5h2.2v1.5c0.9-1.1,2.1-1.7,3.7-1.7c1.3,0,2.3,0.5,3.1,1.4c0.8,1,1.2,2.4,1.2,4.3   c0,1.8-0.4,3.3-1.3,4.3c-0.8,1-2,1.5-3.6,1.5c-0.6,0-1.2-0.1-1.8-0.2s-1-0.4-1.3-0.7V587.1z M274.9,576.2v3.7   c0.3,0.3,0.7,0.5,1.2,0.7c0.5,0.2,1,0.3,1.4,0.3c1.1,0,1.9-0.3,2.4-0.9c0.5-0.6,0.7-1.6,0.7-2.9c0-1.4-0.2-2.5-0.7-3   c-0.4-0.5-1.1-0.8-2.1-0.8c-1,0-1.7,0.3-2.3,1C275.1,574.9,274.9,575.6,274.9,576.2"/>
	<path class="st0" d="M295,581.2l0.3,1.3c-0.5,0.2-1.1,0.4-1.8,0.4c-0.6,0-1-0.1-1.3-0.4c-0.3-0.3-0.5-0.7-0.5-1.2   c-0.6,1.1-1.7,1.6-3.2,1.6c-2.4,0-3.5-1.1-3.5-3.2c0-1.4,0.6-2.5,1.7-3.1c0.8-0.5,1.9-0.7,3.2-0.7c0.5,0,1.1,0,1.8,0.1v-1   c0-0.6-0.2-1.1-0.6-1.3c-0.4-0.2-1.1-0.4-2.1-0.4c-1.1,0-2.2,0.2-3.3,0.6l0.4-1.8c1-0.4,2.2-0.6,3.5-0.6c1.6,0,2.7,0.3,3.3,1   c0.6,0.6,0.9,1.7,0.9,3.1v5.2c0,0.4,0.2,0.6,0.6,0.6C294.7,581.3,294.8,581.3,295,581.2 M291.6,578.6v-1.1   c-0.7-0.1-1.3-0.1-1.6-0.1c-1,0-1.7,0.2-2.1,0.5c-0.4,0.3-0.7,0.8-0.7,1.5c0,1.1,0.7,1.6,2,1.6c0.7,0,1.3-0.2,1.7-0.7   C291.4,579.9,291.6,579.3,291.6,578.6"/>
	<path class="st0" d="M300.3,581.2l0.3,1.3c-0.4,0.2-1,0.4-1.8,0.4c-0.6,0-1-0.2-1.3-0.5c-0.3-0.3-0.5-0.7-0.5-1.2v-14.1h2.2v13.6   c0,0.4,0.2,0.6,0.5,0.6C299.9,581.3,300.1,581.3,300.3,581.2"/>
	<path class="st0" d="M317.4,582.7h-2.7l-3-5.7h-2.8v5.7h-2.4v-15.6h5c3.6,0,5.4,1.6,5.4,4.9c0,1.1-0.2,2-0.7,2.8   c-0.5,0.8-1.2,1.3-2,1.7L317.4,582.7z M308.9,574.9h3.1c1.6,0,2.4-0.9,2.4-2.8c0-1-0.3-1.7-0.8-2.2c-0.4-0.5-1-0.7-1.7-0.7h-3.1   V574.9z"/>
	<path class="st0" d="M330.1,581.2l0.2,1.3c-0.4,0.2-1,0.4-1.8,0.4c-0.6,0-1-0.2-1.3-0.5c-0.3-0.3-0.5-0.7-0.5-1.2   c-0.5,0.5-1.1,0.9-1.8,1.2c-0.7,0.3-1.3,0.5-1.9,0.5c-1.2,0-2.1-0.2-2.6-0.7c-0.5-0.6-0.8-1.5-0.8-2.9v-7.6h2.2v7.4   c0,0.7,0.1,1.2,0.3,1.4c0.2,0.2,0.6,0.4,1.1,0.4s1.2-0.2,1.9-0.5c0.7-0.3,1.2-0.7,1.5-1.1v-7.6h2.2v9.1c0,0.4,0.2,0.6,0.6,0.6   C329.7,581.3,329.9,581.3,330.1,581.2"/>
	<path class="st0" d="M334.1,582.7h-2.2v-11.1h2.2v1.4c0.2-0.5,0.5-0.9,0.9-1.2c0.4-0.3,0.8-0.5,1.2-0.5c0.7,0,1.4,0.2,2.1,0.6   l-0.4,1.8c-0.7-0.2-1.3-0.3-1.8-0.3c-0.7,0-1.4,0.5-1.9,1.5V582.7z"/>
	<path class="st0" d="M349.3,581.2l0.3,1.3c-0.5,0.2-1.1,0.4-1.8,0.4c-0.6,0-1-0.1-1.3-0.4c-0.3-0.3-0.5-0.7-0.5-1.2   c-0.6,1.1-1.7,1.6-3.2,1.6c-2.4,0-3.5-1.1-3.5-3.2c0-1.4,0.6-2.5,1.7-3.1c0.8-0.5,1.9-0.7,3.2-0.7c0.5,0,1.1,0,1.8,0.1v-1   c0-0.6-0.2-1.1-0.6-1.3c-0.4-0.2-1.1-0.4-2.1-0.4c-1.1,0-2.2,0.2-3.3,0.6l0.4-1.8c1-0.4,2.2-0.6,3.5-0.6c1.6,0,2.7,0.3,3.3,1   c0.6,0.6,0.9,1.7,0.9,3.1v5.2c0,0.4,0.2,0.6,0.6,0.6C349,581.3,349.2,581.3,349.3,581.2 M346,578.6v-1.1c-0.7-0.1-1.3-0.1-1.6-0.1   c-1,0-1.7,0.2-2.1,0.5c-0.4,0.3-0.7,0.8-0.7,1.5c0,1.1,0.7,1.6,2,1.6c0.7,0,1.3-0.2,1.7-0.7C345.8,579.9,346,579.3,346,578.6"/>
	<path class="st0" d="M354.6,581.2l0.3,1.3c-0.4,0.2-1,0.4-1.8,0.4c-0.6,0-1-0.2-1.3-0.5c-0.3-0.3-0.5-0.7-0.5-1.2v-14.1h2.2v13.6   c0,0.4,0.2,0.6,0.5,0.6C354.3,581.3,354.5,581.3,354.6,581.2"/>
	<path class="st0" d="M372.8,582.7h-2.6l-1.1-3.6h-5.7l-1.1,3.6h-2.5l5.3-15.6h2.6L372.8,582.7z M368.5,577.1l-2.2-7l-2.3,7H368.5z"/>
	<path class="st0" d="M377.5,582.7h-2.2v-9.3h-1.8l0.4-1.8h1.4V570c0-1.2,0.2-2.1,0.6-2.6c0.5-0.6,1.3-0.9,2.5-0.9   c0.9,0,1.7,0.1,2.3,0.4l-0.4,1.8c-0.7-0.2-1.2-0.3-1.5-0.3c-0.5,0-0.8,0.1-1,0.3c-0.2,0.2-0.3,0.5-0.3,1.1v1.9h2.4v1.8h-2.4V582.7z    M385.2,582.7H383v-9.3h-1.8l0.4-1.8h1.4V570c0-1.2,0.2-2.1,0.6-2.6c0.5-0.6,1.3-0.9,2.5-0.9c0.9,0,1.7,0.1,2.3,0.4l-0.4,1.8   c-0.7-0.2-1.2-0.3-1.5-0.3c-0.5,0-0.8,0.1-1,0.3c-0.2,0.2-0.3,0.5-0.3,1.1v1.9h2.4v1.8h-2.4V582.7z"/>
	<path class="st0" d="M398.9,581.2l0.3,1.3c-0.5,0.2-1.1,0.4-1.8,0.4c-0.6,0-1-0.1-1.3-0.4c-0.3-0.3-0.5-0.7-0.5-1.2   c-0.6,1.1-1.7,1.6-3.2,1.6c-2.4,0-3.5-1.1-3.5-3.2c0-1.4,0.6-2.5,1.7-3.1c0.8-0.5,1.9-0.7,3.2-0.7c0.5,0,1.1,0,1.8,0.1v-1   c0-0.6-0.2-1.1-0.6-1.3c-0.4-0.2-1.1-0.4-2.1-0.4c-1.1,0-2.2,0.2-3.3,0.6l0.4-1.8c1-0.4,2.2-0.6,3.5-0.6c1.6,0,2.7,0.3,3.3,1   c0.6,0.6,0.9,1.7,0.9,3.1v5.2c0,0.4,0.2,0.6,0.6,0.6C398.6,581.3,398.8,581.3,398.9,581.2 M395.6,578.6v-1.1   c-0.7-0.1-1.3-0.1-1.6-0.1c-1,0-1.7,0.2-2.1,0.5c-0.4,0.3-0.7,0.8-0.7,1.5c0,1.1,0.7,1.6,2,1.6c0.7,0,1.3-0.2,1.7-0.7   C395.4,579.9,395.6,579.3,395.6,578.6"/>
	<path class="st0" d="M403.4,568c0,0.4-0.1,0.7-0.4,1c-0.3,0.3-0.6,0.4-1,0.4c-0.4,0-0.7-0.1-1-0.4c-0.3-0.3-0.4-0.6-0.4-0.9   c0-0.4,0.1-0.7,0.4-1c0.3-0.3,0.6-0.4,1-0.4c0.4,0,0.7,0.1,1,0.4C403.3,567.3,403.4,567.6,403.4,568 M404.2,581.2l0.3,1.3   c-0.4,0.2-1.1,0.4-1.8,0.4c-0.6,0-1-0.2-1.3-0.5c-0.3-0.3-0.5-0.7-0.5-1.2v-9.6h2.2v9.1c0,0.4,0.2,0.6,0.5,0.6   C403.9,581.3,404.1,581.3,404.2,581.2"/>
	<path class="st0" d="M408.4,582.7h-2.2v-11.1h2.2v1.4c0.2-0.5,0.5-0.9,0.9-1.2c0.4-0.3,0.8-0.5,1.2-0.5c0.7,0,1.4,0.2,2.1,0.6   l-0.4,1.8c-0.7-0.2-1.3-0.3-1.8-0.3c-0.7,0-1.4,0.5-1.9,1.5V582.7z"/>
	<path class="st0" d="M413.8,582.3l0.5-1.9c0.4,0.2,0.9,0.3,1.5,0.5c0.6,0.1,1.1,0.2,1.5,0.2c1.8,0,2.7-0.5,2.7-1.6   c0-0.4-0.2-0.7-0.5-0.9c-0.3-0.2-0.9-0.5-1.8-0.8c-1.2-0.4-2-0.9-2.4-1.2c-0.7-0.5-1-1.2-1-2c0-1,0.4-1.7,1.1-2.3   c0.8-0.5,1.8-0.8,3.2-0.8c1.2,0,2.3,0.2,3.1,0.6l-0.4,1.8c-0.9-0.4-1.8-0.6-2.7-0.6c-1.5,0-2.2,0.4-2.2,1.2c0,0.3,0.1,0.5,0.4,0.7   c0.3,0.2,0.8,0.5,1.6,0.8c1.2,0.5,2.1,0.9,2.6,1.3c0.7,0.6,1.1,1.4,1.1,2.3c0,1.1-0.5,1.9-1.5,2.6c-0.8,0.5-1.8,0.8-3,0.8   C416.1,582.8,414.8,582.7,413.8,582.3"/>
	<path class="st0" d="M442,580.8l-0.3,2c-0.4,0.1-0.8,0.2-1.5,0.2c-0.9,0-1.8-0.6-2.7-1.7c-0.5,0.5-1.1,0.9-1.8,1.2   c-0.8,0.3-1.6,0.5-2.4,0.5c-1.6,0-2.9-0.4-3.7-1.1c-0.9-0.7-1.3-1.7-1.3-3.1c0-2.3,1-3.9,3-4.7c-0.9-1.2-1.3-2.4-1.3-3.6   c0-1,0.4-1.9,1.1-2.5c0.7-0.6,1.6-1,2.7-1c1.4,0,2.6,0.2,3.7,0.7l-0.4,2c-1-0.4-1.9-0.7-3-0.7c-1.2,0-1.9,0.5-1.9,1.5   c0,0.8,0.3,1.7,1,2.6c0.6,0.9,2.1,2.6,4.3,5c0.3-0.5,0.5-1.1,0.6-1.7c0.1-0.6,0.1-1.6,0.1-2.9h4.1l-0.3,1.9H440   c0,0.7-0.1,1.5-0.3,2.3c-0.2,0.8-0.5,1.4-0.8,2c0.4,0.5,0.8,0.9,1.1,1.1c0.3,0.2,0.6,0.3,1,0.3C441.3,581,441.7,580.9,442,580.8    M436.1,579.8c-1-1-2.3-2.5-3.9-4.4c-1.1,0.4-1.7,1.4-1.7,3c0,1.7,0.9,2.6,2.8,2.6c0.5,0,1-0.1,1.6-0.3   C435.4,580.4,435.8,580.2,436.1,579.8"/>
	<polygon class="st0" points="460.4,582.7 458.1,582.7 458.1,575.7 451.3,575.7 451.3,582.7 448.9,582.7 448.9,567.1 451.3,567.1    451.3,573.7 458.1,573.7 458.1,567.1 460.4,567.1  "/>
	<path class="st0" d="M468.5,582.8c-3.6,0-5.4-1.9-5.4-5.7c0-3.8,1.8-5.8,5.4-5.8c3.6,0,5.4,1.9,5.4,5.8   C473.9,581,472.1,582.8,468.5,582.8 M468.5,581.1c1.1,0,1.8-0.3,2.3-0.8c0.5-0.6,0.8-1.7,0.8-3.1c0-1.4-0.2-2.5-0.7-3.1   c-0.5-0.6-1.2-1-2.3-1c-1.1,0-1.8,0.3-2.3,0.9c-0.5,0.7-0.7,1.7-0.7,3.2c0,1.4,0.2,2.5,0.7,3.1   C466.7,580.8,467.4,581.1,468.5,581.1"/>
	<path class="st0" d="M486.9,581.2l0.2,1.3c-0.4,0.2-1,0.4-1.8,0.4c-0.6,0-1-0.2-1.3-0.5c-0.3-0.3-0.5-0.7-0.5-1.2   c-0.5,0.5-1.1,0.9-1.8,1.2c-0.7,0.3-1.3,0.5-1.9,0.5c-1.2,0-2.1-0.2-2.6-0.7c-0.5-0.6-0.8-1.5-0.8-2.9v-7.6h2.2v7.4   c0,0.7,0.1,1.2,0.3,1.4c0.2,0.2,0.6,0.4,1.1,0.4s1.2-0.2,1.9-0.5c0.7-0.3,1.2-0.7,1.5-1.1v-7.6h2.2v9.1c0,0.4,0.2,0.6,0.6,0.6   C486.5,581.3,486.7,581.3,486.9,581.2"/>
	<path class="st0" d="M488.3,582.3l0.5-1.9c0.4,0.2,0.9,0.3,1.5,0.5c0.6,0.1,1.1,0.2,1.5,0.2c1.8,0,2.7-0.5,2.7-1.6   c0-0.4-0.2-0.7-0.5-0.9c-0.3-0.2-0.9-0.5-1.8-0.8c-1.2-0.4-2-0.9-2.4-1.2c-0.7-0.5-1-1.2-1-2c0-1,0.4-1.7,1.1-2.3   c0.8-0.5,1.8-0.8,3.2-0.8c1.2,0,2.3,0.2,3.1,0.6l-0.4,1.8c-0.9-0.4-1.8-0.6-2.7-0.6c-1.5,0-2.2,0.4-2.2,1.2c0,0.3,0.1,0.5,0.4,0.7   c0.3,0.2,0.8,0.5,1.6,0.8c1.2,0.5,2.1,0.9,2.6,1.3c0.7,0.6,1.1,1.4,1.1,2.3c0,1.1-0.5,1.9-1.5,2.6c-0.8,0.5-1.8,0.8-3,0.8   C490.6,582.8,489.4,582.7,488.3,582.3"/>
	<path class="st0" d="M501.4,568c0,0.4-0.1,0.7-0.4,1c-0.3,0.3-0.6,0.4-1,0.4c-0.4,0-0.7-0.1-1-0.4c-0.3-0.3-0.4-0.6-0.4-0.9   c0-0.4,0.1-0.7,0.4-1c0.3-0.3,0.6-0.4,1-0.4c0.4,0,0.7,0.1,1,0.4C501.3,567.3,501.4,567.6,501.4,568 M502.2,581.2l0.3,1.3   c-0.4,0.2-1.1,0.4-1.8,0.4c-0.6,0-1-0.2-1.3-0.5c-0.3-0.3-0.5-0.7-0.5-1.2v-9.6h2.2v9.1c0,0.4,0.2,0.6,0.5,0.6   C501.9,581.3,502.1,581.3,502.2,581.2"/>
	<path class="st0" d="M514.8,581.2l0.3,1.3c-0.4,0.2-1,0.4-1.8,0.4c-0.6,0-1-0.1-1.3-0.4c-0.3-0.3-0.5-0.7-0.5-1.2v-6   c0-0.7-0.1-1.1-0.3-1.4c-0.2-0.2-0.6-0.4-1.1-0.4c-0.5,0-1.1,0.2-1.8,0.5c-0.7,0.3-1.3,0.7-1.8,1.1v7.6h-2.2v-11.1h2.2v1.5   c0.5-0.5,1.1-0.9,1.9-1.2c0.8-0.3,1.4-0.5,2-0.5c1.2,0,2.1,0.2,2.5,0.7c0.5,0.6,0.8,1.5,0.8,2.9v5.7c0,0.4,0.2,0.6,0.5,0.6   C514.4,581.3,514.6,581.3,514.8,581.2"/>
	<path class="st0" d="M524.4,582.4v-1c-0.6,0.6-1.1,1-1.5,1.1c-0.4,0.2-1.1,0.3-1.9,0.3c-3.1,0-4.6-1.9-4.6-5.7   c0-3.8,1.9-5.8,5.6-5.8c1.7,0,3.2,0.2,4.7,0.6v10c0,2.4-0.6,4-1.8,4.7c-0.7,0.4-2,0.6-3.9,0.6c-1.6,0-3.1-0.3-4.4-0.9l0.4-1.9   c1.2,0.6,2.5,0.9,4,0.9c1.4,0,2.3-0.2,2.7-0.6C524.1,584.4,524.4,583.6,524.4,582.4 M524.4,577.3v-3.8c-0.8-0.2-1.5-0.3-2.2-0.3   c-1.1,0-1.8,0.2-2.3,0.6c-0.8,0.6-1.1,1.6-1.1,3.2c0,1.4,0.2,2.4,0.6,3c0.4,0.6,1.2,0.9,2.2,0.9   C523.4,580.9,524.4,579.7,524.4,577.3"/>
	<path class="st1" d="M123,460.4h-8.6v-3.5l-2.6,3.5h-2c-3.5,0-6.1-0.9-7.8-2.8c-1.4-1.6-2.2-3.8-2.2-6.6v-8.8c0-3.2,1-5.7,3.1-7.4   c1.7-1.3,3.8-2,6.3-2h10.5v22.3h3.2V460.4z M105.8,426.3c-0.9,0-1.7-0.3-2.3-1c-0.7-0.7-1-1.4-1-2.3c0-0.9,0.3-1.6,1-2.3   c0.7-0.6,1.4-1,2.3-1c0.9,0,1.6,0.3,2.3,1c0.6,0.6,1,1.4,1,2.3c0,0.9-0.3,1.7-1,2.3C107.5,425.9,106.7,426.3,105.8,426.3    M114.4,455.1v-16.9h-5.3c-2.5,0-3.8,1.3-3.8,3.9v9.1c0,1.4,0.3,2.5,1,3.1c0.6,0.6,1.7,0.9,3.2,0.9H114.4z M114,426.3   c-0.9,0-1.6-0.3-2.3-1c-0.6-0.7-1-1.4-1-2.3c0-0.9,0.3-1.6,1-2.3c0.6-0.6,1.4-1,2.3-1c0.9,0,1.6,0.3,2.3,1c0.6,0.6,1,1.4,1,2.3   c0,0.9-0.3,1.7-1,2.3C115.6,425.9,114.9,426.3,114,426.3"/>
	<path class="st1" d="M128.7,460.4h-6.1v-5.3h6.5c2.6,0,3.9-1.2,3.9-3.7v-18.6h5.3v18.3c0,3.3-1.1,5.8-3.2,7.4   C133.5,459.8,131.3,460.4,128.7,460.4 M130.7,471.7c0,0.9-0.3,1.6-1,2.3c-0.6,0.6-1.4,1-2.3,1c-0.9,0-1.7-0.3-2.3-0.9   c-0.6-0.6-0.9-1.4-0.9-2.3c0-0.9,0.3-1.6,1-2.3c0.6-0.6,1.4-1,2.3-1s1.6,0.3,2.3,1C130.4,470.1,130.7,470.8,130.7,471.7    M135.8,474.9c-0.9,0-1.7-0.3-2.4-0.9c-0.6-0.6-1-1.4-1-2.3c0-0.9,0.3-1.6,1-2.3c0.6-0.6,1.4-1,2.4-1c0.8,0,1.6,0.3,2.2,1   c0.6,0.6,1,1.4,1,2.3c0,0.9-0.3,1.6-0.9,2.3C137.4,474.6,136.7,474.9,135.8,474.9"/>
	<path class="st1" d="M170.6,460.4H146v-5.3h16v-9c0-5.3-2.6-8-7.8-8h-3.6v-5.3h3.9c3.7,0,6.8,1.2,9.2,3.7c2.3,2.3,3.5,5.3,3.5,9   v9.5h3.3V460.4z"/>
	<polygon class="st1" points="185,460.4 170.2,460.4 170.2,455.1 176.5,455.1 176.5,421.6 181.7,421.6 181.7,455.1 185,455.1  "/>
	<path class="st1" d="M203.7,460.4h-19v-5.3h10.4v-22.3h5.3v22.3h3.3V460.4z M197.8,474.9c-0.9,0-1.7-0.3-2.4-0.9   c-0.6-0.6-1-1.4-1-2.3c0-0.9,0.3-1.6,1-2.3c0.6-0.6,1.4-1,2.4-1c0.8,0,1.6,0.3,2.2,1c0.6,0.6,1,1.4,1,2.3c0,0.9-0.3,1.6-0.9,2.3   C199.4,474.6,198.7,474.9,197.8,474.9"/>
	<path class="st1" d="M205.5,460.4h-2.2v-5.3h2.1c1.5,0,2.6-0.3,3.3-0.9c0.6-0.6,1-1.7,1-3.2v-29.4h5.3v29.8c0,2.9-0.9,5.2-2.6,6.7   C210.7,459.7,208.5,460.4,205.5,460.4"/>
	<polygon class="st1" points="228,460.4 222.6,463.4 222.6,421.6 228,421.6  "/>
	<path class="st1" d="M275.2,461.4v-28.6h5.4v29.1c0,4.6-2.1,8.1-6.2,10.5c-3.1,1.8-6.8,2.7-11,2.7c-4.8,0-8.9-1.2-12.2-3.5   c-3.3-2.4-5-5.7-5-9.7V448l5.4-3.5v16.9c0,3,1.4,5.3,4.2,6.8c2.1,1,4.6,1.6,7.6,1.6c3.6,0,6.5-0.7,8.6-2.2   C274.1,466,275.2,464,275.2,461.4 M263.8,426.3c-0.9,0-1.7-0.3-2.4-1c-0.7-0.7-1-1.4-1-2.3c0-0.9,0.3-1.6,1-2.3   c0.7-0.6,1.5-1,2.4-1c0.8,0,1.6,0.3,2.2,1c0.6,0.6,1,1.4,1,2.3c0,0.9-0.3,1.7-1,2.3C265.4,425.9,264.7,426.3,263.8,426.3"/>
	<path class="st1" d="M294.4,474.9l-3.6-4.8h0.8c7.4,0,11.1-2.7,11.1-8.1v-1.7h-4.6c-3.3,0-5.8-0.9-7.6-2.6   c-1.6-1.6-2.4-3.9-2.4-6.8v-8.8c0-3.1,0.9-5.5,2.7-7.1c1.7-1.5,3.9-2.2,6.6-2.2h10.5v28.2c0,4.8-1.2,8.2-3.6,10.5   C302.3,473.5,299,474.6,294.4,474.9 M302.8,455.1v-16.9h-5.3c-1.4,0-2.4,0.3-2.9,1c-0.6,0.6-0.9,1.7-0.9,3.1v8.8   c0,1.6,0.3,2.7,1,3.2c0.7,0.6,2,0.8,4,0.8H302.8z"/>
	<path class="st1" d="M339,460.4h-3.2v0.7c0,4.8-1.2,8.2-3.7,10.5c-2.2,1.9-5.5,3.1-10.1,3.4l-3.6-4.8h0.8c7.4,0,11.1-2.7,11.1-8.1   v-1.7h-4.6c-3.3,0-5.8-0.9-7.6-2.6c-1.6-1.6-2.4-3.9-2.4-6.8v-8.8c0-3.1,0.9-5.5,2.7-7.1c1.7-1.5,3.9-2.2,6.6-2.2h10.5v22.3h3.2   V460.4z M330.7,426.3h-10v-2.2h2.4c-0.4-0.8-0.7-1.5-0.7-2.2c0-1.3,0.4-2.3,1.2-3.1c0.8-0.8,1.8-1.2,3.1-1.2h2.3v2.2h-1.5   c-1.8,0-2.7,0.7-2.7,2.2c0,1.5,0.9,2.2,2.7,2.2h3.1V426.3z M330.3,455.1v-16.9H325c-1.4,0-2.4,0.3-2.9,1c-0.6,0.6-0.9,1.7-0.9,3.1   v8.8c0,1.6,0.3,2.7,1,3.2c0.7,0.6,2,0.8,4,0.8H330.3z"/>
	<path class="st1" d="M390.8,460.4h-52.2v-5.3h15.6v-22.2h5.2v22.2h9.3v-22.2h5.3v22.2h9.2v-22.2h5.3v22.2h2.2V460.4z M370.6,423   c0,0.9-0.3,1.6-1,2.3c-0.6,0.6-1.4,1-2.3,1c-0.9,0-1.7-0.3-2.3-1c-0.7-0.6-1-1.4-1-2.3c0-0.9,0.3-1.7,1-2.4c0.6-0.6,1.4-1,2.4-1   c0.9,0,1.6,0.3,2.3,1C370.3,421.4,370.6,422.2,370.6,423 M374.2,415.7c0,0.8-0.3,1.5-0.9,2c-0.6,0.6-1.3,0.9-2,0.9   c-0.8,0-1.5-0.3-2-0.9c-0.6-0.6-0.9-1.3-0.9-2c0-0.8,0.3-1.5,0.9-2c0.6-0.6,1.3-0.9,2-0.9c0.8,0,1.5,0.3,2,0.9   C373.9,414.2,374.2,414.9,374.2,415.7 M378.9,423c0,0.9-0.3,1.6-1,2.3s-1.4,1-2.2,1c-0.9,0-1.7-0.3-2.4-1s-1-1.4-1-2.3   c0-0.9,0.3-1.7,1-2.4c0.6-0.6,1.4-1,2.4-1c0.9,0,1.6,0.3,2.3,1C378.6,421.3,378.9,422.1,378.9,423"/>
	<path class="st1" d="M392.8,460.4h-2.2v-5.3h2.1c1.5,0,2.6-0.3,3.3-0.9c0.6-0.6,1-1.7,1-3.2v-29.4h5.3v29.8c0,2.9-0.9,5.2-2.6,6.7   C398,459.7,395.7,460.4,392.8,460.4"/>
	<polygon class="st1" points="415.3,460.4 409.9,463.4 409.9,421.6 415.3,421.6  "/>
	<path class="st1" d="M453.3,432.8V451c0,3.5-1.2,6-3.5,7.6c-1.7,1.2-3.9,1.7-6.5,1.7c-3.2,0-5.7-0.9-7.4-2.6c-1.7-1.7-2.6-4-2.6-7   v-8.6c0-3.2,0.9-5.6,2.8-7.2c1.7-1.4,3.8-2.2,6.4-2.2H453.3z M439.3,426.3c-0.9,0-1.7-0.3-2.3-1c-0.7-0.7-1-1.4-1-2.3   c0-0.9,0.3-1.6,1-2.3c0.7-0.6,1.4-1,2.3-1c0.9,0,1.6,0.3,2.3,1c0.6,0.6,1,1.4,1,2.3c0,0.9-0.3,1.7-1,2.3   C441,425.9,440.2,426.3,439.3,426.3 M447.9,451.2v-13h-5.3c-2.5,0-3.8,1.4-3.8,4.1v9c0,2.7,1.5,4,4.6,4   C446.4,455.2,447.9,453.8,447.9,451.2 M447.5,426.3c-0.9,0-1.7-0.3-2.3-1c-0.7-0.7-1-1.4-1-2.3c0-0.9,0.3-1.6,1-2.3   c0.7-0.6,1.4-1,2.3-1c0.8,0,1.6,0.3,2.2,1c0.7,0.6,1,1.4,1,2.3c0,0.9-0.3,1.7-1,2.3C449.1,425.9,448.4,426.3,447.5,426.3"/>
	<path class="st1" d="M462.2,474.9l-3.7-4.7c2.6-0.8,4.4-1.9,5.3-3.1c0.9-1.2,1.4-3.2,1.4-5.9v-28.3h5.3v30   C470.5,468.6,467.7,472.6,462.2,474.9"/>
	<polygon class="st1" points="483.6,460.4 478.2,463.4 478.2,421.6 483.6,421.6  "/>
	<path class="st1" d="M492.5,474.9l-3.7-4.7c2.6-0.8,4.4-1.9,5.3-3.1c0.9-1.2,1.4-3.2,1.4-5.9v-28.3h5.3v30   C500.8,468.6,498,472.6,492.5,474.9 M498.2,426.3c-0.9,0-1.7-0.3-2.4-1c-0.6-0.6-1-1.4-1-2.3c0-0.9,0.3-1.6,1-2.3   c0.6-0.6,1.4-1,2.4-1c0.8,0,1.6,0.3,2.2,1c0.6,0.6,1,1.4,1,2.3c0,0.9-0.3,1.6-1,2.3C499.8,426,499,426.3,498.2,426.3"/>
	<path class="st1" d="M514.6,474.9l-3.6-4.8h0.8c7.4,0,11.1-2.7,11.1-8.1v-1.7h-4.6c-3.3,0-5.8-0.9-7.5-2.6   c-1.6-1.6-2.4-3.9-2.4-6.8v-8.8c0-3.1,0.9-5.5,2.7-7.1c1.7-1.5,3.9-2.2,6.6-2.2h10.5v28.2c0,4.8-1.2,8.2-3.7,10.5   C522.6,473.5,519.2,474.6,514.6,474.9 M523,455.1v-16.9h-5.3c-1.4,0-2.4,0.3-3,1c-0.6,0.6-0.9,1.7-0.9,3.1v8.8c0,1.6,0.3,2.7,1,3.2   c0.7,0.6,2,0.8,4,0.8H523z"/>
	<path class="st1" d="M129.7,536.7v-28.6h5.4v29.1c0,4.6-2.1,8.1-6.2,10.5c-3.1,1.8-6.8,2.7-11,2.7c-4.8,0-8.9-1.2-12.2-3.5   c-3.3-2.4-5-5.7-5-9.7v-13.9l5.4-3.5v16.9c0,3,1.4,5.3,4.2,6.8c2.1,1,4.6,1.6,7.6,1.6c3.6,0,6.5-0.7,8.6-2.2   C128.7,541.3,129.7,539.3,129.7,536.7 M118.4,501.6c-0.9,0-1.7-0.3-2.4-1c-0.7-0.7-1-1.4-1-2.3c0-0.9,0.3-1.6,1-2.3   c0.7-0.6,1.5-1,2.4-1c0.8,0,1.6,0.3,2.2,1c0.6,0.6,1,1.4,1,2.3c0,0.9-0.3,1.7-1,2.3C119.9,501.2,119.2,501.6,118.4,501.6"/>
	<path class="st1" d="M151.4,535.7h-0.3c-2.5,0-4.5-0.9-6.1-2.7c-1.4-1.5-2.2-3.5-2.2-5.8v-30.3h5.4V527c0,2.3,1,3.4,2.9,3.4h0.3   V535.7z"/>
	<rect x="151.1" y="530.4" class="st1" width="9" height="5.3"/>
	<path class="st1" d="M192.3,535.7h-32.7v-5.3h24.1v-13c0-2.6-1.3-3.9-3.8-3.9H166v-7.1c0-6.3,3.3-9.5,9.9-9.5h9.2v5.4h-9.9   c-2.6,0-3.9,1.3-3.9,3.8v2h8.4c3.1,0,5.4,0.9,7.1,2.7c1.4,1.6,2.2,3.8,2.2,6.6v12.9h3.4V535.7z"/>
	<rect x="191.9" y="530.4" class="st1" width="9" height="5.3"/>
	<path class="st1" d="M240.9,535.7h-40.4v-5.3h15.6v-22.3h5.3v22.3h9.2v-22.3h5.3v22.3h5.3c2.6,0,3.9-1.2,3.9-3.7v-18.5h5.3v18.3   c0,3-0.9,5.4-2.7,7C246.1,534.9,243.8,535.7,240.9,535.7"/>
	<path class="st1" d="M275.8,535.7h-17.6v-5.3h9.6l-8.7-22.3h5.7l8.6,22.3h2.2c1.6,0,2.6-0.3,3.3-0.9c0.6-0.6,1-1.7,1-3.2v-29.4h5.3   v29.8c0,2.9-0.9,5.2-2.6,6.7C281,535,278.7,535.7,275.8,535.7 M268.3,550.2h-10V548h2.4c-0.4-0.7-0.7-1.4-0.7-2.2   c0-1.3,0.4-2.3,1.2-3.2c0.8-0.8,1.8-1.2,3.1-1.2h2.4v2.2h-1.6c-1.8,0-2.7,0.7-2.7,2.2s0.9,2.2,2.7,2.2h3.2V550.2z"/>
	<polygon class="st1" points="298.2,535.7 292.8,538.7 292.8,496.9 298.2,496.9  "/>
	<path class="st1" d="M312,550.2l-3.6-4.8h0.8c7.4,0,11.1-2.7,11.1-8.1v-1.7h-4.6c-3.3,0-5.8-0.9-7.6-2.6c-1.6-1.6-2.4-3.9-2.4-6.8   v-8.8c0-3.1,0.9-5.5,2.7-7.1c1.7-1.5,3.9-2.2,6.6-2.2h10.5v28.2c0,4.8-1.2,8.2-3.6,10.5C319.9,548.8,316.6,549.9,312,550.2    M320.4,530.4v-16.9H315c-1.4,0-2.4,0.3-2.9,1c-0.6,0.6-0.9,1.7-0.9,3.1v8.8c0,1.6,0.3,2.7,1,3.2c0.7,0.6,2,0.8,4,0.8H320.4z"/>
	<path class="st1" d="M367,535.7h-8.6v-3.5l-2.6,3.5h-2c-3.5,0-6.1-0.9-7.8-2.8c-1.4-1.6-2.2-3.8-2.2-6.6v-8.8c0-3.2,1-5.7,3.1-7.4   c1.7-1.3,3.8-2,6.3-2h10.5v22.3h3.2V535.7z M349.8,501.6c-0.9,0-1.7-0.3-2.3-1c-0.7-0.7-1-1.4-1-2.3c0-0.9,0.3-1.6,1-2.3   c0.7-0.6,1.4-1,2.3-1c0.9,0,1.6,0.3,2.3,1c0.6,0.6,1,1.4,1,2.3c0,0.9-0.3,1.7-1,2.3C351.5,501.2,350.7,501.6,349.8,501.6    M358.4,530.4v-16.9h-5.3c-2.5,0-3.8,1.3-3.8,3.9v9.1c0,1.4,0.3,2.5,1,3.1c0.6,0.6,1.7,0.9,3.2,0.9H358.4z M358,501.6   c-0.9,0-1.6-0.3-2.3-1c-0.6-0.7-1-1.4-1-2.3c0-0.9,0.3-1.6,1-2.3c0.6-0.6,1.4-1,2.3-1c0.9,0,1.6,0.3,2.3,1c0.6,0.6,1,1.4,1,2.3   c0,0.9-0.3,1.7-1,2.3C359.6,501.2,358.9,501.6,358,501.6"/>
	<rect x="366.7" y="530.4" class="st1" width="9" height="5.3"/>
	<path class="st1" d="M381.3,535.7h-6.1v-5.3h6.5c2.6,0,3.9-1.2,3.9-3.7v-18.6h5.3v18.3c0,3.3-1.1,5.8-3.2,7.4   C386,535.1,383.9,535.7,381.3,535.7 M383.3,547c0,0.9-0.3,1.6-1,2.3c-0.6,0.6-1.4,1-2.3,1c-0.9,0-1.7-0.3-2.3-0.9   c-0.6-0.6-0.9-1.4-0.9-2.3c0-0.9,0.3-1.6,1-2.3c0.6-0.6,1.4-1,2.3-1c0.9,0,1.6,0.3,2.3,1C383,545.3,383.3,546.1,383.3,547    M388.4,550.2c-0.9,0-1.7-0.3-2.4-0.9c-0.6-0.6-1-1.4-1-2.3c0-0.9,0.3-1.6,1-2.3c0.6-0.6,1.4-1,2.4-1c0.8,0,1.6,0.3,2.2,1   c0.6,0.6,1,1.4,1,2.3c0,0.9-0.3,1.6-0.9,2.3C390,549.9,389.2,550.2,388.4,550.2"/>
	<path class="st1" d="M404.7,550.2l-3.6-4.8h0.8c7.4,0,11.1-2.7,11.1-8.1v-1.7h-4.6c-3.3,0-5.8-0.9-7.5-2.6   c-1.6-1.6-2.4-3.9-2.4-6.8v-8.8c0-3.1,0.9-5.5,2.7-7.1c1.7-1.5,3.9-2.2,6.6-2.2h10.5v28.2c0,4.8-1.2,8.2-3.7,10.5   C412.7,548.8,409.3,549.9,404.7,550.2 M413.1,530.4v-16.9h-5.3c-1.4,0-2.4,0.3-2.9,1c-0.6,0.6-0.9,1.7-0.9,3.1v8.8   c0,1.6,0.3,2.7,1,3.2c0.7,0.6,2,0.8,4,0.8H413.1z"/>
	<path class="st1" d="M427.5,550.2l-3.7-4.7c2.6-0.8,4.4-1.9,5.3-3.1c0.9-1.2,1.4-3.2,1.4-5.9v-28.3h5.3v22.3h3.3v5.3h-3.3v2.4   C435.7,543.9,432.9,547.9,427.5,550.2"/>
	<path class="st1" d="M467.9,535.7h-29.3v-5.3h6.1v-12.9c0-3.2,0.9-5.6,2.8-7.2c1.7-1.4,3.8-2.2,6.4-2.2h10.7v22.3h3.2V535.7z    M450.8,501.6c-0.9,0-1.7-0.3-2.4-1c-0.7-0.7-1-1.4-1-2.3c0-0.9,0.3-1.6,1-2.3c0.7-0.6,1.5-1,2.4-1c0.8,0,1.6,0.3,2.2,1   c0.6,0.6,1,1.4,1,2.3c0,0.9-0.3,1.7-1,2.3C452.3,501.2,451.6,501.6,450.8,501.6 M459.3,530.4v-16.9h-5.3c-2.5,0-3.8,1.4-3.8,4.1   v12.9H459.3z M458.8,501.6c-0.9,0-1.7-0.3-2.3-1c-0.7-0.7-1-1.4-1-2.3c0-0.9,0.3-1.6,1-2.3c0.7-0.6,1.4-1,2.3-1   c0.9,0,1.6,0.3,2.3,1c0.6,0.6,1,1.4,1,2.3c0,0.9-0.3,1.7-1,2.3C460.5,501.2,459.7,501.6,458.8,501.6"/>
	<rect x="467.6" y="530.4" class="st1" width="9" height="5.3"/>
	<path class="st1" d="M478.4,535.7h-2.2v-5.3h2.1c1.5,0,2.6-0.3,3.3-0.9c0.6-0.6,1-1.7,1-3.2v-29.4h5.3v29.8c0,2.9-0.9,5.2-2.6,6.7   C483.6,535,481.3,535.7,478.4,535.7"/>
	<polygon class="st1" points="500.8,535.7 495.4,538.7 495.4,496.9 500.8,496.9  "/>
	<path class="st1" d="M514.6,550.2l-3.6-4.8h0.8c7.4,0,11.1-2.7,11.1-8.1v-1.7h-4.6c-3.3,0-5.8-0.9-7.5-2.6   c-1.6-1.6-2.4-3.9-2.4-6.8v-8.8c0-3.1,0.9-5.5,2.7-7.1c1.7-1.5,3.9-2.2,6.6-2.2h10.5v28.2c0,4.8-1.2,8.2-3.7,10.5   C522.6,548.8,519.2,549.9,514.6,550.2 M523,530.4v-16.9h-5.3c-1.4,0-2.4,0.3-3,1c-0.6,0.6-0.9,1.7-0.9,3.1v8.8c0,1.6,0.3,2.7,1,3.2   c0.7,0.6,2,0.8,4,0.8H523z"/>
</g>
</svg>