<svg xmlns="http://www.w3.org/2000/svg" xmlns:xlink="http://www.w3.org/1999/xlink" version="1.1" id="Layer_1" x="0px" y="0px" viewBox="0 0 1000 1000" style="enable-background:new 0 0 1000 1000;" xml:space="preserve" width="1000"  height="1000" >
<style type="text/css">
	.st0{fill:#005C4D;}
	.st1{fill:#C4984F;}
	.st2{fill:#025D4D;}
	.st3{fill-rule:evenodd;clip-rule:evenodd;fill:#C4984F;}
	.st4{fill:#005645;}
	.st5{fill:#C5994F;}
	.st6{fill-rule:evenodd;clip-rule:evenodd;fill:#C5994F;}
</style>
<g>
	<path class="st4" d="M625.7,422c-1.6-5.4-4.5-10.2-8.6-14.3c-4.1-4.1-9.8-7.4-16.9-9.9c-7.2-2.5-16.3-3.7-27.4-3.7h-50.7h-8.6v0.8   c0,0,8.6,6,8.6,21.9c0,0,0,0,0,0v115.6h24.4V414.7h25.9c6.2,0,11.3,0.5,15.3,1.6c4,1.1,7.2,2.7,9.6,4.7c2.4,2,4.1,4.6,5,7.7   c1,3.1,1.4,6.7,1.4,10.8c0,4-0.4,7.5-1.3,10.7c-0.9,3.1-2.5,5.9-4.8,8.1c-2.3,2.3-5.5,4-9.5,5.2c-4,1.2-9.2,1.8-15.5,1.8h-9.2   l-8.6,20.7h18.5c10.8,0,19.8-1.3,26.9-3.8c7.1-2.5,12.8-6,16.9-10.3c4.2-4.3,7.1-9.3,8.7-15.1c1.6-5.7,2.5-11.8,2.5-18.1   C628.2,433,627.4,427.4,625.7,422"/>
	<path class="st4" d="M647.1,394.2v0.8c0,0,8.6,6,8.6,21.9v2.8v112.8h24.8V394.1l-24.8,0.1H647.1z"/>
	<path class="st4" d="M803.2,415.5l8.6-21.3h-93.6h-8.6v0.8c0,0,8.6,6,8.6,21.9v2.8v112.8h24.8v-54h48.7l8.6-21.3h-57.3v-41.7H803.2   z"/>
	<rect x="521.9" y="561.2" class="st5" width="158.6" height="2.3"/>
	<path class="st5" d="M699.3,561.8c0,3.8,3,6.2,6.6,6.2h3.2c-0.8,2.2-3.2,3.3-5.8,3.3c-3.4,0-6.7-1.7-6.7-5.2v-2.8l-3.7,0.8v1.6   c0,5.7,5,8.2,10.2,8.2c5.5,0,10.2-2.5,10.2-8.5v-10h-6.4C703.1,555.3,699.3,557.3,699.3,561.8 M709.6,565c0,0.1,0,0.3,0,0.4h-2.9   c-2.1,0-3.7-1.4-3.7-3.8c0-2.5,1.8-3.9,3.8-3.9h2.8V565z"/>
	<path class="st5" d="M705,552.3c1,0,1.7-0.8,1.7-1.7c0-1-0.8-1.7-1.7-1.7c-0.9,0-1.7,0.8-1.7,1.7   C703.3,551.5,704.1,552.3,705,552.3"/>
	<path class="st5" d="M709.7,552.3c1,0,1.7-0.8,1.7-1.7c0-1-0.8-1.7-1.7-1.7s-1.7,0.8-1.7,1.7C708,551.5,708.7,552.3,709.7,552.3"/>
	<path class="st5" d="M716.6,561.8c0,3.8,3,6.2,6.6,6.2h3.6c-0.3,2.6-1.7,3.6-4.6,3.6h-2.1v2.3h2.7c4.9,0,7.7-1.9,7.7-7.5v-11.2   h-6.4C720.4,555.3,716.6,557.3,716.6,561.8 M726.9,565.4H724c-2,0-3.7-1.3-3.7-3.7c0-2.5,1.8-3.9,3.8-3.9h2.7V565.4z"/>
	<path class="st5" d="M767.1,553.3c1,0,1.9-0.8,1.9-1.9c0-1-0.9-1.9-1.9-1.9c-1.1,0-1.9,0.9-1.9,1.9   C765.2,552.5,766,553.3,767.1,553.3"/>
	<path class="st5" d="M800.1,556.9h-8.4l-0.8,1.7v-2.8l-3.7,0.7v9h-7.6h0H771c0,0,0,0,0,0c0,0,0,0,0,0h-2.2v-9.3l-3.7,0.7v8.5h-8.5   h0h-9.9h0h-1.6v-3.9c0-4.4-2.4-6.3-6.8-6.3h-3.4v2.5h2.5c2.7,0,4,0.9,4,3.3v4.4h-8.1v2.5h13.4h0h9.9h0h8.5c1.3,0,2.3-0.5,2.9-1.3   l0.9,1.3h2.1c0,0,0,0,0,0c0,0,0,0,0,0h8.5h0h27.7v-4.8C807.3,558.6,803.9,556.9,800.1,556.9 M803.5,565.4h-12.6v-6.1h8.9   c2.3,0,3.7,1.3,3.7,3.3V565.4z"/>
	<path class="st5" d="M526.2,589.4c0.9,0,1.7-0.8,1.7-1.7c0-1-0.8-1.7-1.7-1.7c-0.9,0-1.7,0.8-1.7,1.7   C524.5,588.6,525.3,589.4,526.2,589.4"/>
	<path class="st5" d="M530.8,589.4c1,0,1.7-0.8,1.7-1.7c0-1-0.8-1.7-1.7-1.7c-1,0-1.7,0.8-1.7,1.7   C529.1,588.6,529.9,589.4,530.8,589.4"/>
	<path class="st5" d="M548.7,592.1h-4.8l-1.6,5.9c-0.7,2.7-1.4,4.2-3.9,4.2h-0.6h0h-2.2v-10.8l-3.7,0.8v0.9h-4.3   c-3.5,0-6.1,2.3-6.1,5.9c0,3.6,2.6,5.9,6.1,5.9h3.6l1.2-1.8c0.7,1.1,1.9,1.8,3.5,1.8h1.8h0h0.8c4.3,0,6.4-2.1,7.4-6.2l0.9-3.9h1.7   c2,0,3.8,1.4,3.8,3.8v3.7h-7.9l1.8,2.5h9.9v-6C556.2,594.2,552.5,592.1,548.7,592.1 M528.5,602.1c-2,0-3.3-1.3-3.3-3.4   c0-2,1.3-3.4,3.3-3.4h3.4v5.2c0,0.6,0.1,1.1,0.3,1.5H528.5z"/>
	<path class="st5" d="M604,602.1h-11.2c0,0,0,0,0,0c0,0,0,0,0,0h-4c1.9-1.4,2.9-3.3,2.9-5.1c0-2.7-2.4-5.1-6.9-5.1   c-2.5,0-4.9,0.7-6.9,1.4l-1.3,1.8l0.2,0.1l-0.2,0.1l0.6,1.3c1.6,2.7,2.5,4.4,3.7,5.5H573c0,0,0,0,0,0c0,0,0,0,0,0h-7.4h-0.1h-2.1   v-18.4l-3.7,0.7v16.4c0,2.2,1.5,3.7,3.7,3.7h2h0.1h7.4c0,0,0,0,0,0c0,0,0,0,0,0h7.2c1.7,0,2.9-0.5,4.1-0.9c0.9,0.4,1.9,0.9,3.5,0.9   h4.9c0,0,0,0,0,0c0,0,0,0,0,0h14.9v-20.9l-3.7,0.7V602.1z M585,601.7c-1.7-1-3.2-3.4-4.3-5.3c-0.1-0.2-0.5-0.7-0.8-1.1   c1.3-0.4,2.9-0.8,4.2-0.8c2.3,0,4,1.3,4,3.3C588,599.3,587,600.9,585,601.7"/>
	<polygon class="st5" points="612,604.7 615.8,604.7 615.8,583.8 612,584.5  "/>
	<path class="st5" d="M639.7,593.8c1,0,1.7-0.8,1.7-1.7c0-1-0.8-1.7-1.7-1.7c-1,0-1.7,0.8-1.7,1.7C638,593,638.7,593.8,639.7,593.8"/>
	<path class="st5" d="M635,593.8c1,0,1.7-0.8,1.7-1.7c0-1-0.8-1.7-1.7-1.7c-0.9,0-1.7,0.8-1.7,1.7C633.3,593,634.1,593.8,635,593.8"/>
	<path class="st5" d="M644.8,602.1h-12.5c-2.6,0-3.4-1-3.4-3.6v-2.6l-3.7,0.7v1.1c0,4.9,2.3,6.9,6.7,6.9h16.7v-11.8l-3.7,0.7V602.1z   "/>
	<polygon class="st5" points="652.9,604.7 656.6,604.7 656.6,583.8 652.9,584.5  "/>
	<path class="st5" d="M661,605.7c0,2.4-1.1,3.4-3.3,3.8l0.8,2.3c4.4-0.6,6.2-2.9,6.2-6.9v-11.9l-3.7,0.7V605.7z"/>
	<path class="st5" d="M716.5,590c0.9,0,1.7-0.8,1.7-1.7c0-1-0.8-1.7-1.7-1.7c-0.9,0-1.7,0.8-1.7,1.7   C714.8,589.3,715.6,590,716.5,590"/>
	<path class="st5" d="M718.7,586.1c1,0,1.7-0.8,1.7-1.7c0-1-0.8-1.7-1.7-1.7c-1,0-1.7,0.8-1.7,1.7   C717,585.3,717.8,586.1,718.7,586.1"/>
	<path class="st5" d="M719.4,588.3c0,0.9,0.8,1.7,1.7,1.7c1,0,1.7-0.8,1.7-1.7c0-1-0.8-1.7-1.7-1.7   C720.2,586.6,719.4,587.4,719.4,588.3"/>
	<path class="st5" d="M736.7,590c1,0,1.7-0.8,1.7-1.7c0-1-0.8-1.7-1.7-1.7c-0.9,0-1.7,0.8-1.7,1.7C735,589.3,735.8,590,736.7,590"/>
	<path class="st5" d="M741.3,590c1,0,1.7-0.8,1.7-1.7c0-1-0.8-1.7-1.7-1.7s-1.7,0.8-1.7,1.7C739.6,589.3,740.4,590,741.3,590"/>
	<path class="st5" d="M776.6,602.1h-4.7c0.1-0.4,0.2-0.8,0.2-1.2v-7.2l-3.7,0.7v7.7h-5.2v-8.4l-3.7,0.7v7.7h-8.3h-0.3h-5.6h0H743   v-9.3l-3.7,0.7v8.5H735h0h-10h0h-2.1v-9.3l-3.7,0.7v8.5h-4.1h-0.2h-11.1h-0.1h-1.5v-3.5c0-4.4-3.7-6.6-7.5-6.6h-4.8l-1.6,5.9   c-0.7,2.7-1.4,4.2-3.9,4.2h-0.6c0,0,0,0.1-0.1,0.1c0,0,0-0.1-0.1-0.1h-9.1h-0.1h-2.1v-18.4l-3.7,0.7v16.4c0,2.2,1.5,3.7,3.7,3.7   h2.1h0.1h9.1c0,0,0-0.1,0.1-0.1c0,0,0,0.1,0.1,0.1h0.8c4.3,0,6.4-2.1,7.4-6.2l0.9-3.9h1.7c2,0,3.8,1.4,3.8,3.8v3.7h-7.9l1.8,2.5   h11.4h0.1h11.1h0.2h4.1c1.3,0,2.3-0.5,2.9-1.3l0.9,1.3h2.1h0h10h0h4.3c1.3,0,2.3-0.5,2.9-1.3l0.9,1.3h2.1h0h5.6h0.3h17.2   c1.3,0,2.3-0.5,3-1.3l0.9,1.3h8.1v-11.8l-3.7,0.7V602.1z"/>
	<polygon class="st5" points="795.4,602.1 790.3,602.1 790.3,587.2 786.6,588 786.6,602.1 783,602.1 783,604.7 799.1,604.7    799.1,583.8 795.4,584.5  "/>
	<polygon class="st5" points="803.5,584.5 803.5,604.7 807.2,604.7 807.2,583.8  "/>
	<path class="st4" d="M466.5,500c0,76.9-62.3,139.2-139.2,139.2S188.1,576.9,188.1,500s62.3-139.2,139.2-139.2   S466.5,423.1,466.5,500 M327.3,371.3c-71.1,0-128.7,57.6-128.7,128.7s57.6,128.7,128.7,128.7S456.1,571.1,456.1,500   S398.4,371.3,327.3,371.3"/>
	<path class="st4" d="M327.3,403c-53.6,0-97,43.4-97,97c0,53.6,43.4,97,97,97s97-43.4,97-97C424.3,446.4,380.9,403,327.3,403    M327.3,592.8c-51.3,0-92.8-41.6-92.8-92.8c0-51.3,41.6-92.8,92.8-92.8s92.8,41.6,92.8,92.8C420.1,551.3,378.6,592.8,327.3,592.8"/>
	<polygon class="st4" points="446.7,482.2 432,484.9 431.4,481.6 446.1,478.8  "/>
	<polygon class="st4" points="445.9,522.7 431.1,520.2 431.7,516.8 446.5,519.3  "/>
	<path class="st4" d="M432.2,514l0.4-3.4l5.4,0.6l0.3-2.9c0.3-2.5,2-4.4,5.1-4.1c2.9,0.3,4.8,2.3,4.4,6c-0.4,4-3.1,5.1-6.1,4.8   L432.2,514z M442.7,511.6c1.6,0.2,2.7-0.5,2.8-1.8c0.1-1.2-0.6-2.1-2.3-2.3c-1.6-0.2-2.6,0.6-2.7,1.7l-0.2,2.1L442.7,511.6z"/>
	<polygon class="st4" points="442.5,489.9 442.7,492.4 447.8,492.1 448,495.5 442.9,495.8 443,498.2 448,497.9 448.2,501.3    440.9,501.7 440.3,490 432.6,490.5 432.4,487.1 447.4,486.2 447.6,489.6  "/>
	<path class="st4" d="M222.4,486.7l-14.3-2.2l0.5-3.3l9.3,1.4l0.4-2.6l2.5,0.4l-0.1,0.4c-0.1,0.8,0,1.4,0.5,2c0.4,0.5,1,0.9,1.7,1.2   L222.4,486.7z"/>
	<path class="st4" d="M212.9,490.7c0.4-0.7,1-1.2,1.7-1.6c0.7-0.4,1.6-0.6,2.6-0.5c1.2,0.1,2.1,0.4,2.9,0.9c0.7,0.5,1.3,1.2,1.6,2   c0.3,0.8,0.4,1.6,0.4,2.4c-0.1,1.9-0.8,3.3-2.2,4.1c-1.3,0.8-3.2,1.1-5.6,1c-2.7-0.1-4.6-0.7-5.7-1.8c-1.1-1-1.6-2.4-1.5-4.1   c0.1-1.3,0.5-2.3,1.2-3.1c0.7-0.8,1.7-1.3,2.9-1.5l0.3,3.2c-1.1,0.2-1.7,0.7-1.7,1.6c0,0.8,0.3,1.4,0.9,1.7   c0.7,0.4,1.6,0.6,2.7,0.6l0-0.1c-0.4-0.4-0.6-0.8-0.8-1.3c-0.2-0.5-0.2-1-0.2-1.6C212.3,492,212.5,491.4,212.9,490.7 M215.4,492.4   c-0.4,0.4-0.7,0.8-0.7,1.4c0,0.5,0.2,1,0.6,1.4c0.4,0.4,1,0.6,1.7,0.7c0.7,0,1.3-0.1,1.8-0.5c0.4-0.4,0.7-0.8,0.7-1.4   c0-0.6-0.1-1-0.5-1.4c-0.4-0.4-1-0.6-1.7-0.7C216.4,491.8,215.8,492,215.4,492.4"/>
	<polygon class="st4" points="221.4,500.6 222,511.1 218.9,511.3 207.3,506 207.1,502.1 218.7,507.5 218.3,500.8  "/>
	<path class="st4" d="M223.1,518.6l-14.3,2.1l-0.5-3.3l9.3-1.4l-0.4-2.6l2.5-0.4l0.1,0.4c0.1,0.8,0.5,1.4,1,1.8   c0.6,0.4,1.2,0.6,1.9,0.6L223.1,518.6z"/>
	<path class="st4" d="M426.5,434.2c0.8-0.6,1-1.6,0.4-2.4c-0.6-0.8-1.6-1-2.4-0.4c-0.8,0.6-1,1.6-0.4,2.4   C424.6,434.6,425.7,434.7,426.5,434.2"/>
	<path class="st4" d="M430.6,450.9l-2.9-6.1l-1.8,0.2l2.2-1.3l-1.9-3.1l-6.1,3.7c-0.8-1.3-1.5-2.5-2.4-3.7l5.9-4.2l-2.1-3l-5.9,4.2   c-0.8-1.2-1.7-2.3-2.5-3.4l1.8-1.5c2.7-2.2,2.9-4.8,0.4-7.8l-1.6-2l-1.8,1.6l1,1.2c1.4,1.7,1.3,2.8,0.1,3.8l-2.1,1.8   c-1.3-1.5-2.6-3-3.9-4.5l-1.8,1.7c3.1,3.3,5.9,6.9,8.5,10.6l0,0c0.7,1,1.6,1.6,2.6,1.7l-0.5,1.5l0,0c3.8,5.7,7,11.8,9.6,18.3   l3.4-1.7C432.3,456.9,432,453.6,430.6,450.9 M427.6,455.1l-1.5,0.8c-1.3-2.9-2.7-5.7-4.2-8.4l3.3-2.1l3.1,6.4   C429.1,453.2,428.8,454.5,427.6,455.1"/>
	<path class="st4" d="M400.8,410.3l-4.7,6.2c-3,3.9-7.4,3.1-10.9,0.4c-3.4-2.6-5.6-6.6-2.7-10.4l1.2-1.5l2.9,2.2l-1.4,1.9   c-1.6,2.2-0.3,4.6,1.6,6c1.4,1,3.1,1.5,4.5,0.8l-1.7-1.3c-2.4-1.8-3.1-4.7-1.3-7.1c2.2-2.9,5.6-2.3,8.1-0.5L400.8,410.3z M395,409   c-1.1-0.8-2.6-0.8-3.6,0.6c-1,1.3-0.7,2.7,0.5,3.6l1.3,1c0-0.1,0.1-0.2,0.2-0.2l3-3.9L395,409z M396.5,404.3   c-0.7-0.5-0.8-1.5-0.3-2.2c0.5-0.7,1.5-0.8,2.2-0.3c0.7,0.5,0.8,1.5,0.3,2.2C398.2,404.7,397.2,404.8,396.5,404.3 M399.7,406.7   c-0.7-0.5-0.8-1.5-0.3-2.2c0.5-0.7,1.5-0.8,2.2-0.3c0.7,0.5,0.8,1.5,0.3,2.2C401.4,407.1,400.4,407.2,399.7,406.7"/>
	<path class="st4" d="M411.3,420.1l-6,6.2c-3.3,3.5-6.1,2.7-9-0.1l-1.4-1.4l1.6-1.7l1,1c1.5,1.4,2.7,1.7,4.2,0.6l-1.8-1.7   c-2.2-2.1-2.5-5.1-0.4-7.2c2.5-2.6,5.8-1.6,8.1,0.6L411.3,420.1z M403.4,423l3.6-3.7l-1.2-1.2c-1-0.9-2.4-1.1-3.6,0.1   c-1.1,1.1-1,2.6,0,3.6L403.4,423z"/>
	<path class="st4" d="M276.9,397.5c0.8-0.4,1.1-1.3,0.7-2.1c-0.4-0.8-1.3-1.1-2.1-0.7c-0.8,0.4-1.1,1.3-0.7,2.1   C275.2,397.6,276.1,397.9,276.9,397.5"/>
	<path class="st4" d="M273.4,399.3c0.8-0.4,1.1-1.3,0.7-2.1c-0.4-0.8-1.3-1.1-2.1-0.7c-0.8,0.4-1.1,1.3-0.7,2.1   C271.7,399.4,272.6,399.7,273.4,399.3"/>
	<path class="st4" d="M324.8,381.1c0,0.8,0.7,1.5,1.6,1.5c0.9,0,1.6-0.7,1.5-1.6c0-0.9-0.7-1.5-1.6-1.5   C325.4,379.5,324.8,380.2,324.8,381.1"/>
	<path class="st4" d="M322.4,382.7c0.9,0,1.6-0.7,1.5-1.6c0-0.9-0.7-1.6-1.6-1.5c-0.9,0-1.5,0.7-1.5,1.6   C320.8,382,321.5,382.7,322.4,382.7"/>
	<path class="st4" d="M324.2,379.3c0.9,0,1.6-0.7,1.5-1.6c0-0.9-0.7-1.6-1.6-1.5c-0.9,0-1.5,0.7-1.5,1.6   C322.7,378.6,323.4,379.3,324.2,379.3"/>
	<path class="st4" d="M335.3,382.9c0.9,0.1,1.6-0.6,1.7-1.4c0.1-0.9-0.6-1.6-1.5-1.7c-0.8,0-1.6,0.6-1.6,1.5   C333.8,382.1,334.4,382.8,335.3,382.9"/>
	<path class="st4" d="M331.3,382.6c0.9,0.1,1.6-0.6,1.7-1.4c0.1-0.9-0.6-1.6-1.5-1.7c-0.8-0.1-1.6,0.6-1.6,1.5   C329.8,381.9,330.5,382.6,331.3,382.6"/>
	<path class="st4" d="M287.6,401.9l-3.6-9l-2.9,1.2l2.8,6.8c-3.7,1.6-7.7,3.7-9.6,4.8c-1.5,0.9-2.3,0.6-3.1-0.9l-1.1-2l-3.2,1.7   l0.7,1.3c1.9,3.5,4.3,3.7,7.4,2.1C279,405.8,283.2,403.7,287.6,401.9"/>
	<path class="st4" d="M347.4,396.1c1.2,0.2,2.3,0,3.1-0.7l0.7,1.5c2.1,0.5,4.1,1,6.1,1.6l2.5-9.4l-3.6-0.9l-1.8,7   c-1-0.3-2-0.5-3-0.7c0.2-0.3,0.3-0.7,0.4-1.1l1-5l-3.6-0.7l-1.3,6.2c-1.2-0.2-2.5-0.4-3.7-0.6l0.9-6.1l-3.6-0.5l-0.9,6.1   c-1.3-0.2-3-0.3-4.4-0.4l0.6-7.2l-3.7-0.3l-0.6,7.3c-1.5-0.1-3-0.1-4.5-0.1l0-7.2l-3.7,0l-0.1,7.3c-1.4,0-2.7,0.1-4,0.2l-0.3-2.5   c-0.5-3.6-3.7-4.9-6.8-4.5l-4.3,0.7l-0.4,4.8c-0.3,1.9-0.8,3.1-2.3,3.4l-1.8,0.4l-3.3-13l-3.6,0.8l3,11.8c0.5,2.1,2.2,3.1,4.3,2.7   l0,0c0.6-0.1,1.2-0.3,1.8-0.4c2.1-0.4,3.6-1.3,4.5-2.8l1.7,1.8c3.8-0.5,7.7-0.8,11.6-0.9l0,0c1.2,0,2-0.5,2.7-1.3l1.1,1.3l0,0   c1.4,0,2.9,0.1,4.3,0.1c1.2,0.1,2.2-0.4,2.9-1.1l0.8,1.3C339.9,394.9,343.7,395.4,347.4,396.1 M311.3,393c0.3-0.7,0.6-1.6,0.8-2.5   l0.3-2.9l1-0.1c1.3-0.2,2.6,0.6,2.8,2.3l0.3,2.5C314.7,392.5,313,392.7,311.3,393"/>
	<path class="st4" d="M377.3,389.2l-3.4-1.5l-5.1,12.3c-1.1-0.4-2.2-0.9-3.2-1.3l3.5-10.3l-3.5-1.2l-3.5,10.3   c-0.9-0.3-1.7-0.6-2.6-0.8l-0.7,2.4c4.3,1.3,8.4,2.9,12.4,4.7h0L377.3,389.2z"/>
	<polygon class="st4" points="287.6,385.1 293.2,399.9 289.7,401.1 284.1,386.4  "/>
	<path class="st4" d="M299,397.6c0.9,3.1-0.1,5.6-3.5,7.1l-1.5-1.9c1.4-0.8,2.1-1.7,1.6-3.3l-2.9-9.7l3.5-1L299,397.6z"/>
	<polygon class="st4" points="383.6,392.3 376.8,406.5 373.5,404.8 380.4,390.6  "/>
	<path class="st4" d="M218.7,450.2c-0.8-0.4-1.7,0-2.1,0.8c-0.4,0.8,0,1.7,0.8,2.1c0.8,0.4,1.7,0,2-0.8   C219.8,451.4,219.5,450.5,218.7,450.2"/>
	<path class="st4" d="M220.4,446.5c-0.8-0.4-1.7,0-2.1,0.8c-0.4,0.8,0,1.7,0.8,2.1c0.8,0.4,1.7,0,2-0.8   C221.5,447.8,221.2,446.9,220.4,446.5"/>
	<path class="st4" d="M241.8,437.8L241.8,437.8c-0.4-0.2-1.8-1-4.3-2.7c-3-1.9-6.1-0.3-7.8,2.4l-2.1,3.3l3.4,3.8   c1.3,1.4,2,2.6,1.3,4l-0.1,0.1c0,0-0.2,0.4-0.2,0.4c0,0-0.6,1.2-0.6,1.2l-7.4-3.9l-1.7,3.3l1.3,0.7l-1.3,2.5   c-1.3,2.5-0.6,5.3,1.9,6.6c2.5,1.3,5.3,0.2,6.5-2.3l0.1-0.3c0.2-0.4,0.4-0.8,0.5-1.2l0.4-0.9l-0.8-1.5c1-0.2,1.8-0.8,2.4-1.7   c0.3-0.5,1.1-2,1.1-2c1-1.9,1.2-3.3,0.6-5l2.5-0.4l0,0C238.9,441.9,240.3,439.8,241.8,437.8C241.8,437.8,241.8,437.8,241.8,437.8    M228.9,455.3c-0.6,1.2-1.7,1.6-2.9,1c-1.2-0.6-1.7-1.7-1.1-2.9l0.9-1.9l2.8,1.4c0.4,0.2,0.8,0.4,1.2,0.5L228.9,455.3z M235,443.7   l-0.2,0.3c-0.3-0.7-1.1-1.7-1.6-2.2c-0.5-0.5-2-2.2-2-2.2l0.5-0.8c0.7-1.1,2.1-1.6,3.6-0.7l2.4,1.5   C236.8,440.9,235.9,442.3,235,443.7"/>
	<path class="st4" d="M248.9,429c1-1.2,1.5-2.2,1.9-3.3c0.9-0.3,1.8-0.6,2.8-1.7c2.3-2.4,4.9-4.6,7.6-6.7l-9.8-12.4l-2.9,2.3   l8.4,10.6c-1.5,1.3-3,2.7-4.4,4l0,0c0.2-1.8-0.3-3.4-1.3-4.3c-1.5-1.4-4.1-1.4-6.7,1.3c-1.4,1.4-2.3,3.2-3.1,4.7   c0,0,0.4,1.8,0.4,1.9c0.1,0.2,0.5,0.4,0.8,0.5c0.3,0.1,3.7,0.7,5,0.8c-1.6,1.7-3.1,3.5-4.6,5.4l0,0l-10.5-8.4l-2.3,2.9l9.4,7.6   c1.7,1.4,3.8,1.1,5.1-0.6C246.2,432.1,247.5,430.6,248.9,429 M244.3,423.4c0.4-0.8,0.9-1.6,1.5-2.2c1.1-1.2,2.5-1.4,3.5-0.4   c0.7,0.7,1,1.8,0.6,3C248.4,424,244.8,423.5,244.3,423.4"/>
	<polygon class="st4" points="256.9,400.9 266,413.8 263.1,416 253.9,403.1  "/>
	<path class="st4" d="M231.7,548.1c-0.5,1.1-1.4,2-2.8,2.6c-1.4,0.6-2.7,0.8-3.8,0.4c-1.1-0.4-2-1.3-2.6-2.6l-1.3-2.9l-4.4,2l-1.4-3   l13.4-6.1l2.7,5.9C232.1,545.8,232.2,547,231.7,548.1 M224.9,546.7c0.3,0.6,0.6,0.9,1.1,1.1c0.4,0.2,1,0.1,1.5-0.1   c0.6-0.3,0.9-0.6,1.1-1.1c0.2-0.4,0.1-0.9-0.1-1.5l-1-2.3l-3.6,1.6L224.9,546.7z"/>
	<path class="st4" d="M229.2,565.9c-1,0-1.9-0.2-2.7-0.8c-0.8-0.5-1.5-1.3-2.1-2.2c-0.9-1.5-1.2-2.9-0.9-4.4   c0.3-1.4,1.2-2.6,2.8-3.6l7.9-4.9l1.7,2.8l-7.6,4.7c-1.7,1-2.1,2.3-1.3,3.7c0.9,1.4,2.2,1.6,3.9,0.6l7.6-4.7l1.7,2.8l-7.9,4.9   C231.2,565.5,230.2,565.9,229.2,565.9"/>
	<path class="st4" d="M247,570.4c-0.1,1-0.6,1.9-1.6,2.6c-0.5,0.4-1.1,0.7-1.6,0.8c-0.6,0.1-1.1,0-1.6-0.2l-0.1,0.1   c0.2,0.7,0.1,1.3-0.1,2c-0.2,0.6-0.6,1.2-1.3,1.7c-1.1,0.9-2.2,1.3-3.2,1.2c-1.1-0.1-2-0.7-2.8-1.7L230,571l11.5-9.2l4.5,5.6   C246.7,568.3,247.1,569.3,247,570.4 M236.4,574.3c0.3,0.4,0.7,0.6,1.1,0.7c0.4,0,0.8-0.1,1.2-0.4c0.4-0.3,0.6-0.7,0.7-1.1   c0.1-0.4-0.1-0.8-0.4-1.2l-2.1-2.6l-2.6,2.1L236.4,574.3z M240.9,570.5c0.3,0.4,0.6,0.6,1,0.6c0.4,0,0.7-0.1,1.1-0.4   c0.4-0.3,0.6-0.6,0.6-1c0.1-0.4-0.1-0.8-0.4-1.1l-2-2.4l-2.4,1.9L240.9,570.5z"/>
	<polygon class="st4" points="239.7,582.7 250,572.1 252.4,574.5 244.4,582.7 249.1,587.3 246.9,589.7  "/>
	
		<rect x="247.4" y="584.9" transform="matrix(0.643 -0.7659 0.7659 0.643 -358.3175 404.5397)" class="st4" width="14.7" height="3.3"/>
	<path class="st4" d="M264.9,600.2c-0.9,0.4-1.9,0.5-2.9,0.4c-1-0.1-2-0.5-2.9-1.1c-1.1-0.7-1.8-1.6-2.3-2.7   c-0.5-1.1-0.7-2.3-0.5-3.6c0.2-1.3,0.7-2.6,1.6-3.9c0.9-1.3,1.9-2.3,3.1-2.9c1.1-0.6,2.3-0.9,3.5-0.8c1.2,0.1,2.3,0.5,3.4,1.2   c0.9,0.6,1.6,1.4,2.1,2.3c0.5,0.9,0.7,1.8,0.7,2.8c0,1-0.2,1.9-0.6,2.7l-3-1.5c0.3-0.7,0.4-1.4,0.3-2.1c-0.1-0.7-0.5-1.3-1.1-1.7   c-0.5-0.3-1-0.5-1.6-0.5c-0.6,0-1.2,0.2-1.9,0.6c-0.7,0.4-1.3,1-1.9,1.8c-0.6,0.8-0.9,1.6-1.1,2.4c-0.1,0.7-0.1,1.4,0.1,2   c0.2,0.6,0.6,1,1.1,1.3c0.6,0.4,1.3,0.6,2,0.5c0.7-0.1,1.4-0.5,2-1.2l2.6,2.2C266.6,599.2,265.8,599.8,264.9,600.2"/>
	
		<rect x="268.5" y="599" transform="matrix(0.4562 -0.8899 0.8899 0.4562 -384.4662 572.0961)" class="st4" width="14.7" height="3.3"/>
	<polygon class="st4" points="288.3,614 284.8,612.7 283.8,601.9 283.7,601.9 280.1,610.8 277.3,609.7 282.8,596 286.3,597.4    287.4,607.9 287.4,608 290.9,599.2 293.7,600.4  "/>
	<polygon class="st4" points="307.7,604 299.7,617.2 295.7,616.2 295,600.8 298.5,601.7 298.7,612.8 298.8,612.9 304.3,603.2  "/>
	<polygon class="st4" points="311.7,610.3 317.9,611.1 317.5,613.9 311.3,613.2 310.9,616.2 317.5,617 317.1,620 307.2,618.8    309.1,604.2 318.9,605.4 318.5,608.4 312,607.6  "/>
	<path class="st4" d="M327.2,608.7c-0.4-0.4-0.9-0.5-1.6-0.5c-0.6,0-1.1,0.1-1.4,0.4c-0.3,0.3-0.5,0.6-0.5,1c0,0.4,0.1,0.6,0.4,0.8   c0.3,0.2,0.7,0.4,1.2,0.5l2,0.6c0.9,0.3,1.6,0.6,2.2,0.8c0.6,0.3,1,0.7,1.4,1.4c0.4,0.6,0.6,1.5,0.5,2.5c0,1.5-0.6,2.7-1.6,3.4   c-1.1,0.7-2.4,1.1-4,1.1c-1.6,0-3-0.5-4-1.3c-1.1-0.9-1.7-2.1-1.8-3.7l3.3-0.3c0.1,0.8,0.3,1.4,0.8,1.8c0.5,0.4,1.1,0.6,1.8,0.6   c0.6,0,1.1-0.1,1.5-0.4c0.4-0.3,0.6-0.6,0.6-1.1c0-0.5-0.1-0.8-0.4-1c-0.3-0.2-0.8-0.4-1.5-0.7l-1.8-0.6c-0.8-0.3-1.5-0.5-2-0.8   c-0.5-0.3-1-0.7-1.3-1.3c-0.3-0.6-0.5-1.3-0.5-2.3c0-1.4,0.5-2.5,1.5-3.3c1-0.8,2.3-1.1,3.8-1.1c1.4,0,2.6,0.4,3.6,1.2   c0.9,0.8,1.5,1.9,1.7,3.4l-3.2,0.2C327.8,609.5,327.6,609,327.2,608.7"/>
	<polygon class="st4" points="343.6,607.8 339.5,608.2 340.6,619.7 337.3,620 336.2,608.6 332.1,608.9 331.8,605.7 343.2,604.6  "/>
	<polygon class="st4" points="358.2,601.3 361.5,615.7 358.5,616.4 356.2,606.3 356.1,606.3 355.9,617 353.6,617.5 348.7,608.1    348.7,608.1 351,618.1 348,618.8 344.7,604.5 349.5,603.4 353.4,611.6 353.5,611.5 353.4,602.4  "/>
	<polygon class="st4" points="365.5,604.7 371.3,602.5 372.4,605.2 366.5,607.4 367.6,610.2 373.8,607.9 374.9,610.8 365.6,614.3    360.4,600.5 369.6,597 370.7,599.8 364.5,602.1  "/>
	<polygon class="st4" points="388.9,603.6 385.6,605.4 376.7,599.2 376.7,599.3 381.2,607.7 378.5,609.2 371.6,596.2 375,594.4    383.7,600.4 383.7,600.3 379.3,592.1 382,590.6  "/>
	<polygon class="st4" points="394.6,585.9 391.2,588.2 397.8,597.6 395.1,599.5 388.5,590.1 385.2,592.5 383.3,589.8 392.7,583.2     "/>
	<polygon class="st4" points="401.4,579.5 403.6,581.8 408.1,577.5 410.1,579.6 405.6,583.9 409.5,588 407.1,590.3 396.9,579.7    404.1,572.8 406.2,575  "/>
	<path class="st4" d="M421.9,571.1c0.3,0.9,0.4,1.9,0.2,2.8c-0.2,0.9-0.7,1.9-1.4,2.7c-1.1,1.3-2.4,2.1-3.8,2.3   c-1.4,0.2-2.9-0.3-4.3-1.5l-7.2-5.9l2.1-2.6l6.9,5.7c1.5,1.3,2.8,1.3,3.9,0c1.1-1.3,0.8-2.6-0.7-3.8l-6.9-5.7l2.1-2.6l7.2,5.9   C420.9,569.3,421.5,570.2,421.9,571.1"/>
	<polygon class="st4" points="432.7,558.7 430.7,561.8 419.9,560.9 419.9,561 428,566.1 426.4,568.6 413.9,560.9 416,557.6    426.5,558.5 426.5,558.4 418.6,553.4 420.2,550.9  "/>
	<path class="st4" d="M427.2,540.1c1.6-0.6,3.5-0.3,5.8,0.7c2.3,1,3.7,2.3,4.3,3.9c0.6,1.6,0.5,3.3-0.3,5.1l-2.4,5.3l-13.4-6.1   l2.4-5.3C424.4,541.8,425.6,540.6,427.2,540.1 M434.1,549c0.5-1.1,0.6-2.1,0.2-2.9c-0.3-0.8-1.2-1.6-2.7-2.2   c-1.5-0.7-2.6-0.8-3.5-0.5c-0.8,0.3-1.5,1-2,2.1l-0.8,1.8l8,3.6L434.1,549z"/>
	<path class="st6" d="M409.7,501v-0.2c-30.2-4.2-57.8,6.2-82.4,28.4c-24.6-22.1-52.1-32.6-82.4-28.4v0.2   c31.5,1.4,57.9,17.7,79.1,37.5c4.1,3.9,10.7,10.4,13.8,14.2l-1.6,1.4c-1.4,1.2-1.6,3.3-0.4,4.7c1.2,1.4,3.3,1.6,4.7,0.4l1.6-1.4   c1,1.3,2,2.5,2.4,3c0,0,3.3,5,6.8,9.8c8.4,11.7,19.1,7.2,20.1,1.3c1-6.1-4.5-8.6-9-8c0,0-0.9,0-1.9-0.3c-3.2-1.3-8.3-7.2-11.8-11.4   l3.2-2.7c1.4-1.2,1.6-3.3,0.4-4.7c-1.2-1.4-3.3-1.6-4.7-0.4l-3,2.5c-3.5-4.1-7-8-10.6-11.7C352.1,519.1,378.1,502.4,409.7,501"/>
	<path class="st5" d="M343.8,440.7l18.8,1.8c-1.8-7.1-10-10-18.2-9c2.5-2.5,9-4.3,14.9-3.9c-5.6-6.2-12.5-6.5-21-2.7l7.4-7.5   c-6-2.4-12,0.9-14.9,5.1c0-1.9-1.7-9.9-3.4-11.3c-1.7,1.4-3.4,9.4-3.4,11.3c-2.9-4.2-8.9-7.6-14.9-5.1l7.4,7.5   c-8.5-3.8-15.4-3.5-21,2.7c5.9-0.4,12.4,1.4,14.9,3.9c-8.2-1-16.4,1.8-18.2,9l18.8-1.8c-7,2.1-12.8,4.1-14.8,16.1l19.2-9.9   c-5.8,4-8.4,16.3-4.1,21.2c1.4-3.2,8.6-15.5,11.5-18c2.3,17.8,0.7,46.6-0.6,52.5l-1.6,2.2c-3.6,0.1-10.2,0.3-13.9,1v0   c2.3,1.3,4.6,2.7,6.8,4.1c7.3-0.9,16.9-1,21.3,0.8c-5.2-0.1-11.3,1-16.7,2.3l0,0c3,2.1,5.5,4,6.7,5c0.7,0.6,1.7,0.9,2.6,0.9   c0.9,0,1.9-0.3,2.6-0.9c2.7-2.2,10.5-8.1,18.2-12.3v0c-3.7-0.7-10.3-0.9-13.9-1l-1.6-2.2c-1.2-5.9-2.8-34.8-0.6-52.5   c2.9,2.5,10.1,14.8,11.5,18c4.3-5,1.7-17.2-4.1-21.2l19.2,9.9C356.6,444.7,350.8,442.8,343.8,440.7"/>
	<path class="st6" d="M316.8,552.7c1.7-2.1,4.4-5,7.2-7.8c-1.1-1.1-2.2-2.2-3.2-3.1c-1.1-1-2.2-2.1-3.4-3.1   c-2.5,2.6-4.9,5.4-7.4,8.3l-3-2.5c-1.4-1.2-3.5-1-4.7,0.4c-1.2,1.4-1,3.5,0.4,4.7l3.2,2.7c-3.5,4.3-8.6,10.1-11.8,11.4   c-1,0.3-1.9,0.3-1.9,0.3c-4.5-0.7-10,1.9-9,8c1,5.8,11.8,10.4,20.1-1.3c3.4-4.8,6.8-9.8,6.8-9.8c0.4-0.5,1.4-1.7,2.4-3l1.6,1.4   c1.4,1.2,3.5,1,4.7-0.4c1.2-1.4,1-3.5-0.4-4.7L316.8,552.7z"/>
</g>
</svg>