<svg xmlns="http://www.w3.org/2000/svg" xmlns:xlink="http://www.w3.org/1999/xlink" id="Layer_1" version="1.1" viewBox="0 0 1000 1000" width="1000"  height="1000" >
  <!-- Generator: Adobe Illustrator 29.1.0, SVG Export Plug-In . SVG Version: 2.1.0 Build 142)  -->
  <defs>
    <style>
      .st0 {
        fill: url(#linear-gradient2);
      }

      .st1 {
        fill: url(#linear-gradient1);
      }

      .st2 {
        fill: url(#linear-gradient3);
      }

      .st3 {
        fill: url(#radial-gradient);
      }

      .st4 {
        fill: url(#linear-gradient);
      }

      .st5 {
        fill: #374760;
      }

      .st6 {
        fill: url(#radial-gradient1);
      }

      .st7 {
        fill: url(#radial-gradient3);
      }

      .st8 {
        fill: url(#radial-gradient2);
      }

      .st9 {
        fill: url(#linear-gradient4);
        opacity: .7;
      }

      .st9, .st10 {
        isolation: isolate;
      }

      .st10 {
        fill: url(#linear-gradient5);
        opacity: .6;
      }
    </style>
    <linearGradient id="linear-gradient" x1="623" y1="1626.1" x2="1015" y2="1785.5" gradientTransform="translate(-242.5 -1193.5)" gradientUnits="userSpaceOnUse">
      <stop offset="0" stop-color="#222f42"/>
      <stop offset=".3" stop-color="#31415c"/>
      <stop offset=".7" stop-color="#3f5372"/>
      <stop offset="1" stop-color="#222f42"/>
    </linearGradient>
    <linearGradient id="linear-gradient1" x1="768.2" y1="1651.3" x2="923.1" y2="1651.3" gradientTransform="translate(-242.5 -1193.5)" gradientUnits="userSpaceOnUse">
      <stop offset="0" stop-color="#222f42"/>
      <stop offset=".3" stop-color="#31415c"/>
      <stop offset=".7" stop-color="#405372"/>
      <stop offset="1" stop-color="#222f42"/>
    </linearGradient>
    <linearGradient id="linear-gradient2" x1="646.7" y1="1420.5" x2="1098.2" y2="1614.4" xlink:href="#linear-gradient"/>
    <radialGradient id="radial-gradient" cx="978.8" cy="1651.3" fx="978.8" fy="1651.3" r="28.6" gradientTransform="translate(-242.5 -1193.5)" gradientUnits="userSpaceOnUse">
      <stop offset="0" stop-color="#e3ad57"/>
      <stop offset="1" stop-color="#d7a552"/>
    </radialGradient>
    <linearGradient id="linear-gradient3" x1="642.5" y1="1578" x2="1034.5" y2="1737.4" xlink:href="#linear-gradient"/>
    <radialGradient id="radial-gradient1" cx="268.1" cy="1300.9" fx="268.1" fy="1300.9" r="45.1" gradientTransform="translate(0 -796)" xlink:href="#radial-gradient"/>
    <radialGradient id="radial-gradient2" cx="511.9" cy="1624.5" fx="511.9" fy="1624.5" r="54.1" xlink:href="#radial-gradient"/>
    <radialGradient id="radial-gradient3" cx="511.5" cy="1624.1" fx="511.5" fy="1624.1" r="54.4" xlink:href="#radial-gradient"/>
    <linearGradient id="linear-gradient4" x1="519.9" y1="1654.2" x2="494.9" y2="1593.6" gradientTransform="translate(-242.5 -1193.5)" gradientUnits="userSpaceOnUse">
      <stop offset="0" stop-color="#fff"/>
      <stop offset="1" stop-color="#fff" stop-opacity="0"/>
    </linearGradient>
    <linearGradient id="linear-gradient5" x1="472.6" y1="1683.6" x2="454.7" y2="1640.2" xlink:href="#linear-gradient4"/>
  </defs>
  <path class="st5" d="M391.3,622.3c-1-.6-2-.9-3-1.1-2.4-.6-3.5-1.2-3.5-2s.9-1.6,2.8-1.6,2.8.3,4.1,1v-2.5c-1.2-.4-2.5-.6-3.7-.6s-2.6.2-3.7.8c-1.1.6-1.9,1.9-1.8,3.2,0,1.2.6,2.3,1.5,2.9.7.3,1.5.6,2.3.8.9.2,1.8.5,2.7.8.9.4,1.4.8,1.4,1.4,0,1.3-1.1,2-3.2,2s-3.3-.5-4.7-1.5c.2.9.3,1.9.3,2.8,1.5.6,3,.9,4.6.8,1.3,0,2.6-.2,3.8-.9,1.1-.7,1.7-2,1.7-3.4,0-1.1-.5-2.1-1.5-2.8Z"/>
  <path class="st5" d="M404.4,615.7l-6.6,13.3h2.6l1.1-2.4h7.8l1.3,2.6h3l-6.5-13.4h-2.8ZM402.6,624.5l3-6,2.9,6h-5.9Z"/>
  <path class="st5" d="M429.2,623v2.2c-.2.7-.7,1.3-1.4,1.6-.5.2-1.1.3-1.7.3-.9.1-1.8-.2-2.5-.7-.6-.7-.9-1.6-.8-2.5v-7.9h-2.8v8.3c0,3.5,2,5.2,6,5.2s5.9-1.7,5.9-5.2v-8.3h-2.5s-.1,7.1-.1,7.1Z"/>
  <path class="st5" d="M445.3,615.9h-5.6v13.1h6c1.8.1,3.5-.5,5-1.6,1.4-1.2,2-3,1.9-4.8.1-1.9-.6-3.7-2-5-1.5-1.2-3.4-1.9-5.3-1.7ZM445.3,626.6h-3.2v-8.2h3c2.9,0,4.3,1.2,4.3,4.1.3,2-1.1,3.8-3,4.1h-.8s-.2,0-.2,0Z"/>
  <rect class="st5" x="459.2" y="615.9" width="2.8" height="13.1"/>
  <path class="st5" d="M483.2,625.8c-1-1-1.5-2.3-1.4-3.7,0-1.2.5-2.4,1.3-3.3,1-.8,2.2-1.2,3.4-1.2,1.5,0,3,.4,4.3,1.1v-2.6c-1.5-.5-2.9-.7-4.4-.7-1.9-.1-3.8.5-5.2,1.7-1.4,1.4-2.1,3.2-2,5.1,0,1,.2,1.9.5,2.8,1.1,2.9,4,4.6,7,4.2,1.5,0,3-.2,4.4-.7,0-1,.1-1.9.3-2.8-1.4.8-2.9,1.3-4.5,1.3-1.4.1-2.8-.3-3.8-1.3Z"/>
  <path class="st5" d="M504.1,615.3c-1.9,0-3.7.6-5,1.9-2.5,2.9-2.5,7.1,0,10.1,2.9,2.6,7.1,2.6,10,0,1.3-1.4,1.9-3.2,1.9-5,0-1.9-.6-3.7-1.9-5.1-1.4-1.3-3.2-2-5-1.9ZM507.1,625.4c-1.5,1.7-4.1,1.8-5.8.3l-.3-.3c-.7-.9-1.1-2-1.1-3.2,0-1.2.3-2.3,1.1-3.2,1.6-1.7,4.3-1.7,6-.1h.1c.7,1,1.1,2.1,1,3.3.1,1.2-.3,2.4-1,3.3,0,0,0-.2,0-.2Z"/>
  <path class="st5" d="M527.1,623c.1.7.1,1.5,0,2.2-.2.7-.7,1.3-1.4,1.6-.6.2-1.1.3-1.7.3-.9,0-1.9-.2-2.6-.7-.6-.7-.9-1.6-.8-2.5v-7.9h-2.7v8.3c0,3.5,2,5.2,5.9,5.2s6-1.7,6-5.2v-8.3h-2.5s-.2,7.1-.2,7.1Z"/>
  <polygon class="st5" points="547.9 625.2 539.9 615.9 537.3 615.9 537.3 629 539.9 629 539.9 619.6 547.9 629 550.5 629 550.5 615.9 547.9 615.9 547.9 625.2"/>
  <path class="st5" d="M561.4,625.8c-1-1-1.4-2.3-1.4-3.7,0-1.2.4-2.4,1.2-3.3,1-.8,2.2-1.2,3.4-1.2,1.5,0,3,.4,4.4,1.1,0-.6,0-1.1,0-1.6v-1c-1.4-.5-2.9-.8-4.4-.8-1.9,0-3.8.6-5.2,1.7-1.4,1.4-2.1,3.2-2,5.1,0,1,.2,1.9.5,2.8,1.1,2.9,4.1,4.6,7.1,4.2,1.5,0,3-.2,4.4-.7,0-1,.1-1.9.3-2.8-1.4.8-2.9,1.3-4.4,1.3-1.4.2-2.8-.2-3.9-1.1Z"/>
  <rect class="st5" x="576.3" y="615.9" width="2.8" height="13.1"/>
  <polygon class="st5" points="589.5 615.9 586.8 615.9 586.8 629 596.1 629 596.1 626.6 589.5 626.6 589.5 615.9"/>
  <path class="st5" d="M618.9,615.3c-1.9,0-3.7.6-5,1.9-2.5,2.9-2.5,7.1,0,10.1,2.9,2.6,7.1,2.6,10,0,1.3-1.4,1.9-3.2,1.9-5,0-1.9-.6-3.7-1.9-5.1-1.4-1.3-3.2-2-5-1.9ZM622,625.4c-.7.9-1.9,1.4-3,1.4-1.2,0-2.3-.5-3-1.4s-1.1-2-1.1-3.2c0-1.2.3-2.3,1-3.2.8-.9,1.9-1.4,3.1-1.3,1.2,0,2.3.4,3,1.3s1.1,2,1,3.2c.1,1.2-.3,2.4-1,3.3v-.2Z"/>
  <polygon class="st5" points="632.6 629 635.3 629 635.3 623.5 640.5 623.5 640.5 621.3 635.3 621.3 635.3 618.1 641.4 618.1 641.4 615.9 632.6 615.9 632.6 629"/>
  <polygon class="st5" points="661.2 623.2 666.4 623.2 666.4 621 661.2 621 661.2 618 667.2 618 667.2 615.9 658.5 615.9 658.5 629 667.5 629 667.5 626.8 661.2 626.8 661.2 623.2"/>
  <polygon class="st5" points="685.1 625.2 677.2 615.9 674.5 615.9 674.5 629 677.2 629 677.2 619.6 685.1 629 687.7 629 687.7 615.9 685.1 615.9 685.1 625.2"/>
  <path class="st5" d="M702.6,624.8h2.8v1.8c-1,.3-1.9.5-2.9.5s-2.6-.4-3.7-1.2c-1-.9-1.6-2.2-1.5-3.5-.1-1.3.3-2.5,1.2-3.4,1-.9,2.3-1.4,3.5-1.3,1.8.1,3.6.6,5.2,1.5,0-.9,0-1.7,0-2.6-1.6-.7-3.3-1-5-1-2-.1-4,.5-5.6,1.7-1.5,1.3-2.3,3.2-2.2,5.2-.1,2,.7,3.9,2.3,5.2,1.6,1.3,3.6,1.9,5.6,1.8,1.9,0,3.8-.4,5.6-1.1v-5.6h-5.3v2.3h0Z"/>
  <rect class="st5" x="715.2" y="615.9" width="2.8" height="13.1"/>
  <polygon class="st5" points="736.2 625.2 728.3 615.9 725.6 615.9 725.6 629 728.2 629 728.2 619.6 736.2 629 738.8 629 738.8 615.9 736.2 615.9 736.2 625.2"/>
  <polygon class="st5" points="749.3 623.2 754.4 623.2 754.4 621 749.3 621 749.3 618 755.2 618 755.2 615.9 746.5 615.9 746.5 629 755.6 629 755.6 626.8 749.3 626.8 749.3 623.2"/>
  <polygon class="st5" points="765.3 623.2 770.5 623.2 770.5 621 765.3 621 765.3 618 771.3 618 771.3 615.9 762.6 615.9 762.6 629 771.7 629 771.7 626.8 765.3 626.8 765.3 623.2"/>
  <path class="st5" d="M789,626.2c-.3-.6-.6-1.2-1-1.7-.5-.5-1-.8-1.6-1,1.9-.1,3.3-1.7,3.2-3.5h0c.1-1.4-.5-2.6-1.6-3.3-1.1-.5-2.4-.8-3.7-.7h-5.6v13.1h2.8v-4.9h1.5c.4-.1.8-.1,1.2,0,.8.3,1.9,2,3,4.7h3.4c-.2-.3-.4-.6-.6-1-.4-.6-.7-1.1-1.1-1.7ZM784.2,622.1h-2.8v-3.9h3.2c.6,0,1.2,0,1.7.3.5.3.8.9.7,1.5,0,1.5-1,2.1-2.9,2.1h.1Z"/>
  <path class="st5" d="M804.9,622.3c-.9-.6-1.9-.9-3-1.1-2.4-.6-3.6-1.2-3.6-2s1-1.6,2.8-1.6,2.8.3,4.1,1v-2.5c-1.2-.4-2.4-.6-3.7-.6s-2.6.2-3.8.8c-1.1.6-1.8,1.9-1.7,3.2,0,1.1.5,2.3,1.5,2.9.7.3,1.5.6,2.3.8.9.2,1.8.5,2.7.8.9.4,1.3.8,1.3,1.4s-1,2-3.1,2-3.3-.5-4.7-1.5c0,1,0,1.9,0,2.8,1.5.6,3.1.9,4.7.8,1.3,0,2.6-.2,3.8-.9,1.1-.7,1.7-2,1.7-3.4.1-1.1-.4-2.1-1.3-2.8h0Z"/>
  <path class="st5" d="M391.5,579.5c1.2,0,1.9-.7,1.9-2s-.6-2-1.9-2-1.9.7-1.9,2,.6,2,1.9,2Z"/>
  <path class="st5" d="M413.5,597.7c-1.3,0-1.9.7-1.9,2s.6,2,1.9,2,1.9-.6,1.9-2-.6-2-1.9-2Z"/>
  <path class="st5" d="M409.8,599.7c0-1.4-.6-2-1.9-2s-1.9.7-1.9,2,.6,2,1.9,2,1.9-.6,1.9-2Z"/>
  <path class="st5" d="M443.6,578.9h-3v14.7h-2.3c-1.1,0-2.1-.4-2.8-1.1-.7-.8-1.1-1.8-1.1-2.9v-8h-3v11.9h-2.3c-1.1,0-2.1-.4-2.8-1.1-.7-.8-1.1-1.8-1.1-2.9v-7.9h-3v11.9h-5.6c-1,0-1.9-.3-2.6-1s-1.1-1.6-1-2.5v-11.3h-3.2v14.7h-4.8c-1,0-1.9-.3-2.6-1-.7-.7-1-1.6-1-2.5v-11.3h-3.1v17.6c.2,2.9-1.9,5.4-4.8,5.7h-3.2c-1.4,0-2.6-.6-3.5-1.6-.8-1.4-1.3-2.9-1.2-4.5,0-2.6.3-5.3,1.2-7.8h-3c-1,2.5-1.5,5.2-1.5,8-.1,2.3.6,4.6,2,6.4,1.3,1.6,3.3,2.4,5.3,2.4h2.6c4.3.6,8.4-2.4,9-6.7.1-.7.1-1.4,0-2.1v-1.9c.7,1.3,2,2.1,3.4,2h8.2v-2.1c.8,1.5,2.4,2.3,4.1,2.1h8.5v-2.1c.8,1.5,2.4,2.3,4.1,2.1h5.2v-2.1c.8,1.5,2.4,2.3,4.1,2.1h5.2l-.2-17h0Z"/>
  <path class="st5" d="M472.6,575.5c1.2,0,1.9-.7,1.9-2s-.6-2-1.9-2-1.9.7-1.9,2,.6,2,1.9,2Z"/>
  <path class="st5" d="M547.8,593.5h-5.6c-1,0-1.9-.3-2.6-1s-1.1-1.6-1-2.5v-21.1h-3.2v24.6h-10.5c1-.7,1.7-1.6,2.1-2.7.5-1.1.8-2.4.8-3.7.1-2.4-.7-4.7-2.3-6.4-1.6-1.6-3.8-2.4-6-2.3-2.4-.1-4.6,1-6.1,2.8-1.6,1.9-2.5,4.4-2.4,6.9-.1,2,.3,3.9,1.2,5.6h-8.1v-8.8c.2-3.3-1-6.5-3.2-8.9-2.5-2.3-5.7-3.4-9.1-3.2-2.5,0-5.1.3-7.5,1.1l.8,2.8c2.1-.7,4.4-1,6.6-1,2.5-.2,5.1.6,7,2.4,1.6,2,2.5,4.6,2.3,7.1v8.6h-5.6v-12.9h-4c-2.6-.2-5.1.6-7.3,2-1.7,1.4-2.7,3.4-2.6,5.6-.2,2.1.8,4.1,2.5,5.2h-6.4c-1,0-1.9-.3-2.6-1s-1-1.6-1-2.5v-11.3h-3.2v14.7h-4.8c-1,0-2-.5-2.7-1.1-.8-.6-1.4-1.5-1.6-2.4-.8-5.3-4.1-9.8-8.8-12.3l-1.2,2.8c4.6,2.8,7.4,7.7,7.7,13.1h-12v2.8h15.1v-2c.7,1.2,2,1.9,3.4,2h8.2v-2.1c.8,1.5,2.4,2.3,4.1,2.1h60.4v-2.1c.8,1.4,2.4,2.3,4.1,2.1h8.3v-27.4h-3.3v24.5h0ZM492.8,593.5h-3c-1.4,0-2.7-.5-3.7-1.4-1-1-1.4-2.3-1.4-3.7,0-3.3,2.2-5,6.5-5h1.5s0,10.1,0,10.1ZM523.2,591.8c-1.1,1.2-2.6,1.9-4.2,1.7h-3.3c-1-1.7-1.5-3.7-1.3-5.6-.1-1.8.5-3.5,1.5-5,1.7-2.1,4.8-2.5,6.9-.8.2.1.3.3.5.5,1,1.2,1.5,2.7,1.4,4.3.2,1.8-.4,3.5-1.5,5Z"/>
  <path class="st5" d="M571.2,575.5c1.3,0,1.9-.7,1.9-2s-.6-2-1.9-2-1.9.7-1.9,2,.6,2,1.9,2Z"/>
  <path class="st5" d="M576.8,575.5c1.2,0,1.9-.7,1.9-2s-.6-2-1.9-2-1.9.7-1.9,2,.6,2,1.9,2Z"/>
  <path class="st5" d="M589.3,599.7c0-1.4-.6-2-1.9-2s-1.9.7-1.9,2,.6,2,1.9,2,1.9-.6,1.9-2Z"/>
  <path class="st5" d="M592.4,578.9h-3.2v14.7h-8.5v-14.7h-5.6c-2.6-.1-5.2.8-7.1,2.5-1.9,1.7-2.8,4.3-2.7,6.8-.3,4.2,2.8,7.9,6.9,8.2h20.1s.2-17.5.2-17.5ZM577.7,593.5h-4.2c-3.3,0-4.9-1.9-4.9-5.6-.1-1.7.5-3.5,1.7-4.7,1.4-1.2,3.2-1.8,5-1.7h2.3v12Z"/>
  <path class="st5" d="M591.1,599.7c0,1.4.6,2,1.9,2s1.9-.6,1.9-2-.6-2-1.9-2-1.9.7-1.9,2Z"/>
  <path class="st5" d="M601.9,577.7l-1.2,2.8c4.6,2.8,7.4,7.7,7.7,13.1h-12v2.8h15.1v-2.8c-1.5-8.7-4.7-14-9.6-15.9Z"/>
  <path class="st5" d="M689,593.5h-4.8c-1,0-1.9-.3-2.6-1-.7-.7-1.1-1.6-1-2.5v-11.3h-3v14.7h-2.3c-1.1,0-2.1-.4-2.8-1.1-.7-.8-1.1-1.8-1.1-2.9v-7.9h-3v11.9h-2.4c-1.1,0-2.1-.4-2.8-1.1-.7-.8-1.1-1.8-1.1-2.9v-7.9h-3v11.9h-9.2c-1.4,0-2.7-.3-4-.8,2.1-1.4,3.7-3.4,4.7-5.6,1.1-2.3,1.7-4.7,1.7-7.2-2.3-1.6-5.1-2.5-7.9-2.3-2,0-3.9.5-5.6,1.2-1.7.7-3.2,2-4.3,3.5.4,2,1.1,3.9,2.3,5.6,1,1.7,2.4,3.3,4,4.6-1.4.5-2.8.7-4.3.7h-6.8v-14.7h-4.7c-2.6-.1-5.2.8-7.1,2.5-1.9,1.7-2.8,4.3-2.7,6.8-.2,2.3.6,4.4,2.1,6.1,1.6,1.5,3.8,2.3,6,2.1h3.5v1c0,1.4-.5,2.6-1.4,3.5-1.1.9-2.4,1.4-3.8,1.3-1.8,0-3.5-.6-5.1-1.5l-1.5,2.4c1.9,1.2,4.2,1.9,6.5,1.9,2.3.1,4.4-.6,6.1-2.1,1.5-1.5,2.3-3.5,2.2-5.6v-.8h6.8c2.4,0,4.7-.6,6.7-1.8,2,1.1,4.3,1.7,6.7,1.8h12v-2.1c.8,1.5,2.4,2.3,4.1,2.1h5.6v-2.1c.8,1.5,2.4,2.3,4.1,2.1h5.2v-2.1c.7,1.2,2,2,3.4,2h8.2v-27.4h-3.2l-.2,24.9h0ZM627.1,593.5h-3.4c-3.3,0-5-1.9-5-5.6-.1-1.7.5-3.5,1.7-4.7,1.4-1.2,3.2-1.8,5-1.7h1.6v12ZM643.7,591.2c-2.7-1.9-4.6-4.7-5.3-7.9.8-.8,1.8-1.5,2.9-2,1.1-.6,2.4-.8,3.7-.8,1.6-.1,3.1.2,4.4,1-.2,4-2.4,7.6-5.9,9.7,0,0,.2,0,.2,0Z"/>
  <rect class="st5" x="698.3" y="568.9" width="3.2" height="27.4"/>
  <path class="st5" d="M727.3,575.5c1.2,0,1.9-.7,1.9-2s-.6-2-1.9-2-1.9.7-1.9,2,.6,2,1.9,2Z"/>
  <path class="st5" d="M721.8,575.5c1.2,0,1.9-.7,1.9-2s-.6-2-1.9-2-1.9.7-1.9,2,.6,2,1.9,2Z"/>
  <path class="st5" d="M744.7,575.4v-1.8l-3,.4h-.6c-.7-.3-1.1-1-1.1-1.7,0-1.2.6-1.9,1.9-1.9s1.2.2,1.8.5l.5-1.6c-.7-.4-1.5-.6-2.4-.6s-1.9.2-2.7.8c-.6.6-1,1.5-1,2.4,0,.9.5,1.8,1.2,2.3h-1.7v1.6l3.7-.5h3.3Z"/>
  <path class="st5" d="M756,597.7c-1.2,0-1.9.7-1.9,2s.6,2,1.9,2,1.9-.6,1.9-2-.5-2-1.9-2Z"/>
  <path class="st5" d="M752.5,599.7c0-1.4-.7-2-1.9-2s-1.9.7-1.9,2,.6,2,1.9,2c1,.1,1.8-.6,1.9-1.6v-.4Z"/>
  <path class="st5" d="M789.7,596.3h7.3v-27.4h-3.2v24.6h-8.4v-8.8c.2-3.3-1-6.5-3.2-8.9-2.5-2.3-5.7-3.4-9.1-3.2-2.5,0-5.1.3-7.5,1.1l.8,2.8c2.1-.7,4.4-1,6.6-1,2.5-.2,5.1.6,7,2.4,1.6,2,2.5,4.6,2.3,7.1v8.6h-5.6v-12.9h-4.3c-2.6-.2-5.2.6-7.3,2-1.7,1.4-2.7,3.4-2.6,5.6-.2,2.1.8,4.1,2.5,5.2h-6.2c-1,.2-2,0-2.8-.7-.7-.7-1-1.6-1-2.5v-11.3h-3.2v14.7h-5.6c-1,0-1.9-.3-2.6-1s-1.1-1.6-1-2.5v-11.3h-3.2v14.7h-8.2v-14.7h-5.6c-2.6-.1-5.2.8-7.1,2.5-1.9,1.7-2.8,4.3-2.7,6.8-.3,4.2,2.8,7.9,6.9,8.2h20.1v-2.1c.8,1.4,2.4,2.3,4.1,2.1h8.3v-2.1c.8,1.5,2.4,2.3,4.1,2.1h30.6q0-.1,0-.1ZM728.2,593.5h-4.1c-3.3,0-5-1.9-5-5.6-.1-1.7.5-3.5,1.7-4.7,1.4-1.2,3.2-1.8,5-1.7h2.3v12ZM773.9,593.5h-3c-1.4,0-2.6-.5-3.6-1.4s-1.5-2.3-1.4-3.7c0-3.3,2.2-5,6.5-5h1.5s0,10.1,0,10.1Z"/>
  <rect class="st5" x="803.1" y="568.9" width="3.2" height="27.4"/>
  <path class="st4" d="M487,533.4c-11.6,7.8-27.6,11.6-47.5,11.6-19.9.5-39.7-3.2-58.1-10.7-.2-11.7-1.4-23.4-3.4-34.9,17.1,12.4,37.7,19,58.9,18.7,26.1,0,39.4-8.2,39.4-24.4s-5.6-12.4-16.9-17.2c-11.1-4.2-22.4-7.8-34-10.5-9.9-2.1-19.5-5.4-28.6-9.9-12.2-7.8-19.4-21.5-18.7-35.9-.9-16.4,7.9-31.8,22.5-39.4,14.5-7.2,30.7-10.6,46.9-9.9,15.8.1,31.4,2.4,46.5,6.8,0,8.4.6,19.1,1.9,32-15.9-8.1-33.5-12.2-51.3-11.8-23.7,0-35.6,6.7-35.6,20s15,18.8,45,25.4c13.3,2.2,26.2,6.8,37.9,13.5,11.3,7.9,17.6,21.2,16.6,34.9-.3,18.8-7.3,32.9-21.4,41.9Z"/>
  <path class="st1" d="M676,536.2c-17.7,6.4-36.3,9.3-55.1,8.8-45.7,0-75.1-17.7-88.8-53.2-4.3-11.3-6.4-23.2-6.3-35.2,0-27.3,8.4-48.5,25.2-63.9,16.8-15.4,38.3-22.1,65.9-22.1s37.8,2.9,55.9,8.6c0,5.6-.4,9.7-.4,12.4,0,7,.7,14,2.1,20.8-16.9-9.2-35.7-14.3-54.9-14.7-15.7-.7-31.1,4.8-42.7,15.4-11,11-16.9,26.1-16.2,41.7-1,17,5.3,33.5,17.3,45.6,12.7,11.5,29.4,17.5,46.5,16.6,19.9-.5,39.2-6.2,56.3-16.4-2.6,11.7-4.2,23.6-4.7,35.6h0Z"/>
  <path class="st0" d="M809.3,403.8c-1.2-11-1.7-22.2-1.7-33.2h-109.4l34.5,27.1s56.1-3.9,76.6,6.1Z"/>
  <path class="st3" d="M774.4,471.3v-27.1c-30.7,0-76.1,13.6-76.1,13.6,0,0,45.1,13.6,76.1,13.6Z"/>
  <path class="st2" d="M809.3,511.7c-1.2,11-1.7,22.1-1.7,33.2h-109.4l34.5-27.1s56.1,3.9,76.6-6.1Z"/>
  <polygon class="st6" points="334 463.5 347.4 443.4 269.1 498 190.7 443.4 204.1 463.5 255.6 507.3 201.6 544.9 238.2 544.9 269.1 518.8 299.9 544.9 336.6 544.9 282.5 507.3 334 463.5"/>
  <path class="st8" d="M317.2,418.4c.1-1.5.1-3.1,0-4.6-15.8-10.9-26.8-13.5-38.7-12.8,11.3-3.4,23.1-4.4,34.7-3.1-2.8-6.5-7-12.4-12.3-17.2-10.4,2.1-19.8,7.5-27.1,15.2,3.7-7.1,6.6-14.7,8.5-22.5-8.6-2.5-17.6-2.5-26.1,0,1.9,7.8,4.8,15.4,8.5,22.5-7.3-7.7-16.7-12.9-27-15.1-5.2,4.8-9.5,10.7-12.3,17.2,11.7-1.4,23.5-.3,34.8,3.1-12-.7-23,1.9-38.8,12.8v4.6c0,6.1,1.1,12.2,3.2,17.8,10.3-10.2,21.5-19.5,33.5-27.7-13.6,10.6-22.3,26.3-24.2,43.4,5.3,6.1,12.1,10.9,19.7,13.7,1.2-19.3,5.4-38.3,12.5-56.3.3,22.1-2.5,58.7-3.6,76.5l7,4.9,6.8-4.7c-1.1-17.6-3.9-54.5-3.6-76.6,7.1,18,11.3,37,12.5,56.3,7.7-2.8,14.4-7.5,19.7-13.7-1.9-17.2-10.7-32.8-24.2-43.4,12,8.2,23.2,17.5,33.5,27.7,2-5.7,3-11.8,2.9-17.9Z"/>
  <path class="st7" d="M317.2,418v-4.6c-15.8-10.9-26.9-13.6-38.9-12.8,11.3-3.4,23.2-4.4,34.9-3.1-2.8-6.6-7-12.5-12.3-17.3-10.4,2.2-19.8,7.4-27.1,15.1,3.8-7.2,6.6-14.9,8.6-22.8-8.6-2.5-17.7-2.5-26.2,0,1.9,7.9,4.8,15.6,8.5,22.8-7.3-7.7-16.7-13-27.1-15.1-5.3,4.8-9.5,10.7-12.3,17.3,11.7-1.4,23.6-.3,34.9,3.1-12-.7-23.1,1.9-38.9,12.8-.1,1.5-.1,3.1,0,4.6,0,6.1,1.1,12.2,3.2,17.9,10.4-10.3,21.7-19.6,33.8-27.8-13.6,10.7-22.4,26.4-24.3,43.6,5.3,6.2,12.2,10.9,19.9,13.7,1.2-19.4,5.4-38.5,12.5-56.6,0,22.1-2.5,59-3.6,76.8l7,4.9,6.8-4.8c-1.1-17.7-3.9-54.7-3.7-76.9,7.1,18.1,11.4,37.2,12.6,56.6,7.7-2.8,14.5-7.5,19.8-13.7-1.9-17.2-10.7-32.9-24.3-43.6,12.1,8.3,23.3,17.6,33.8,27.8,1.9-5.8,2.7-11.9,2.5-17.9Z"/>
  <path class="st9" d="M277.8,400.5c5-1,10.4-2.4,16.3-3.3-.6-1.2-1.4-2.4-2.2-3.4-2.3-2.9-5.2-5.2-8.6-6.8-3.7,2.3-7,5.1-10,8.2,1.8-3.3,3.3-6.6,4.6-10.1-6.1-1.4-12.4-1.7-18.7-.8,1.4,3.8,3,7.4,4.9,10.9-3.5-3.8-7.7-7-12.3-9.6-9.1,2.1-17.9,5.5-26.3,9.8l-.8,1.9c11.7-1.4,23.6-.3,34.9,3.1-12-.7-23.1,1.9-38.9,12.8-.1,1.5-.1,3.1,0,4.6,0,6.1,1.1,12.2,3.2,17.9,10.4-10.3,21.7-19.6,33.8-27.8-13.6,10.7-22.4,26.4-24.3,43.6,5.3,6.2,12.2,10.9,19.9,13.7,1.2-19.4,5.4-38.5,12.5-56.6,0,16.4-1.2,40.8-2.5,59.7,3.8-3.5,7.4-7.3,10.9-11.3-1-16.6-2-35.3-1.8-48.7,4.8,12.2,8.4,24.9,10.5,37.8,5.1-7,9.1-14.7,11.9-23-3.8-6-8.7-11.3-14.3-15.6,5.3,3.5,10.5,7.3,15.5,11.3,1.5-5.5,1.6-11.3.5-16.9-6.1-1.8-12.4-2.4-18.7-1.7Z"/>
  <path class="st10" d="M204.7,463.9l30.2,25.6c4.1-2.2,7.9-4.6,11.7-7.3l-55.1-38.4s13.3,20,13.3,20Z"/>
</svg>