<svg xmlns="http://www.w3.org/2000/svg" xmlns:xlink="http://www.w3.org/1999/xlink" version="1.1" id="Layer_1" x="0px" y="0px" viewBox="0 0 1000 1000" style="enable-background:new 0 0 1000 1000;" xml:space="preserve" width="1000"  height="1000" >
<style type="text/css">
	.st0{fill:#7E8080;}
	.st1{fill:url(#SVGID_1_);}
	.st2{fill:url(#SVGID_00000042730421105091750060000017223913806631610757_);}
	.st3{fill:#00A4D6;}
	.st4{fill:#0067B1;}
</style>
<g>
	<g>
		<path class="st0" d="M223.37,697.3l-4.21-0.78c-1.67-0.29-2.84-0.69-3.53-1.18c-0.59-0.39-0.88-1.08-0.88-1.86    c0-0.49,0.1-0.88,0.29-1.27c0.2-0.39,0.39-0.69,0.78-0.88c0.39-0.29,0.98-0.49,1.67-0.69c1.47-0.29,3.92-0.29,5.68,0    c0.88,0.2,1.76,0.39,2.45,0.69c0.69,0.29,1.27,0.49,1.67,0.88c0.49,0.29,0.78,0.59,0.98,0.78l0.29,0.29l0.39-0.29    c0.39-0.2,0.69-0.59,1.08-1.18c0.39-0.59,0.59-1.18,0.59-1.86c0-0.59-0.2-0.98-0.49-1.47c-0.29-0.39-0.69-0.69-1.08-0.98    c-0.2-0.1-0.49-0.29-0.98-0.59c-0.49-0.2-1.08-0.49-1.76-0.69c-0.69-0.2-1.57-0.39-2.65-0.59c-0.98-0.2-2.25-0.2-3.63-0.2    c-1.86,0-3.53,0.2-4.9,0.69c-1.37,0.39-2.55,0.98-3.43,1.76c-0.88,0.78-1.57,1.67-1.96,2.65c-0.39,0.98-0.59,2.06-0.59,3.23    c0,1.27,0.29,2.35,0.78,3.23c0.49,0.88,1.18,1.67,1.96,2.25c0.78,0.59,1.67,1.08,2.74,1.47c0.98,0.39,2.06,0.59,3.14,0.78    l4.12,0.78c0.69,0.1,1.37,0.29,1.96,0.39c0.49,0.2,0.98,0.39,1.37,0.59c0.29,0.2,0.59,0.49,0.78,0.88    c0.2,0.29,0.29,0.78,0.29,1.18c0,0.98-0.39,1.76-1.18,2.25c-0.88,0.59-2.35,0.88-4.41,0.88c-1.18,0-2.35-0.1-3.33-0.29    c-0.98-0.2-1.86-0.39-2.74-0.69c-0.78-0.29-1.47-0.59-1.96-0.78c-0.49-0.29-0.88-0.49-1.18-0.69l-0.49-0.29l-2.45,4.41l0.39,0.29    c0.29,0.2,0.78,0.49,1.47,0.88c0.69,0.39,1.47,0.69,2.55,1.08c0.98,0.39,2.16,0.69,3.43,0.88c1.27,0.2,2.74,0.39,4.21,0.39    c1.76,0,3.43-0.2,4.8-0.59c1.37-0.39,2.65-0.98,3.63-1.67c0.98-0.78,1.76-1.67,2.25-2.65c0.49-0.98,0.78-2.16,0.78-3.43    c0-2.25-0.78-4.12-2.25-5.29C228.27,698.68,226.11,697.79,223.37,697.3"/>
		<path class="st0" d="M260.41,689.56c-1.27-1.27-2.74-2.25-4.51-2.94c-3.43-1.37-7.74-1.37-11.17,0c-1.76,0.69-3.23,1.67-4.51,2.94    c-1.27,1.27-2.25,2.74-3.04,4.41c-0.69,1.67-1.08,3.53-1.08,5.59c0,1.96,0.39,3.82,1.08,5.59c0.69,1.67,1.76,3.23,3.04,4.41    c1.27,1.27,2.74,2.25,4.51,2.94c1.76,0.69,3.63,1.08,5.59,1.08c1.96,0,3.92-0.39,5.59-1.08c1.76-0.69,3.23-1.67,4.51-2.94    c1.27-1.27,2.25-2.74,3.04-4.41c0.69-1.67,1.08-3.53,1.08-5.59c0-1.96-0.39-3.82-1.08-5.59    C262.67,692.31,261.69,690.84,260.41,689.56 M258.85,699.56c0,1.27-0.2,2.55-0.69,3.63c-0.39,1.08-1.08,2.06-1.76,2.84    c-0.78,0.78-1.67,1.37-2.65,1.86c-2.06,0.88-4.7,0.88-6.76,0c-0.98-0.49-1.96-1.08-2.74-1.86c-0.78-0.78-1.37-1.76-1.76-2.84    s-0.69-2.25-0.69-3.63c0-1.27,0.2-2.55,0.69-3.63c0.39-1.08,0.98-2.06,1.76-2.84c0.78-0.78,1.67-1.37,2.74-1.86    c1.08-0.39,2.16-0.69,3.43-0.69c1.18,0,2.35,0.2,3.43,0.69c0.98,0.39,1.96,1.08,2.65,1.86c0.78,0.78,1.37,1.76,1.76,2.84    C258.55,697.11,258.85,698.28,258.85,699.56"/>
		<path class="st0" d="M289.62,706.62l-0.49,0.29c-0.49,0.29-1.27,0.69-2.35,1.08c-1.08,0.39-2.35,0.59-3.92,0.59    c-1.27,0-2.45-0.2-3.53-0.59c-1.08-0.39-2.06-0.98-2.84-1.67c-0.78-0.69-1.47-1.67-1.86-2.74c-0.49-1.08-0.69-2.35-0.69-3.82    c0-1.47,0.2-2.74,0.69-3.82c0.39-1.08,1.08-2.06,1.76-2.84c0.78-0.78,1.67-1.37,2.65-1.76c1.76-0.69,3.92-0.78,5.68-0.39    c0.69,0.2,1.37,0.39,1.96,0.69c0.59,0.29,1.08,0.59,1.47,0.88c0.39,0.29,0.78,0.59,0.98,0.78l0.29,0.29l0.39-0.2    c0.2-0.1,0.39-0.29,0.59-0.49c0.2-0.2,0.39-0.39,0.69-0.69c0.2-0.29,0.39-0.59,0.59-0.88c0.2-0.39,0.29-0.78,0.29-1.18    c0-0.39-0.2-0.88-0.49-1.37c-0.29-0.49-0.78-1.08-1.57-1.57c-0.69-0.49-1.67-0.88-2.84-1.18c-1.18-0.29-2.74-0.49-4.51-0.49    c-1.96,0-3.72,0.29-5.49,0.98c-1.67,0.69-3.23,1.57-4.51,2.74c-1.27,1.18-2.35,2.74-3.04,4.51c-0.78,1.76-1.08,3.72-1.08,5.98    c0,2.25,0.39,4.21,1.18,5.98c0.78,1.77,1.86,3.23,3.14,4.41c1.27,1.18,2.84,2.06,4.51,2.65c1.67,0.59,3.53,0.88,5.39,0.88    c1.27,0,2.45-0.1,3.53-0.29c0.98-0.2,1.96-0.39,2.65-0.69c0.78-0.29,1.37-0.49,1.96-0.78c0.49-0.29,0.88-0.49,1.18-0.78l0.39-0.29    L289.62,706.62z"/>
		<path class="st0" d="M300.11,686.43c-0.49-0.1-0.98-0.2-1.47-0.2c-0.88,0-1.57,0.2-2.06,0.59c-0.59,0.39-0.78,1.08-0.78,1.96    v24.11h5.49v-26.07l-0.29-0.1C300.79,686.62,300.5,686.52,300.11,686.43"/>
		<path class="st0" d="M331.67,709.46c-0.49-1.27-1.08-2.74-1.76-4.41c-0.69-1.67-1.37-3.43-2.16-5.29    c-0.78-1.86-1.57-3.63-2.25-5.39c-0.78-1.67-1.47-3.23-2.06-4.61c-0.69-1.37-1.18-2.45-1.57-3.14l-0.1-0.1    c-0.1-0.1-0.1-0.1-0.39-0.2c-0.2-0.1-0.39-0.2-0.69-0.29c-0.29-0.1-0.59-0.2-0.88-0.29c-0.39-0.1-0.69-0.1-1.08-0.1    c-0.98,0-1.76,0.2-2.45,0.69c-0.69,0.49-1.18,1.18-1.76,2.25c-0.88,1.96-1.76,4.02-2.74,6.17c-0.88,2.06-1.76,4.21-2.65,6.17    c-0.88,2.06-1.67,4.02-2.45,5.98c-0.78,1.96-1.47,3.72-2.06,5.39l-0.29,0.69h5.59l0.1-0.29c0.29-0.78,0.59-1.76,1.08-2.94    c0.39-1.08,0.88-2.25,1.37-3.43h11.86c0.2,0.39,0.39,0.88,0.59,1.37c0.29,0.69,0.49,1.27,0.69,1.96l0.69,1.76    c0.2,0.59,0.39,0.98,0.49,1.27l0.1,0.29h5.98l-0.29-0.69C332.55,711.71,332.16,710.83,331.67,709.46 M322.46,701.32h-7.94    c0.29-0.78,0.59-1.47,0.88-2.25c0.39-0.98,0.88-2.06,1.27-3.04c0.39-0.98,0.88-1.96,1.27-2.84c0.2-0.49,0.39-0.98,0.59-1.37    c0.1,0.29,0.29,0.59,0.49,0.98c0.39,0.88,0.78,1.86,1.27,2.84c0.39,1.08,0.88,2.16,1.37,3.23    C321.87,699.75,322.26,700.54,322.46,701.32"/>
		<path class="st0" d="M341.66,686.82l-0.29-0.1c-0.1-0.1-0.39-0.1-0.78-0.29c-0.49-0.1-0.98-0.2-1.47-0.2    c-0.88,0-1.57,0.2-2.06,0.59c-0.59,0.39-0.78,1.08-0.78,1.96v24.11h18.62v-5.1h-13.23V686.82z"/>
		<path class="st0" d="M389.49,689.56c-1.37-1.18-3.04-2.06-5-2.74c-1.96-0.59-4.12-0.98-6.57-0.98c-1.67,0-3.04,0-4.12,0.1    c-1.08,0.1-1.96,0.2-2.65,0.39c-0.78,0.2-1.27,0.59-1.57,1.08c-0.29,0.49-0.49,1.08-0.49,1.86v23.72l0.39,0.1    c0.1,0,0.2,0,2.16,0.2c1.27,0.1,3.33,0.2,5.98,0.2c2.55,0,4.9-0.29,6.86-0.98c1.96-0.59,3.72-1.57,5.1-2.74    c1.37-1.18,2.45-2.65,3.14-4.41c0.69-1.67,1.08-3.63,1.08-5.68s-0.39-4.02-1.08-5.68C391.94,692.21,390.87,690.74,389.49,689.56     M388.02,699.56c0,2.74-0.88,5-2.55,6.47c-1.67,1.47-4.21,2.25-7.45,2.25c-1.18,0-2.06,0-2.65-0.1c-0.29,0-0.59-0.1-0.78-0.1    v-17.15c0.2,0,0.39,0,0.69-0.1c0.69-0.1,1.57-0.1,2.74-0.1c1.76,0,3.33,0.2,4.51,0.69c1.27,0.39,2.25,1.08,3.04,1.76    c0.78,0.78,1.37,1.67,1.76,2.74C387.83,697.11,388.02,698.28,388.02,699.56"/>
		<path class="st0" d="M418.21,691.33l0.2-0.29c0.1-0.1,0.2-0.39,0.39-0.88c0.2-0.49,0.29-0.98,0.29-1.47    c0-1.67-0.98-2.55-2.74-2.55h-14.41c-2.06,0-3.23,1.08-3.23,3.04v23.62h20.19v-5.1h-14.6v-5.98h13.33l0.2-0.2    c0.1-0.2,0.29-0.49,0.39-0.88c0.2-0.49,0.2-0.98,0.2-1.47c0-1.67-0.98-2.55-2.74-2.55H404.1v-5.39h14.11V691.33z"/>
		<path class="st0" d="M446.93,686.62c-0.49-0.29-1.18-0.39-1.86-0.39c-0.98,0-1.67,0.2-2.16,0.69c-0.49,0.39-0.88,1.08-1.27,2.06    c-0.49,1.37-1.08,2.84-1.76,4.51c-0.69,1.67-1.27,3.33-1.96,5c-0.69,1.67-1.37,3.33-1.96,4.9c-0.49,1.18-0.88,2.16-1.37,3.14    c-0.59-1.27-1.18-2.65-1.76-4.02c-0.78-1.86-1.57-3.63-2.25-5.49c-0.78-1.86-1.47-3.63-2.06-5.29c-0.69-1.76-1.18-3.23-1.67-4.51    l-0.1-0.2l-0.2-0.1c-0.1-0.1-0.39-0.2-0.78-0.29c-0.39-0.2-0.98-0.29-1.57-0.29c-0.88,0-1.57,0.2-1.96,0.69    c-0.49,0.49-0.69,1.08-0.69,1.76c0,0.59,0.1,1.18,0.29,1.76c0.2,0.59,0.39,1.18,0.69,1.86c0.2,0.39,0.39,0.98,0.69,1.76    c0.29,0.78,0.69,1.76,1.18,2.84c0.49,1.08,0.98,2.35,1.57,3.63c0.59,1.27,1.18,2.65,1.76,4.02c0.59,1.37,1.27,2.74,1.96,4.12    c0.69,1.37,1.27,2.74,1.96,3.92l0.1,0.29h5.59l0.1-0.29c0.59-1.27,1.18-2.65,1.86-4.12c0.69-1.57,1.37-3.14,2.16-4.8    c0.69-1.67,1.47-3.33,2.16-5c0.69-1.67,1.37-3.23,1.96-4.61c0.59-1.47,1.08-2.74,1.57-3.82c0.39-1.08,0.78-1.96,0.98-2.45    l0.2-0.39l-0.39-0.2C447.71,687.01,447.42,686.92,446.93,686.62"/>
		<path class="st0" d="M471.04,691.33l0.2-0.29c0.1-0.1,0.2-0.39,0.39-0.88c0.2-0.49,0.29-0.98,0.29-1.47    c0-1.67-0.98-2.55-2.74-2.55h-14.41c-2.06,0-3.23,1.08-3.23,3.04v23.62h20.19v-5.1h-14.6v-5.98h13.43l0.2-0.2    c0.1-0.2,0.29-0.49,0.39-0.88c0.2-0.49,0.2-0.98,0.2-1.47c0-1.67-0.98-2.55-2.74-2.55h-11.57v-5.39h14.02V691.33z"/>
		<path class="st0" d="M482.31,686.82l-0.29-0.1c-0.1-0.1-0.39-0.1-0.78-0.29c-0.49-0.1-0.98-0.2-1.47-0.2    c-0.88,0-1.57,0.2-2.06,0.59c-0.59,0.39-0.78,1.08-0.78,1.96v24.11h18.72v-5.1h-13.33V686.82z"/>
		<path class="st0" d="M520.83,689.56c-1.27-1.27-2.74-2.25-4.51-2.94c-3.43-1.37-7.74-1.37-11.17,0c-1.76,0.69-3.23,1.67-4.51,2.94    c-1.27,1.27-2.25,2.74-3.04,4.41c-0.69,1.67-1.08,3.53-1.08,5.59c0,1.96,0.39,3.82,1.08,5.59c0.69,1.67,1.76,3.23,3.04,4.41    c1.27,1.27,2.74,2.25,4.51,2.94c1.67,0.69,3.63,1.08,5.59,1.08c1.96,0,3.92-0.39,5.59-1.08c1.76-0.69,3.23-1.67,4.51-2.94    c1.27-1.27,2.25-2.74,3.04-4.41c0.69-1.67,1.08-3.53,1.08-5.59c0-1.96-0.39-3.82-1.08-5.59    C523.18,692.31,522.1,690.84,520.83,689.56 M519.26,699.56c0,1.27-0.2,2.55-0.69,3.63c-0.39,1.08-1.08,2.06-1.76,2.84    c-0.78,0.78-1.67,1.37-2.65,1.86c-2.06,0.88-4.7,0.88-6.76,0c-1.08-0.49-1.96-1.08-2.74-1.86c-0.78-0.78-1.37-1.76-1.76-2.84    c-0.39-1.08-0.69-2.25-0.69-3.63c0-1.27,0.2-2.55,0.69-3.63c0.39-1.08,0.98-2.06,1.76-2.84c0.78-0.78,1.67-1.37,2.74-1.86    c1.08-0.39,2.16-0.69,3.43-0.69c1.18,0,2.35,0.2,3.43,0.69c0.98,0.39,1.96,1.08,2.65,1.86c0.78,0.78,1.37,1.76,1.76,2.84    C519.06,697.11,519.26,698.28,519.26,699.56"/>
		<path class="st0" d="M548.27,688.29c-2.06-1.67-5.1-2.45-9.21-2.45c-1.96,0-3.43,0-4.51,0.1c-1.08,0.1-1.86,0.2-2.25,0.29    c-0.69,0.1-1.18,0.39-1.67,0.78c-0.49,0.49-0.78,1.18-0.78,2.16v23.82h5.39v-9.12c0.29,0.1,0.69,0.1,1.18,0.1s0.98,0.1,1.47,0.1    c2.74,0.2,5.19-0.1,7.06-0.59c1.47-0.49,2.74-1.08,3.72-1.96c0.98-0.78,1.67-1.86,2.16-2.94c0.39-1.08,0.69-2.35,0.69-3.63    C551.41,692.21,550.33,689.95,548.27,688.29 M545.82,695.05c0,0.59-0.1,1.18-0.29,1.67c-0.2,0.49-0.49,0.98-0.98,1.37    c-0.49,0.39-1.18,0.69-1.96,0.98c-0.88,0.2-1.96,0.39-3.33,0.39c-1.27,0-2.25-0.1-3.04-0.2l-0.78-0.1h-0.2v-8.23    c0.2,0,0.49,0,0.88-0.1c0.69,0,1.67-0.1,2.84-0.1c1.47,0,2.65,0.1,3.53,0.39c0.88,0.29,1.57,0.59,2.06,0.98    c0.49,0.39,0.78,0.78,0.98,1.27C545.72,693.87,545.82,694.46,545.82,695.05"/>
		<path class="st0" d="M585.22,709.36c-0.1-1.27-0.1-2.74-0.2-4.41c-0.1-1.57-0.2-3.33-0.29-5.1l-0.49-9.41    c-0.1-1.37-0.1-2.35-0.2-3.04v-0.2l-0.1-0.1c-0.1-0.1-0.39-0.29-1.08-0.59c-0.59-0.2-1.27-0.29-2.06-0.29    c-0.88,0-1.67,0.2-2.35,0.69c-0.59,0.39-1.08,1.08-1.47,1.86c-0.29,0.59-0.69,1.47-1.27,2.65l-1.76,3.63    c-0.59,1.27-1.27,2.55-1.86,3.82c-0.39,0.88-0.78,1.57-1.18,2.25c-0.39-0.78-0.78-1.57-1.27-2.55c-0.69-1.37-1.37-2.84-2.16-4.21    l-3.33-6.76l-0.1-0.1c-0.29-0.29-0.69-0.49-1.18-0.78c-0.59-0.29-1.27-0.39-2.16-0.39c-0.78,0-1.57,0.2-2.16,0.69    c-0.69,0.49-1.08,1.27-1.08,2.25c-0.1,0.69-0.1,1.57-0.2,2.84c-0.1,1.18-0.2,2.55-0.2,4.12c-0.1,1.47-0.2,3.04-0.29,4.7    c-0.1,1.67-0.2,3.23-0.29,4.7c-0.1,1.47-0.2,2.84-0.2,4.12c-0.1,1.27-0.1,2.16-0.1,2.84v0.49h5.49v-0.49c0-0.59,0.1-1.37,0.1-2.35    l0.2-3.33c0.1-1.18,0.1-2.45,0.2-3.82c0.1-1.27,0.1-2.55,0.2-3.82c0.1-1.18,0.1-2.35,0.2-3.33v-0.59    c0.29,0.59,0.59,1.18,0.88,1.76c0.69,1.37,1.27,2.65,1.96,4.02c0.69,1.37,1.27,2.65,1.86,3.82c0.59,1.18,0.98,2.06,1.27,2.74    l0.1,0.29h4.31l0.1-0.29c0.2-0.49,0.49-1.08,0.88-1.86c0.39-0.78,0.78-1.57,1.18-2.45c0.39-0.88,0.88-1.86,1.37-2.74l1.37-2.74    c0.39-0.88,0.88-1.67,1.18-2.45l0.1-0.1l0.2,3.53c0.1,1.27,0.2,2.65,0.2,4.12c0.1,1.47,0.2,2.84,0.2,4.12    c0.1,1.27,0.1,2.45,0.2,3.43c0,0.98,0.1,1.67,0.1,2.06v0.49h5.39v-0.59C585.32,711.71,585.32,710.73,585.22,709.36"/>
		<path class="st0" d="M610.8,691.33l0.2-0.29c0.1-0.1,0.2-0.39,0.39-0.88c0.2-0.49,0.29-0.98,0.29-1.47c0-1.67-0.98-2.55-2.74-2.55    h-14.41c-2.06,0-3.23,1.08-3.23,3.04v23.62h20.19v-5.1h-14.6v-5.98h13.43l0.2-0.2c0.1-0.2,0.29-0.49,0.39-0.88    c0.2-0.39,0.2-0.98,0.2-1.47c0-1.67-0.98-2.55-2.74-2.55h-11.56v-5.39h14.02V691.33z"/>
		<path class="st0" d="M638.54,686.43c-0.39-0.1-0.98-0.2-1.47-0.2c-0.88,0-1.57,0.2-2.06,0.59s-0.78,1.08-0.78,1.96v14.8    c-0.29-0.49-0.69-0.98-0.98-1.47c-0.78-1.18-1.57-2.25-2.35-3.53l-2.45-3.63c-0.88-1.18-1.67-2.35-2.35-3.33    c-0.78-1.08-1.37-1.96-1.96-2.74c-0.59-0.78-0.98-1.27-1.27-1.57l-0.1-0.1c-0.2-0.1-0.49-0.29-0.98-0.59    c-0.49-0.29-1.18-0.39-1.96-0.39c-0.78,0-1.57,0.2-2.16,0.59c-0.69,0.49-1.08,1.27-1.08,2.25v23.82h5.49v-18.23    c0.39,0.59,0.78,1.08,1.18,1.76c0.78,1.08,1.57,2.25,2.45,3.43l4.8,7.15c0.78,1.18,1.47,2.16,2.06,3.14l1.76,2.74h5.29v-25.97    l-0.29-0.2C639.22,686.72,638.93,686.62,638.54,686.43"/>
		<path class="st0" d="M665.59,686.23h-21.66l-0.2,0.2c-0.1,0.1-0.2,0.39-0.39,0.88s-0.29,0.98-0.29,1.47    c0,1.67,0.98,2.55,2.74,2.55h6.96v21.66h5.49v-21.66h9.21l0.2-0.2c0.1-0.2,0.29-0.49,0.49-0.88c0.2-0.49,0.2-0.98,0.2-1.47    C668.33,687.11,667.35,686.23,665.59,686.23"/>
		<path class="st0" d="M701.46,699.07l0.29-0.29c0.39-0.29,0.78-0.78,1.18-1.27c0.29-0.49,0.59-1.08,0.88-1.76    c0.2-0.69,0.39-1.47,0.39-2.25c0-0.98-0.2-1.96-0.49-2.94c-0.39-0.98-0.98-1.76-1.86-2.55c-0.88-0.69-2.16-1.27-3.63-1.67    c-1.47-0.39-3.43-0.59-5.78-0.59c-2.16,0-3.72,0-4.8,0.1c-1.18,0.1-1.96,0.2-2.45,0.29c-0.59,0.1-1.18,0.39-1.67,0.78    c-0.49,0.49-0.78,1.18-0.78,2.16v23.82h0.49c0.1,0,0.49,0,0.98,0.1c0.59,0.1,1.27,0.1,2.06,0.1c0.78,0,1.76,0.1,2.84,0.1    c1.08,0,2.25,0.1,3.43,0.1c2.55,0,4.61-0.2,6.27-0.59c1.67-0.39,2.94-0.98,3.92-1.67c0.98-0.78,1.67-1.67,1.96-2.65    c0.39-0.98,0.49-2.06,0.49-3.14c0-1.67-0.39-3.14-1.27-4.21C703.13,700.15,702.34,699.56,701.46,699.07 M698.62,702.79    c0.29,0.29,0.59,0.59,0.69,0.98c0.1,0.39,0.2,0.78,0.2,1.27c0,0.59-0.1,1.08-0.29,1.47c-0.2,0.39-0.49,0.78-0.98,0.98    c-0.49,0.29-1.18,0.49-2.06,0.69c-0.88,0.2-1.96,0.2-3.23,0.2c-1.57,0-2.84,0-3.72-0.1c-0.59,0-0.98-0.1-1.18-0.1v-6.37h7.06    c0.88,0,1.67,0.1,2.25,0.29C697.83,702.21,698.23,702.5,698.62,702.79 M698.42,695.05c-0.1,0.39-0.39,0.69-0.69,0.88    c-0.29,0.29-0.78,0.49-1.27,0.69c-0.59,0.2-1.27,0.29-2.06,0.29h-6.47v-5.98c0.29,0,0.69-0.1,1.27-0.1c0.88-0.1,2.06-0.1,3.53-0.1    c1.18,0,2.16,0.1,2.94,0.29c0.78,0.2,1.37,0.39,1.86,0.69c0.39,0.29,0.69,0.59,0.88,0.98c0.2,0.39,0.29,0.78,0.29,1.27    C698.62,694.27,698.52,694.76,698.42,695.05"/>
		<path class="st0" d="M734.49,709.46c-0.49-1.27-1.08-2.74-1.76-4.41c-0.69-1.67-1.37-3.43-2.16-5.29    c-0.78-1.86-1.57-3.63-2.25-5.39c-0.78-1.67-1.47-3.23-2.06-4.61c-0.59-1.37-1.18-2.45-1.57-3.14l-0.1-0.1    c-0.1,0-0.1-0.1-0.39-0.2c-0.2-0.1-0.39-0.2-0.69-0.29c-0.29-0.1-0.59-0.2-0.88-0.29c-0.39-0.1-0.69-0.1-1.08-0.1    c-0.98,0-1.76,0.2-2.45,0.69c-0.69,0.49-1.18,1.18-1.76,2.25c-0.88,1.96-1.76,4.02-2.74,6.17c-0.88,2.06-1.76,4.21-2.65,6.17    c-0.88,2.06-1.67,4.02-2.45,5.98c-0.78,1.96-1.47,3.72-2.06,5.39l-0.29,0.69h5.59l0.1-0.29c0.29-0.78,0.59-1.76,1.08-2.94    c0.39-1.08,0.88-2.25,1.37-3.43h11.86c0.2,0.39,0.39,0.88,0.59,1.37c0.29,0.69,0.49,1.27,0.69,1.96c0.2,0.59,0.49,1.27,0.69,1.76    c0.2,0.59,0.39,0.98,0.49,1.27l0.1,0.29h5.98l-0.29-0.69C735.27,711.71,734.98,710.83,734.49,709.46 M725.28,701.32h-7.94    c0.29-0.78,0.59-1.47,0.88-2.25c0.39-0.98,0.88-2.06,1.27-3.04c0.39-0.98,0.88-1.96,1.27-2.84c0.2-0.49,0.39-0.98,0.59-1.37    c0.1,0.29,0.29,0.59,0.49,0.98c0.39,0.88,0.78,1.86,1.27,2.84c0.39,1.08,0.88,2.16,1.37,3.23    C724.69,699.75,724.98,700.54,725.28,701.32"/>
		<path class="st0" d="M760.85,686.43c-0.39-0.1-0.98-0.2-1.47-0.2c-0.88,0-1.57,0.2-2.06,0.59c-0.49,0.39-0.78,1.08-0.78,1.96v14.8    c-0.29-0.49-0.59-0.98-0.98-1.47c-0.78-1.18-1.57-2.25-2.35-3.53l-2.45-3.63c-0.88-1.18-1.67-2.35-2.35-3.33    c-0.78-1.08-1.37-1.96-1.96-2.74c-0.59-0.78-0.98-1.27-1.27-1.57l-0.1-0.1c-0.2-0.1-0.49-0.29-0.98-0.59    c-0.49-0.29-1.18-0.39-1.96-0.39c-0.78,0-1.57,0.2-2.16,0.59c-0.69,0.49-0.98,1.27-0.98,2.25v23.82h5.49v-18.23    c0.39,0.59,0.78,1.08,1.18,1.76c0.78,1.08,1.57,2.25,2.45,3.43l4.9,7.15c0.78,1.18,1.47,2.16,2.06,3.14l1.76,2.74h5.29v-25.97    l-0.29-0.2C761.64,686.72,761.34,686.62,760.85,686.43"/>
		<path class="st0" d="M790.85,712.1c-1.76-2.45-3.82-4.8-5.98-7.06c-2.06-2.16-4.21-4.21-6.57-6.27c0.39-0.39,0.88-0.78,1.37-1.27    c0.78-0.69,1.57-1.37,2.35-2.16l2.55-2.25c0.88-0.78,1.67-1.47,2.35-2.16c0.69-0.69,1.37-1.18,1.86-1.67    c0.59-0.49,0.88-0.78,0.98-0.88l0.29-0.29l-0.29-0.39c-0.2-0.29-0.59-0.59-1.08-0.88c-0.59-0.39-1.37-0.59-2.25-0.59    c-0.78,0-1.57,0.2-2.16,0.59c-0.49,0.29-1.08,0.78-1.76,1.27c-0.49,0.39-1.18,0.98-2.06,1.76c-0.88,0.78-1.76,1.57-2.84,2.55    c-0.98,0.88-1.96,1.76-2.94,2.65c-0.59,0.49-1.08,0.98-1.47,1.37v-9.6l-0.29-0.1c-0.1-0.1-0.39-0.1-0.78-0.29    c-0.49-0.1-0.98-0.2-1.47-0.2c-0.88,0-1.57,0.2-2.06,0.59c-0.59,0.39-0.78,1.08-0.78,1.96v24.11h5.49v-11.27    c0.78,0.69,1.67,1.37,2.45,2.16c1.18,0.98,2.25,2.06,3.33,3.14c0.98,1.08,2.06,2.06,2.94,3.14c0.88,0.98,1.67,1.86,2.35,2.65    l0.2,0.2h6.76L790.85,712.1z"/>
		<path class="st0" d="M762.42,630.46c2.16,0,3.92-1.76,3.92-3.92c0-2.16-1.76-3.92-3.92-3.92s-3.92,1.76-3.92,3.92    C758.5,628.7,760.27,630.46,762.42,630.46"/>
		<path class="st0" d="M475.84,624.87v38.42H483v-41.95c-0.49-0.1-1.86-0.49-3.14-0.49C477.02,620.86,475.84,622.03,475.84,624.87"/>
		<path class="st0" d="M460.75,624.87v26.27c0,3.92-1.76,5.78-5.49,5.78h-3.72v-25.97c-0.49-0.1-1.86-0.49-3.14-0.49    c-2.84,0-4.02,1.18-4.02,3.92v22.44h-7.25c-2.65,0-3.63,0.98-3.63,3.53c0,1.18,0.29,2.45,0.39,2.94h21.56    c3.72,0,6.66-1.08,8.92-3.33c2.25-2.16,3.43-5,3.43-8.43v-30.19c-0.49-0.1-1.86-0.49-3.14-0.49    C461.92,620.86,460.75,622.03,460.75,624.87"/>
		<path class="st0" d="M290.41,640.65c1.76,0,3.43,0.69,4.9,1.37c1.37,0.59,2.45,0.49,3.14-0.59c0.69-0.98,1.47-3.23,1.76-3.92    c-2.06-1.37-6.66-3.14-9.8-3.14c-8.23,0-13.43,4.8-13.43,12.55v9.9H265.9c-3.04,0-5.59-2.45-5.59-5.59v-15.49    c-0.2-0.1-0.59-0.1-0.98-0.2c-0.78-0.2-1.57-0.29-2.16-0.29c-2.84,0-4.02,1.18-4.02,3.92v11.86c0,3.92-1.76,5.78-5.59,5.78h-6.86    c-3.72,0-5.49-1.86-5.49-5.68v-14.9c-1.37-0.29-2.65-0.59-4.02-0.88c-1.37-0.29-2.94-0.49-4.51-0.69c-1.57-0.2-3.23-0.29-4.8-0.29    c-2.55,0-4.61,0.39-6.27,1.08c-1.67,0.69-3.14,1.76-4.12,2.94c-1.08,1.27-1.86,2.74-2.35,4.41c-0.49,1.67-0.69,3.53-0.69,5.49    c0,3.23,0.39,5.88,1.18,7.84c0.78,1.96,1.86,3.43,3.14,4.51c1.27,1.08,2.65,1.76,4.21,2.16c1.57,0.39,3.14,0.59,4.51,0.59    c1.47,0,3.04-0.2,4.51-0.59c1.57-0.39,2.94-1.08,4.21-2.16c0.2-0.2,0.39-0.39,0.59-0.59l0.2-0.2l0.2,0.2    c1.76,2.16,4.8,3.33,9.02,3.33h7.55c3.63,0,6.57-0.98,8.72-2.94l0.2-0.1l0.2,0.1c2.16,1.96,5.1,2.94,8.53,2.94h34.11    c0.1-0.49,0.39-1.67,0.39-2.84c0-2.55-1.08-3.63-3.53-3.63h-12.35v-10.58C284.23,643.1,286.88,640.65,290.41,640.65     M228.07,654.87L228.07,654.87c-0.78,0.69-2.35,2.06-5.88,2.06c-2.06,0-3.63-0.69-4.7-2.06c-1.08-1.37-1.67-3.43-1.67-6.37    c0-1.57,0.2-2.84,0.49-3.82c0.39-0.98,0.88-1.86,1.47-2.45c0.69-0.59,1.37-0.98,2.25-1.18s1.76-0.29,2.65-0.29    c0.59,0,1.37,0,2.35,0.1c0.88,0.1,1.86,0.2,2.84,0.39h0.2V654.87z"/>
		<path class="st0" d="M410.96,634.38c-4.41,0-8.72,1.27-13.13,3.92l1.27,3.82c0.2,0.49,0.59,0.88,1.08,1.08    c0.69,0.29,1.47,0.29,2.16-0.1c3.43-1.47,6.08-2.16,8.72-2.16c3.92,0,6.47,1.67,7.74,4.9c0.88,2.25,1.27,4.8,1.27,9.11v1.96    h-31.66c-3.04,0-5.59-2.45-5.59-5.59v-15.49c-0.49-0.1-1.86-0.49-3.14-0.49c-2.84,0-4.02,1.18-4.02,3.92v11.86    c0,3.92-1.76,5.78-5.59,5.78h-5.19c-4.12,0-6.47-1.86-7.06-5.59c-0.59-4.02-1.86-6.76-3.72-8.53c-2.16-2.06-5.29-3.04-9.51-3.04    c-7.74,0-12.25,3.92-13.33,11.56c-0.49,3.72-2.65,5.49-6.86,5.49h-7.74c-1.67,0-2.45-0.69-2.45-2.35v-33.03    c-0.49-0.1-1.86-0.49-3.14-0.49c-2.84,0-4.02,1.18-4.02,3.92v29.7c0,5.39,3.43,8.72,8.92,8.72h8.82c2.94,0,5.49-0.78,7.35-2.45    l0.2-0.2l0.1,0.29c2.06,4.31,6.47,6.76,12.06,6.76c5.88,0,10.29-2.65,12.25-7.35l0.1-0.29l0.29,0.29    c1.76,1.76,4.02,2.74,6.66,2.94h0.2h6.27c3.63,0,6.57-0.98,8.72-2.94l0.2-0.1l0.2,0.1c2.16,1.96,5.1,2.94,8.53,2.94h36.07    c1.76,0,3.23-1.47,3.23-3.23v-5.1c0-5.88-0.78-9.8-2.55-13.33C422.33,636.83,417.62,634.38,410.96,634.38 M344.51,661.33    c-2.55,0-5.98-0.78-5.98-7.74c0-6.96,3.43-7.74,5.98-7.74s5.98,0.78,5.98,7.74C350.49,660.55,347.06,661.33,344.51,661.33"/>
		<path class="st0" d="M784.38,639.28v11.86c0,3.82-1.86,5.78-5.59,5.78h-7.55c-3.73,0-5.59-1.86-5.59-5.59v-15.49    c-0.49-0.1-1.86-0.49-3.14-0.49c-2.84,0-4.02,1.18-4.02,3.92v11.86c0,3.92-1.76,5.78-5.59,5.78h-6.08c-4.8,0-7.06-2.45-7.06-7.55    v-27.93c-0.49-0.1-1.86-0.49-3.14-0.49c-2.84,0-4.02,1.18-4.02,3.92v26.36c0,3.72-1.86,5.49-5.59,5.49h-19.21    c-3.72,0-5.59-1.76-5.59-5.49v-15.39c-0.49-0.1-1.86-0.49-3.14-0.49c-2.84,0-4.02,1.18-4.02,3.92v12.55    c0,6.86,4.8,11.47,11.96,11.47h20.29c4.21,0,7.55-1.27,9.7-3.72l0.2-0.2l0.2,0.2c2.06,2.45,5.1,3.72,9.02,3.72h6.76    c3.63,0,6.57-0.98,8.72-2.94l0.2-0.1l0.2,0.1c2.16,1.96,5.1,2.94,8.53,2.94h8.23c3.72,0,6.76-1.08,9.02-3.33    c2.25-2.16,3.43-5,3.43-8.43v-15.68c-0.49-0.1-1.86-0.49-3.14-0.49C785.45,635.36,784.38,636.44,784.38,639.28"/>
		<path class="st0" d="M676.27,624.87v38.42h7.15v-41.95c-0.49-0.1-1.86-0.49-3.14-0.49C677.45,620.86,676.27,622.03,676.27,624.87"/>
		<path class="st0" d="M661.18,624.88v26.27c0,3.92-1.76,5.78-5.49,5.78h-6.76c-3.72,0-5.59-1.86-5.59-5.59v-15.49    c-0.49-0.1-1.86-0.49-3.14-0.49c-2.84,0-4.02,1.18-4.02,3.92v11.86c0,3.92-1.76,5.78-5.59,5.78h-7.15c-3.72,0-5.59-1.86-5.59-5.59    v-15.49c-0.49-0.1-1.86-0.49-3.14-0.49c-2.84,0-4.02,1.18-4.02,3.92v11.86c0,3.92-1.76,5.78-5.59,5.78h-6.27    c-4.12,0-6.47-1.86-7.06-5.59c-0.59-4.02-1.86-6.76-3.72-8.53c-2.16-2.06-5.29-3.04-9.51-3.04c-7.74,0-12.25,3.92-13.33,11.56    c-0.49,3.72-2.74,5.59-6.86,5.59h-5.29c-3.72,0-5.59-1.86-5.59-5.59v-15.49c-0.49-0.1-1.86-0.49-3.14-0.49    c-2.84,0-4.02,1.18-4.02,3.92v11.86c0,3.92-1.76,5.78-5.59,5.78h-7.55c-3.72,0-5.49-1.86-5.49-5.68v-14.9    c-1.37-0.29-2.65-0.59-4.02-0.88c-1.37-0.29-2.94-0.49-4.51-0.69c-1.57-0.2-3.23-0.29-4.8-0.29c-2.55,0-4.61,0.39-6.27,1.08    c-1.67,0.69-3.14,1.76-4.12,2.94c-1.08,1.27-1.86,2.74-2.35,4.41c-0.49,1.67-0.69,3.53-0.69,5.49c0,3.23,0.39,5.88,1.18,7.84    c0.78,1.96,1.86,3.43,3.14,4.51c1.27,1.08,2.65,1.76,4.21,2.16c1.57,0.39,3.14,0.59,4.51,0.59c1.47,0,3.04-0.2,4.51-0.59    c1.57-0.39,2.94-1.08,4.21-2.16c0.2-0.2,0.39-0.39,0.59-0.59l0.2-0.2l0.2,0.2c1.76,2.16,4.8,3.33,9.02,3.33h8.23    c3.63,0,6.57-0.98,8.72-2.94l0.2-0.1l0.2,0.1c2.16,1.96,5.1,2.94,8.53,2.94h6.08c2.94,0,5.49-0.78,7.35-2.45l0.2-0.2l0.1,0.29    c2.06,4.31,6.47,6.76,12.06,6.76c5.88,0,10.29-2.65,12.25-7.35l0.1-0.29l0.29,0.29c1.76,1.76,4.02,3.04,6.66,3.04h7.45    c3.63,0,6.57-0.98,8.72-2.94l0.2-0.1l0.2,0.1c2.16,1.96,5.1,2.94,8.53,2.94h7.84c3.63,0,6.57-0.98,8.72-2.94l0.2-0.1l0.2,0.1    c2.16,1.96,5.1,2.94,8.53,2.94h7.35c3.72,0,6.76-1.08,9.02-3.33c2.25-2.16,3.43-5,3.43-8.43v-30.19c-0.49-0.1-1.86-0.49-3.14-0.49    C662.35,620.86,661.18,622.03,661.18,624.88 M514.46,654.87L514.46,654.87c-0.78,0.69-2.35,2.06-5.88,2.06    c-2.06,0-3.63-0.69-4.7-2.06c-1.08-1.37-1.67-3.53-1.67-6.37c0-1.57,0.2-2.84,0.49-3.82c0.39-1.08,0.88-1.86,1.47-2.45    c0.69-0.59,1.37-0.98,2.25-1.18c0.88-0.2,1.76-0.29,2.65-0.29c0.59,0,1.37,0,2.35,0.1c0.88,0.1,1.86,0.2,2.84,0.39h0.2V654.87z     M578.56,661.33c-1.08,0-2.74-0.1-4.02-1.27c-1.37-1.27-2.06-3.43-2.06-6.37c0-6.86,3.43-7.74,5.98-7.74    c1.08,0,2.65,0.1,3.92,1.27c1.37,1.18,1.96,3.43,1.96,6.37C584.44,660.55,581.1,661.33,578.56,661.33"/>
		<path class="st0" d="M722.63,644.58c0-1.18-0.49-1.67-1.67-1.67h-5.29v-2.45c0-1.47,1.18-2.35,2.55-2.35    c0.78,0,1.57,0.29,2.06,0.59c0.59,0.29,1.18,0.29,1.47-0.29c0.39-0.49,0.78-1.86,0.78-1.86c-0.98-0.59-3.04-1.47-4.41-1.47    c-4.02,0-5.98,2.45-5.98,5.68v5.19h10.29C722.43,645.95,722.63,645.26,722.63,644.58"/>
		<path class="st0" d="M775.56,667.51c-2.16,0-3.92,1.76-3.92,3.92c0,2.16,1.76,3.92,3.92,3.92c2.16,0,3.92-1.76,3.92-3.92    C779.48,669.27,777.71,667.51,775.56,667.51"/>
		<path class="st0" d="M227.09,630.46c2.16,0,3.92-1.76,3.92-3.92c0-2.06-1.76-3.92-3.92-3.92c-2.16,0-3.92,1.76-3.92,3.92    C223.17,628.6,225.03,630.46,227.09,630.46"/>
		<path class="st0" d="M216.8,630.46c2.16,0,4.02-1.76,4.02-3.92c0-2.16-1.76-3.92-4.02-3.92c-2.16,0-3.92,1.76-3.92,3.92    C212.88,628.6,214.64,630.46,216.8,630.46"/>
		<path class="st0" d="M261.88,667.51c-2.16,0-3.92,1.76-3.92,3.92c0,2.16,1.67,3.92,3.72,3.92c2.16,0,4.12-1.76,4.12-3.92    C265.81,669.37,264.04,667.51,261.88,667.51"/>
		<path class="st0" d="M251.69,667.51c-2.16,0-3.92,1.67-3.92,3.92c0,2.16,1.57,3.92,3.72,3.92c2.16,0,4.12-1.76,4.12-3.92    C255.61,669.37,253.85,667.51,251.69,667.51"/>
		<path class="st0" d="M374.11,630.46c2.16,0,3.92-1.76,3.92-3.92c0-2.06-1.76-3.92-3.92-3.92c-2.16,0-3.92,1.67-3.92,3.92    C370.19,628.7,371.95,630.46,374.11,630.46"/>
		<path class="st0" d="M384.3,630.46c2.16,0,3.92-1.76,3.92-3.92c0-2.06-1.76-3.92-3.92-3.92c-2.06,0-3.92,1.76-3.92,3.92    C380.48,628.6,382.24,630.46,384.3,630.46"/>
		<path class="st0" d="M412.53,667.51c-2.16,0-3.92,1.76-3.92,3.92c0,2.16,1.76,3.92,3.92,3.92c2.16,0,3.92-1.76,3.92-3.92    C416.54,669.37,414.68,667.51,412.53,667.51"/>
		<path class="st0" d="M549.05,667.51c-2.16,0-3.92,1.76-3.92,3.92c0,2.16,1.76,3.92,3.92,3.92c2.16,0,3.92-1.76,3.92-3.92    C552.97,669.37,551.21,667.51,549.05,667.51"/>
		<path class="st0" d="M538.86,667.51c-2.16,0-3.92,1.67-3.92,3.92c0,2.16,1.76,3.92,3.92,3.92c2.16,0,3.92-1.76,3.92-3.92    C542.78,669.37,541.02,667.51,538.86,667.51"/>
		<path class="st0" d="M614.33,630.46c2.16,0,3.92-1.76,3.92-3.92c0-2.06-1.76-3.92-3.92-3.92c-2.16,0-3.92,1.76-3.92,3.92    C610.41,628.6,612.17,630.46,614.33,630.46"/>
		<path class="st0" d="M634.72,630.46c2.16,0,3.92-1.76,3.92-3.92c0-2.06-1.76-3.92-3.92-3.92c-2.16,0-3.92,1.67-3.92,3.92    C630.79,628.7,632.56,630.46,634.72,630.46"/>
		<path class="st0" d="M644.91,630.46c2.16,0,3.92-1.76,3.92-3.92c0-2.06-1.76-3.92-3.92-3.92c-2.06,0-3.92,1.76-3.92,3.92    C640.99,628.6,642.75,630.46,644.91,630.46"/>
		<path class="st0" d="M513.48,630.46c2.16,0,3.92-1.76,3.92-3.92c0-2.06-1.76-3.92-3.92-3.92c-2.16,0-3.92,1.76-3.92,3.92    C509.56,628.6,511.32,630.46,513.48,630.46"/>
		<path class="st0" d="M503.19,630.46c2.16,0,4.02-1.76,4.02-3.92c0-2.16-1.76-3.92-4.02-3.92c-2.16,0-3.92,1.76-3.92,3.92    C499.27,628.6,501.03,630.46,503.19,630.46"/>
	</g>
	
		<linearGradient id="SVGID_1_" gradientUnits="userSpaceOnUse" x1="433.0438" y1="454.3938" x2="653.1503" y2="674.5004" gradientTransform="matrix(1 0 0 -1 0 1002)">
		<stop offset="0" style="stop-color:#0073AD"/>
		<stop offset="0.5" style="stop-color:#00B9BD"/>
		<stop offset="0.6535" style="stop-color:#2BBD9B"/>
		<stop offset="1" style="stop-color:#8AC650"/>
	</linearGradient>
	<path class="st1" d="M533.02,322.46v23.07c0,3.78-3.05,6.96-6.96,6.96h-22.22c-25.76,0-36.87,10.74-36.87,36.01v23.07   c0,3.78-3.05,6.96-6.96,6.96H437.8c-25.76,0-36.87,10.74-36.87,36.01v30.03c0,54.69,44.31,99,99,99s99-44.31,99-99v-65.92h-29.18   c-25.76,0-36.87,10.62-36.87,36.01v30.03c0,18.19-14.77,32.96-32.96,32.96c-18.19,0-32.96-14.77-32.96-32.96v-59.09   c0-3.78,3.05-6.96,6.96-6.96h24.17c25.76,0,34.91-15.02,34.91-40.41v-18.92c0-3.78,3.05-6.96,6.96-6.96h24.17   c25.76,0,34.91-15.02,34.91-40.41v-25.64h-29.18C544.13,286.45,533.02,297.19,533.02,322.46z"/>
</g>
</svg>