<svg width="36" height="36" viewBox="0 0 36 36" fill="none" xmlns="http://www.w3.org/2000/svg">
<path d="M18 22.5C20.4853 22.5 22.5 20.4853 22.5 18C22.5 15.5147 20.4853 13.5 18 13.5C15.5147 13.5 13.5 15.5147 13.5 18C13.5 20.4853 15.5147 22.5 18 22.5Z" stroke="white" stroke-width="1.5"/>
<path d="M20.6492 3.228C20.0987 3 19.3997 3 18.0017 3C16.6037 3 15.9047 3 15.3542 3.228C14.9899 3.37877 14.659 3.59984 14.3802 3.87859C14.1015 4.15733 13.8804 4.48827 13.7297 4.8525C13.5917 5.187 13.5362 5.5785 13.5152 6.147C13.5054 6.55789 13.3916 6.9596 13.1843 7.31453C12.9771 7.66947 12.6832 7.96604 12.3302 8.1765C11.9714 8.37716 11.5675 8.48351 11.1564 8.48561C10.7454 8.48771 10.3405 8.38548 9.97965 8.1885C9.47565 7.9215 9.11115 7.7745 8.74965 7.7265C7.96113 7.62281 7.1637 7.83646 6.53265 8.3205C6.06165 8.685 5.71065 9.2895 5.01165 10.5C4.31265 11.7105 3.96165 12.315 3.88515 12.9075C3.83361 13.2982 3.85953 13.6952 3.96145 14.0758C4.06337 14.4565 4.23929 14.8133 4.47915 15.126C4.70115 15.414 5.01165 15.6555 5.49315 15.9585C6.20265 16.404 6.65865 17.163 6.65865 18C6.65865 18.837 6.20265 19.596 5.49315 20.04C5.01165 20.3445 4.69965 20.586 4.47915 20.874C4.23929 21.1867 4.06337 21.5435 3.96145 21.9242C3.85953 22.3048 3.83361 22.7018 3.88515 23.0925C3.96315 23.6835 4.31265 24.2895 5.01015 25.5C5.71065 26.7105 6.06015 27.315 6.53265 27.6795C6.84531 27.9194 7.20215 28.0953 7.58281 28.1972C7.96347 28.2991 8.36047 28.325 8.75115 28.2735C9.11115 28.2255 9.47565 28.0785 9.97965 27.8115C10.3405 27.6145 10.7454 27.5123 11.1564 27.5144C11.5675 27.5165 11.9714 27.6228 12.3302 27.8235C13.0547 28.2435 13.4852 29.016 13.5152 29.853C13.5362 30.423 13.5902 30.813 13.7297 31.1475C13.8804 31.5117 14.1015 31.8427 14.3802 32.1214C14.659 32.4002 14.9899 32.6212 15.3542 32.772C15.9047 33 16.6037 33 18.0017 33C19.3997 33 20.0987 33 20.6492 32.772C21.0134 32.6212 21.3443 32.4002 21.6231 32.1214C21.9018 31.8427 22.1229 31.5117 22.2737 31.1475C22.4117 30.813 22.4672 30.423 22.4882 29.853C22.5182 29.016 22.9487 28.242 23.6732 27.8235C24.0319 27.6228 24.4358 27.5165 24.8469 27.5144C25.2579 27.5123 25.6628 27.6145 26.0237 27.8115C26.5277 28.0785 26.8922 28.2255 27.2522 28.2735C27.6428 28.325 28.0398 28.2991 28.4205 28.1972C28.8011 28.0953 29.158 27.9194 29.4707 27.6795C29.9432 27.3165 30.2927 26.7105 30.9917 25.5C31.6907 24.2895 32.0417 23.685 32.1182 23.0925C32.1697 22.7018 32.1438 22.3048 32.0419 21.9242C31.9399 21.5435 31.764 21.1867 31.5242 20.874C31.3022 20.586 30.9917 20.3445 30.5102 20.0415C30.159 19.8276 29.8679 19.5281 29.6641 19.1711C29.4603 18.814 29.3504 18.4111 29.3447 18C29.3447 17.163 29.8007 16.404 30.5102 15.96C30.9917 15.6555 31.3037 15.414 31.5242 15.126C31.764 14.8133 31.9399 14.4565 32.0419 14.0758C32.1438 13.6952 32.1697 13.2982 32.1182 12.9075C32.0402 12.3165 31.6907 11.7105 30.9932 10.5C30.2927 9.2895 29.9432 8.685 29.4707 8.3205C29.158 8.08064 28.8011 7.90472 28.4205 7.8028C28.0398 7.70088 27.6428 7.67495 27.2522 7.7265C26.8922 7.7745 26.5277 7.9215 26.0222 8.1885C25.6615 8.38522 25.2569 8.48729 24.8461 8.48519C24.4353 8.4831 24.0318 8.37689 23.6732 8.1765C23.3201 7.96604 23.0262 7.66947 22.819 7.31453C22.6117 6.9596 22.4979 6.55789 22.4882 6.147C22.4672 5.577 22.4132 5.187 22.2737 4.8525C22.1229 4.48827 21.9018 4.15733 21.6231 3.87859C21.3443 3.59984 21.0134 3.37877 20.6492 3.228Z" stroke="white" stroke-width="1.5"/>
</svg>
