<?xml version="1.0" encoding="utf-8"?>
<!-- Generator: Adobe Illustrator 23.0.5, SVG Export Plug-In . SVG Version: 6.00 Build 0)  -->
<svg version="1.1" id="Layer_1" xmlns="http://www.w3.org/2000/svg" xmlns:xlink="http://www.w3.org/1999/xlink" x="0px" y="0px"
	 viewBox="0 0 150 50" style="enable-background:new 0 0 150 50;" xml:space="preserve">
<style type="text/css">
	.st0{fill:#CBCBCA;}
	.st1{fill:#FFFFFF;}
	.st2{fill:#FFFFFF;stroke:#FFFFFF;stroke-miterlimit:10;}
</style>
<g>
	<path class="st0" d="M94.7,29.3v-6.8c0-0.4-0.4-0.8-0.8-0.8l0,0c-0.4,0-0.8,0.4-0.8,0.8v6.8H94.7z"/>
	<path class="st1" d="M88.1,24.4v3.3c0,0-0.3,2.5-2.5,2.5H68c0,0-1.4-0.3-2.1-1.1c0,0-1.2,1.1-2.3,1.1s-8.4,0-8.4,0
		s-2.6-0.4-2.6-2.8s0-7.6,0-7.6h2.9v7.4h8.7L64,25.7h-5.4v-2.8h5.2c0,0,0.9-0.2,2.1,1c0,0,1.2-1,2.3-1s5.2,0,5.2,0v2.8h-5.5
		l-0.3,1.6h17.7v-2.9L88.1,24.4L88.1,24.4z M77.8,26.1l2.1-2.1l-2.1-2.1L75.7,24L77.8,26.1z M81.9,26.1L84,24l-2.1-2.1L79.8,24
		L81.9,26.1z M34.9,22.2c-3.8,1.1-2.3,4.8-2.3,4.8h-3.3c0-4.8-4.4-4.8-4.4-4.8v3c1.7,0,1.6,1.8,1.6,1.8h-4.4v2.8h3.5
		C27.6,29.5,28,27,28,27c0,2.3,2.3,2.8,2.3,2.8s2.3,0,3.9,0s2.3-1.1,2.3-1.1c1.2,1.1,2,1.1,2,1.1h8.2c3.5-0.2,3.2-4.1,3.2-4.1
		c-0.5-2.9-3.1-3.1-3.1-3.1s-4.8,0-6.9,0s-2.1-2.5-2.1-2.5h-2.9L34.9,22.2L34.9,22.2z M36.3,24.4c0.8,0,1.4,0.6,1.4,1.4
		c0,0.8-0.6,1.4-1.4,1.4S35,26.6,35,25.8C35,25.1,35.6,24.4,36.3,24.4z M40.4,25.3H47c0,0,0.5,0.2,0.5,0.9c0,0,0,0.7-0.5,0.7h-7
		C40,26.9,40.4,26.4,40.4,25.3z"/>
	<path class="st2" d="M104.9,21.1h6.3c0,0,1.4,0,2.6,1.4c0,0,1-1.3,2.5-1.4h6.3v3.5H116l-0.3,1.9h12.1v3.5h-11.4
		c0,0-1.8-0.1-2.5-1.4c0,0-1,1.4-2.6,1.4H99.8L98,26.4h13.9l-0.3-1.9h-6.6L104.9,21.1"/>
</g>
</svg>
